/* XPM */
static char * 0_xpm[] = {
"30 30 29 1",
" 	c #5F1C1C",
".	c #000000",
"+	c #0E0101",
"@	c #1B0404",
"#	c #110202",
"$	c #1A0404",
"%	c #160303",
"&	c #FFF3F3",
"*	c #050505",
"=	c #010101",
"-	c #0F0D0D",
";	c #1C0404",
">	c #050404",
",	c #070101",
"'	c #290707",
")	c #0B0101",
"!	c #010000",
"~	c #0C0B0B",
"{	c #060101",
"]	c #2A2626",
"^	c #020000",
"/	c #030000",
"(	c #F9EEEE",
"_	c #030101",
":	c #FCF0F0",
"<	c #020202",
"[	c #080707",
"}	c #070505",
"|	c #151414",
"                              ",
"                              ",
"      ..+...@#......$..       ",
"     %..&&&&&&&&*.&&&&&.      ",
"     .=-&&&&&&&&&&&&&&&;      ",
"     .&>&+.....,++..&&&'      ",
"     .&&)           !&&'      ",
"     .&&.           .&&'      ",
"     .&&.           .&&@      ",
"     .&&.           .&&,      ",
"     .&&.           ..&.      ",
"     ..&.           ..~{      ",
"     ..&.           +...      ",
"     .]&.           ...^      ",
"     .&&.           %.&.      ",
"     .&&.           .&&.      ",
"     .&&.           .&&/      ",
"     .&&.           .&&.      ",
"     @&&.           .&&.      ",
"     .&&.           .&&.      ",
"     .&&.           .&&.      ",
"     .&&.           .&&.      ",
"     ..(&_..!.,,.{^!:=&!      ",
"     ...&=.&&&&&&&&&*.&.      ",
"     !<.=[.&&&&&&&&&}|&.      ",
"      .!............+..       ",
"                              ",
"                              ",
"                              ",
"                              "};
