/* XPM */
static char * 1_xpm[] = {
"30 30 19 1",
" 	c #5F1C1C",
".	c #000000",
"+	c #040101",
"@	c #FFF3F3",
"#	c #010101",
"$	c #FDF1F1",
"%	c #050404",
"&	c #FBF0F0",
"*	c #060101",
"=	c #121111",
"-	c #110202",
";	c #040000",
">	c #0E0101",
",	c #020202",
"'	c #030000",
")	c #020101",
"!	c #090101",
"~	c #020000",
"{	c #070101",
"                              ",
"                              ",
"                              ",
"                              ",
"               .+.            ",
"             ..@#.            ",
"           ...@...            ",
"          ..$#@.%.            ",
"          .@&$.@@.            ",
"          .@...@@.            ",
"           *. ..@.            ",
"              .=@.            ",
"              .@@-            ",
"              .@@.            ",
"              .@@;            ",
"              .@..            ",
"              .#.>            ",
"              .%,'            ",
"              .@.'            ",
"              .@@.            ",
"              .@@.            ",
"              .@@.            ",
"              .@).            ",
"              ..#.            ",
"              !~{.            ",
"                              ",
"                              ",
"                              ",
"                              ",
"                              "};
