/* XPM */
static char * 2_xpm[] = {
"30 30 30 1",
" 	c #5F1C1C",
".	c #5F1B1B",
"+	c #5E1B1B",
"@	c #000000",
"#	c #090101",
"$	c #5D1A1A",
"%	c #050101",
"&	c #FFF3F3",
"*	c #F9EEEE",
"=	c #010101",
"-	c #030000",
";	c #070101",
">	c #0E0D0D",
",	c #060000",
"'	c #060101",
")	c #110F0F",
"!	c #5D1B1B",
"~	c #0E0101",
"{	c #110202",
"]	c #121111",
"^	c #5C1A1A",
"/	c #020000",
"(	c #040000",
"_	c #0D0101",
":	c #1B0404",
"<	c #050404",
"[	c #010000",
"}	c #561818",
"|	c #020202",
"1	c #111010",
"              . +             ",
"            +@@@#$            ",
"           @%@&&@@@@..        ",
"          @@&&*=&&&@-;        ",
"        +@@&&&>@&&@@&@        ",
"        .,&&&@'@@=@@&&@       ",
"       .@@&&@   @@@&&&@@      ",
"        @=)&@     @@&&&@      ",
"        @@@&@      !@@@@+     ",
"        @&@&~{     .@=]@+.    ",
"        .@&&&@     ^@&@@^.    ",
"         /@&&@    @@&&&@..    ",
"          .{@     @&@&&@!     ",
"           +     @@@@&@@.     ",
"                 @&@@&@       ",
"            .   @&&&&@        ",
"          ..  @@&&&&@@        ",
"             (_&&&@@.         ",
"            :&&@&@@           ",
"           @@&<[@}            ",
"        ..@&&&@@@@@@@@        ",
"         @&&&&|=&&&&&@        ",
"      ..@@&&&1||@&&&&@        ",
"       .@@@@@@@@@@@@@@        ",
"                !             ",
"                              ",
"                              ",
"                              ",
"                              ",
"                              "};
