/* XPM */
static char * 3_xpm[] = {
"30 30 18 1",
" 	c #5F1C1C",
".	c #000000",
"+	c #FFF3F3",
"@	c #030303",
"#	c #020202",
"$	c #010101",
"%	c #070606",
"&	c #080707",
"*	c #5E1B1B",
"=	c #030000",
"-	c #090808",
";	c #020101",
">	c #5F1B1B",
",	c #0D0101",
"'	c #FCF0F0",
")	c #E8DDDD",
"!	c #161414",
"~	c #0C0B0B",
"                              ",
"                              ",
"                              ",
"                              ",
"           ......             ",
"          ..++@#..            ",
"         ..++++$%..           ",
"        ..+++..+...           ",
"        .++..  .+&.           ",
"        .+..   .++.           ",
"        ...   ..++.           ",
"             ..+++.           ",
"           ..++++.            ",
"        ...++.+++.            ",
"        .++$..+..             ",
"        .++..+..              ",
"        ...+++++.*            ",
"           ...+++.            ",
"              .+++=           ",
"        ..    ..+#.*          ",
"        .+.. ..++-.           ",
"        .;++..++++.>          ",
"        ,$.+++'.++.*          ",
"        ..)+++!~+..           ",
"         ........             ",
"                              ",
"                              ",
"                              ",
"                              ",
"                              "};
