/* XPM */
static char * 4_xpm[] = {
"30 30 12 1",
" 	c #5F1C1C",
".	c #000000",
"+	c #150202",
"@	c #FFF3F3",
"#	c #151313",
"$	c #0C0101",
"%	c #FCF0F0",
"&	c #010101",
"*	c #070707",
"=	c #0B0909",
"-	c #120202",
";	c #040303",
"                              ",
"                              ",
"                              ",
"                              ",
"              ...             ",
"             ++@@.            ",
"             .@.@.            ",
"            ..@#..            ",
"            +@@@@.            ",
"            .@@@@.            ",
"           .@@@.@.            ",
"          ..@@.$@.            ",
"          .@@...@.            ",
"         ..@@. .@.            ",
"        ..@@.  .@@.           ",
"       ..@@.   .@@.           ",
"      ..@@@.....@@@.          ",
"      .@%&@@@@@@@@@......     ",
"     .@@*.@@@@@@@@@@@@@@.     ",
"     ..........@@.@@@@@.      ",
"              .@==@....-      ",
"              .@==@.          ",
"              .@.@@.          ",
"              .@@@@.          ",
"              .@@@@@.         ",
"              .@;&@@.         ",
"              .......         ",
"                              ",
"                              ",
"                              "};
