/* XPM */
static char * 5_xpm[] = {
"30 30 14 1",
" 	c #5F1C1C",
".	c #000000",
"+	c #140202",
"@	c #FFF3F3",
"#	c #060505",
"$	c #010101",
"%	c #E8DDDD",
"&	c #0A0101",
"*	c #100202",
"=	c #0D0101",
"-	c #020202",
";	c #050404",
">	c #030000",
",	c #060606",
"                              ",
"                              ",
"                              ",
"        ...........           ",
"        +@@@@@@..@.           ",
"        .@@@#$@@@@.           ",
"        .@%........           ",
"        .@..                  ",
"        ....                  ",
"        &...                  ",
"        &@..                  ",
"        .@@.....              ",
"        .@@@@@@..             ",
"        .@@@@@.@..            ",
"        .....@..@.            ",
"            ..@....           ",
"              *@@@.           ",
"              =..@.           ",
"        ..  ..@.-@.           ",
"        .@...@@.;@.           ",
"        .@@.@@@@@.>           ",
"        .@,.@@@..             ",
"         .......              ",
"                              ",
"                              ",
"                              ",
"                              ",
"                              ",
"                              ",
"                              "};
