/* XPM */
static char * 6_xpm[] = {
"30 30 16 1",
" 	c #5F1C1C",
".	c #000000",
"+	c #070707",
"@	c #FFF3F3",
"#	c #100E0E",
"$	c #121010",
"%	c #FAEEEE",
"&	c #020202",
"*	c #070606",
"=	c #FDF1F1",
"-	c #0B0A0A",
";	c #FCF0F0",
">	c #090101",
",	c #151313",
"'	c #5D1B1B",
")	c #161515",
"                              ",
"                              ",
"                              ",
"                              ",
"                ....          ",
"              ...+@..         ",
"             ..@.#@@..        ",
"            .@@@$%@@@.        ",
"           .@@@@@@@@@.        ",
"          ..@@@@@@@...        ",
"         .@@@@@@@..           ",
"        ..@&*@@@..            ",
"       ..@..*@@.              ",
"       .@@..@@..              ",
"       .@@@@@.                ",
"      ..@@@@@....             ",
"      .@@@@@@@@@@.            ",
"      .@...=@...@@.           ",
"      .@-.;@.   >@..          ",
"      .@,@@@.  '.@@.          ",
"      .@@@@@.   .@@.          ",
"       ..@@@@...@@@.          ",
"        ..@@@@@@@@.           ",
"         ...@@))@..           ",
"           .......            ",
"                              ",
"                              ",
"                              ",
"                              ",
"                              "};
