/* XPM */
static char * 7_xpm[] = {
"30 30 5 1",
" 	c #5F1C1C",
".	c #000000",
"+	c #FFF3F3",
"@	c #0E0202",
"#	c #FCF0F0",
"                              ",
"                              ",
"                              ",
"                              ",
"                              ",
"                              ",
"        ...............       ",
"        .+++..+++++..+.       ",
"        .+++.++++++....       ",
"        .+++++++++++...       ",
"        ........++++++.       ",
"               .+.+++@        ",
"              ....++.         ",
"             ..+..+.          ",
"             .++.++.          ",
"            .+++++.           ",
"            .++++.            ",
"           .+.#+..            ",
"           ....+.             ",
"          .+..+..             ",
"          .+++..              ",
"          .+++.               ",
"          .....               ",
"                              ",
"                              ",
"                              ",
"                              ",
"                              ",
"                              ",
"                              "};
