/* XPM */
static char * 8_xpm[] = {
"30 30 18 1",
" 	c #5F1C1C",
".	c #000000",
"+	c #FFF3F3",
"@	c #161414",
"#	c #191717",
"$	c #010101",
"%	c #5F1B1B",
"&	c #5C1A1A",
"*	c #040404",
"=	c #030303",
"-	c #020202",
";	c #FCF0F0",
">	c #050404",
",	c #0F0E0E",
"'	c #020000",
")	c #0C0A0A",
"!	c #5E1A1A",
"~	c #110202",
"                              ",
"                              ",
"                              ",
"         ........             ",
"        ..+++@@+...           ",
"       ..+++++++++...         ",
"      ..++++++++++++..        ",
"      .++++......++++.        ",
"     ..++++.    ..++#.        ",
"     .+.++.      .++#.        ",
"     .$.+.%      .+++.        ",
"     ..++.      ..+++.        ",
"     .+++.&     .++++.        ",
"     ..+++..   .++++.         ",
"      .++++.....+++.          ",
"      .++++.#+++++.           ",
"       .+++*=-++++.           ",
"      .++++;$-++++.           ",
"     .+>,++....++++.          ",
"     ....+..  '.++++.         ",
"     .>.++.    .+++$.         ",
"     .+)++.    !.+.,.         ",
"      .+++.    !.+.*.         ",
"      .++++.   .++++.         ",
"      ...+++...++++..         ",
"        .~++++++++..          ",
"         ..++++++..           ",
"           .......            ",
"                              ",
"                              "};
