/* XPM */
static char * 9_xpm[] = {
"30 30 32 1",
" 	c #5F1C1C",
".	c #110202",
"+	c #000000",
"@	c #FFF3F3",
"#	c #1C0000",
"$	c #191717",
"%	c #090707",
"&	c #140000",
"*	c #200000",
"=	c #601C1C",
"-	c #611D1D",
";	c #210000",
">	c #060606",
",	c #200505",
"'	c #070000",
")	c #130000",
"!	c #070707",
"~	c #120000",
"{	c #0F0000",
"]	c #5F1B1B",
"^	c #230505",
"/	c #130E0E",
"(	c #030202",
"_	c #150000",
":	c #F8ECEC",
"<	c #FEF2F2",
"[	c #F9EDED",
"}	c #190202",
"|	c #040000",
"1	c #090808",
"2	c #160101",
"3	c #5D1B1B",
"                              ",
"                              ",
"                              ",
"                              ",
"                              ",
"             .+++++           ",
"            +@@@@@@++         ",
"           +@@@@@@@@@+        ",
"          #@@@@+$+@@@@++      ",
"          +@@@%   +@@@@@#     ",
"          &@@@*=- +@@@@@+     ",
"          +@@@+== +@@+@@+     ",
"           ;@@@+++@@++@@+     ",
"            +@@@@@@@@@@@+     ",
"             +++>@@@@@@++     ",
"                +@@@@@@+      ",
"              ,'@@@+@@@+      ",
"             ,'@@@++@@++      ",
"            ,)@@@@+@@!~       ",
"           ,+@@@@@@@@{        ",
"        ]^++@@@@@@@+/         ",
"        &+@@@@@@@@@)          ",
"        +@@@@@@@@@+           ",
"        +@@@@@@@@(            ",
"         _!@@:<[+}            ",
"          |+1++2              ",
"           33                 ",
"                              ",
"                              ",
"                              "};
