/* XPM */
static char * sL_xpm[] = {
"60 60 573 2",
"  	c #A6B980",
". 	c #0A0C06",
"+ 	c #5F1C1C",
"@ 	c #591A1A",
"# 	c #5E1B1B",
"$ 	c #5F221E",
"% 	c #000000",
"& 	c #96A874",
"* 	c #A7B97E",
"= 	c #A8B97B",
"- 	c #A7B97D",
"; 	c #A6B97F",
"> 	c #A3B57D",
", 	c #A2B57D",
"' 	c #9DAF79",
") 	c #441212",
"! 	c #521717",
"~ 	c #5F1B1B",
"{ 	c #090C05",
"] 	c #A8B97A",
"^ 	c #A2B47C",
"/ 	c #96A773",
"( 	c #9CAD78",
"_ 	c #97A974",
": 	c #97A874",
"< 	c #91A26F",
"[ 	c #859566",
"} 	c #839264",
"| 	c #758359",
"1 	c #5C6746",
"2 	c #606B49",
"3 	c #4E1616",
"4 	c #3B0E0E",
"5 	c #461313",
"6 	c #5B1A1A",
"7 	c #92A270",
"8 	c #9CAE78",
"9 	c #95A773",
"0 	c #A7B97C",
"a 	c #91A16F",
"b 	c #98AA75",
"c 	c #94A572",
"d 	c #7B8A5E",
"e 	c #4A5437",
"f 	c #616C47",
"g 	c #4E5739",
"h 	c #4B5437",
"i 	c #4A5336",
"j 	c #343B26",
"k 	c #2E3420",
"l 	c #303620",
"m 	c #2B311D",
"n 	c #3A4027",
"o 	c #431111",
"p 	c #3A0E0E",
"q 	c #4C1515",
"r 	c #333922",
"s 	c #667149",
"t 	c #646F4A",
"u 	c #495236",
"v 	c #66724D",
"w 	c #A4B57F",
"x 	c #ADBF89",
"y 	c #A5B87F",
"z 	c #98A975",
"A 	c #829163",
"B 	c #373E27",
"C 	c #555E3D",
"D 	c #4D5535",
"E 	c #4B5230",
"F 	c #49502B",
"G 	c #6B733D",
"H 	c #86904D",
"I 	c #899452",
"J 	c #8B9655",
"K 	c #97A35E",
"L 	c #9DA962",
"M 	c #9EAA60",
"N 	c #9FAA5C",
"O 	c #9DA755",
"P 	c #899246",
"Q 	c #90994A",
"R 	c #4A1414",
"S 	c #3D0F0F",
"T 	c #571919",
"U 	c #959D48",
"V 	c #767D3C",
"W 	c #69703B",
"X 	c #4B522E",
"Y 	c #636C41",
"Z 	c #555E3B",
"` 	c #A6B881",
" .	c #ABBE87",
"..	c #A7BA82",
"+.	c #9FB17B",
"@.	c #83A165",
"#.	c #4B5D38",
"$.	c #434B2F",
"%.	c #4F5630",
"&.	c #6B723A",
"*.	c #666D34",
"=.	c #707738",
"-.	c #8D944A",
";.	c #A1A952",
">.	c #A2AA4D",
",.	c #A9B14A",
"'.	c #AFB84D",
").	c #A9B14B",
"!.	c #ACB44D",
"~.	c #ACB54E",
"{.	c #ADB54D",
"].	c #B4BC4F",
"^.	c #B4BC4E",
"/.	c #B0B84B",
"(.	c #ABB24A",
"_.	c #A1A949",
":.	c #A8B04D",
"<.	c #979F4C",
"[.	c #5E653A",
"}.	c #808D5D",
"|.	c #889868",
"1.	c #93A471",
"2.	c #ABBD87",
"3.	c #A8BB82",
"4.	c #5D6846",
"5.	c #495E36",
"6.	c #849D56",
"7.	c #8E974B",
"8.	c #A0A849",
"9.	c #A9B149",
"0.	c #AAB249",
"a.	c #B0B84D",
"b.	c #B4BC4D",
"c.	c #6B702B",
"d.	c #454819",
"e.	c #4E521D",
"f.	c #585C22",
"g.	c #50541E",
"h.	c #4B4E1C",
"i.	c #404417",
"j.	c #353711",
"k.	c #4B1413",
"l.	c #561717",
"m.	c #5D1B1A",
"n.	c #797F31",
"o.	c #A2A944",
"p.	c #B3BB4D",
"q.	c #979F45",
"r.	c #444A26",
"s.	c #1F2314",
"t.	c #404931",
"u.	c #8B9B6D",
"v.	c #A4B77E",
"w.	c #A7B97F",
"x.	c #A9BC84",
"y.	c #A2B47E",
"z.	c #707E56",
"A.	c #1D2414",
"B.	c #3D4C24",
"C.	c #97A04B",
"D.	c #B1B94D",
"E.	c #A5AD46",
"F.	c #ADB54A",
"G.	c #74792F",
"H.	c #5B6023",
"I.	c #383B13",
"J.	c #70752D",
"K.	c #7D8233",
"L.	c #808634",
"M.	c #0D0E02",
"N.	c #050501",
"O.	c #9CA342",
"P.	c #B2BA4C",
"Q.	c #969D42",
"R.	c #363A1C",
"S.	c #16190D",
"T.	c #444C32",
"U.	c #6E7A53",
"V.	c #9CAE77",
"W.	c #A5B87E",
"X.	c #A9BB86",
"Y.	c #6C7952",
"Z.	c #252C19",
"`.	c #292F10",
" +	c #636828",
".+	c #B1B94B",
"++	c #170303",
"@+	c #120202",
"#+	c #060601",
"$+	c #561818",
"%+	c #601E1B",
"&+	c #030301",
"*+	c #A5B77D",
"=+	c #A4B67E",
"-+	c #A8BA82",
";+	c #263019",
">+	c #808A3D",
",+	c #2F320F",
"'+	c #959C3F",
")+	c #949A3E",
"!+	c #481313",
"~+	c #541818",
"{+	c #5F1E1C",
"]+	c #15190E",
"^+	c #5E694A",
"/+	c #29381B",
"(+	c #9EA74B",
"_+	c #8A9039",
":+	c #575B21",
"<+	c #3C0F0F",
"[+	c #411111",
"}+	c #4D1515",
"|+	c #551818",
"1+	c #451212",
"2+	c #92BF73",
"3+	c #88C16C",
"4+	c #97BD76",
"5+	c #A4B67F",
"6+	c #5B6947",
"7+	c #29381A",
"8+	c #A2AB4C",
"9+	c #ACB449",
"0+	c #959B3E",
"a+	c #A1A844",
"b+	c #A0A744",
"c+	c #3E0F0F",
"d+	c #471313",
"e+	c #5C1B1B",
"f+	c #9BBC79",
"g+	c #87C16C",
"h+	c #63724D",
"i+	c #2C381D",
"j+	c #A3AB4B",
"k+	c #431212",
"l+	c #3F1010",
"m+	c #511717",
"n+	c #80C367",
"o+	c #92BF72",
"p+	c #63934F",
"q+	c #2A311C",
"r+	c #401010",
"s+	c #689853",
"t+	c #2F3421",
"u+	c #899040",
"v+	c #89C16D",
"w+	c #86BD6B",
"x+	c #689A53",
"y+	c #404730",
"z+	c #8D9743",
"A+	c #421111",
"B+	c #A5B97F",
"C+	c #94B973",
"D+	c #373F28",
"E+	c #889540",
"F+	c #60201C",
"G+	c #4B1414",
"H+	c #5C9C4B",
"I+	c #2C3C20",
"J+	c #737A34",
"K+	c #4F1616",
"L+	c #509C44",
"M+	c #213217",
"N+	c #747A36",
"O+	c #AEB44A",
"P+	c #898F39",
"Q+	c #AAB148",
"R+	c #491414",
"S+	c #4B1515",
"T+	c #3F6830",
"U+	c #30240F",
"V+	c #977032",
"W+	c #BEA344",
"X+	c #B9B64B",
"Y+	c #5F1D1B",
"Z+	c #93A16F",
"`+	c #332E17",
" @	c #310802",
".@	c #E43922",
"+@	c #EA5429",
"@@	c #D58C3B",
"#@	c #BBB44A",
"$@	c #949F6E",
"%@	c #522B1B",
"&@	c #320704",
"*@	c #CF1616",
"=@	c #F21C1C",
"-@	c #F03320",
";@	c #DA8237",
">@	c #AF9F41",
",@	c #A3A744",
"'@	c #96A471",
")@	c #5D422B",
"!@	c #1D0704",
"~@	c #D61818",
"{@	c #F1281E",
"]@	c #DF6F30",
"^@	c #BD8135",
"/@	c #C8A343",
"(@	c #6D724D",
"_@	c #2B0704",
":@	c #EE2B1E",
"<@	c #F21F1C",
"[@	c #F0251D",
"}@	c #F02F1F",
"|@	c #EA301E",
"1@	c #7E8D60",
"2@	c #3F1F12",
"3@	c #CB7032",
"4@	c #808F62",
"5@	c #292D1B",
"6@	c #938336",
"7@	c #DD7C36",
"8@	c #829164",
"9@	c #1A1E12",
"0@	c #82863B",
"a@	c #BEAF49",
"b@	c #D88739",
"c@	c #E8592A",
"d@	c #EF3B22",
"e@	c #EE2D1E",
"f@	c #ED4123",
"g@	c #E85A2A",
"h@	c #849465",
"i@	c #8A9349",
"j@	c #B4BA4D",
"k@	c #B8B74B",
"l@	c #C0AE48",
"m@	c #C9A143",
"n@	c #CD9B41",
"o@	c #C7A544",
"p@	c #BFB048",
"q@	c #879768",
"r@	c #7B823A",
"s@	c #B0B84C",
"t@	c #B5BA4C",
"u@	c #B6BA4C",
"v@	c #B5BB4D",
"w@	c #93993D",
"x@	c #0C0D02",
"y@	c #3E452A",
"z@	c #878E43",
"A@	c #9DA442",
"B@	c #85AE68",
"C@	c #3C462A",
"D@	c #868E47",
"E@	c #8C933B",
"F@	c #3D452B",
"G@	c #868E45",
"H@	c #A2A945",
"I@	c #85C26A",
"J@	c #A0BB7C",
"K@	c #8CC06F",
"L@	c #868E44",
"M@	c #3E1010",
"N@	c #7CC464",
"O@	c #3C4629",
"P@	c #81903E",
"Q@	c #7DC365",
"R@	c #89AC6B",
"S@	c #314321",
"T@	c #899543",
"U@	c #91BF72",
"V@	c #84A667",
"W@	c #383F27",
"X@	c #8A9245",
"Y@	c #7BC464",
"Z@	c #7D9360",
"`@	c #2C2817",
" #	c #988A41",
".#	c #B7B149",
"+#	c #561A17",
"@#	c #6FC65D",
"##	c #828A5E",
"$#	c #310D06",
"%#	c #D3532A",
"&#	c #DF7131",
"*#	c #CD9B40",
"=#	c #BAB54A",
"-#	c #858A37",
";#	c #8D895E",
">#	c #390905",
",#	c #E91E1C",
"'#	c #F2211D",
")#	c #EF3A21",
"!#	c #DB7F36",
"~#	c #CAA042",
"{#	c #0B0701",
"]#	c #0C0A02",
"^#	c #929063",
"/#	c #340804",
"(#	c #95A06E",
"_#	c #280D06",
":#	c #D75133",
"<#	c #EF3721",
"[#	c #140000",
"}#	c #221A11",
"|#	c #9C8951",
"1#	c #CA9740",
"2#	c #E26E30",
"3#	c #EE3F23",
"4#	c #DC251A",
"5#	c #88986D",
"6#	c #171A14",
"7#	c #5E6331",
"8#	c #A9AD47",
"9#	c #BCB34A",
"0#	c #96A778",
"a#	c #282C25",
"b#	c #666C32",
"c#	c #A9B148",
"d#	c #501616",
"e#	c #A3B67E",
"f#	c #869567",
"g#	c #232817",
"h#	c #373B18",
"i#	c #A3AA45",
"j#	c #8FA06E",
"k#	c #2A2F1D",
"l#	c #171907",
"m#	c #949A3F",
"n#	c #566040",
"o#	c #1C1F0B",
"p#	c #949B40",
"q#	c #561D18",
"r#	c #5B1B1B",
"s#	c #626D49",
"t#	c #2D3117",
"u#	c #777D33",
"v#	c #AFB64A",
"w#	c #441111",
"x#	c #571A17",
"y#	c #501B18",
"z#	c #78865B",
"A#	c #2A2E15",
"B#	c #26280B",
"C#	c #5D1B1B",
"D#	c #050601",
"E#	c #959C3E",
"F#	c #9CA341",
"G#	c #561D1A",
"H#	c #7F8E60",
"I#	c #30341A",
"J#	c #5A5E24",
"K#	c #0E0D02",
"L#	c #0F1103",
"M#	c #676C29",
"N#	c #A2AB4F",
"O#	c #4C5536",
"P#	c #0A0C05",
"Q#	c #0E0101",
"R#	c #90A06E",
"S#	c #2B3017",
"T#	c #494C1C",
"U#	c #5E1E1B",
"V#	c #501916",
"W#	c #070101",
"X#	c #060101",
"Y#	c #8C933A",
"Z#	c #A2AB4D",
"`#	c #4C5534",
" $	c #A2B47D",
".$	c #90A16E",
"+$	c #31361C",
"@$	c #3B3F17",
"#$	c #8E943C",
"$$	c #161704",
"%$	c #A7AE47",
"&$	c #B3BB52",
"*$	c #9FA84D",
"=$	c #4C5433",
"-$	c #99AB76",
";$	c #545D3A",
">$	c #323619",
",$	c #8E9643",
"'$	c #B2BA4D",
")$	c #8B923A",
"!$	c #9DA546",
"~$	c #9CA54D",
"{$	c #A5B05D",
"]$	c #949F5B",
"^$	c #808C52",
"/$	c #495234",
"($	c #8C9C6B",
"_$	c #495134",
":$	c #60673C",
"<$	c #969E4C",
"[$	c #AAB24C",
"}$	c #ACB44A",
"|$	c #AFB74B",
"1$	c #A1A946",
"2$	c #9EA848",
"3$	c #8F974A",
"4$	c #7B8549",
"5$	c #76804E",
"6$	c #646F47",
"7$	c #343B25",
"8$	c #464F34",
"9$	c #4B5438",
"0$	c #879667",
"a$	c #A5B77F",
"b$	c #8A9A6A",
"c$	c #363D24",
"d$	c #676F3B",
"e$	c #959E44",
"f$	c #AAB24B",
"g$	c #A0A84A",
"h$	c #848C41",
"i$	c #4D5328",
"j$	c #4C522D",
"k$	c #4D5533",
"l$	c #434B30",
"m$	c #444D32",
"n$	c #636F4B",
"o$	c #5B6645",
"p$	c #8D9D6C",
"q$	c #4C5538",
"r$	c #48502C",
"s$	c #7E863B",
"t$	c #A1A847",
"u$	c #AAB24A",
"v$	c #B3BC4F",
"w$	c #B2BB4E",
"x$	c #A9B14C",
"y$	c #9CA54B",
"z$	c #6E7640",
"A$	c #505832",
"B$	c #4A5231",
"C$	c #4A5233",
"D$	c #7C8A5C",
"E$	c #95A672",
"F$	c #9BAC77",
"G$	c #8E9F6D",
"H$	c #65714C",
"I$	c #4E5635",
"J$	c #51582F",
"K$	c #6F773D",
"L$	c #879049",
"M$	c #8C9448",
"N$	c #909846",
"O$	c #A0A84B",
"P$	c #A3AB4A",
"Q$	c #A8B14E",
"R$	c #A8B151",
"S$	c #A8B154",
"T$	c #A7B159",
"U$	c #9FAA5D",
"V$	c #9CA75B",
"W$	c #88924F",
"X$	c #5F673A",
"Y$	c #383E23",
"Z$	c #69754E",
"`$	c #94A571",
" %	c #6A754E",
".%	c #4E5738",
"+%	c #4C5535",
"@%	c #4D5532",
"#%	c #464D2E",
"$%	c #3A4025",
"%%	c #4C5434",
"&%	c #394027",
"*%	c #454D31",
"=%	c #394029",
"-%	c #3D452C",
";%	c #545E3E",
">%	c #829264",
",%	c #869566",
"'%	c #728057",
")%	c #566041",
"!%	c #535D3F",
"~%	c #4A5337",
"{%	c #434C32",
"]%	c #819063",
"^%	c #91A270",
"                                                            . + + + @ # + $ % &               * = = - * ;               ",
"                                                > , , , ' ' % + + @ ) ! # ~ { &                 ; = ] - * ;             ",
"                                  ^ / ( _ : : < [ } } | 1 2 % ~ + 3 4 5 6 + % 7 8 8 9 ' ,         ; 0 = - ;             ",
"                        , 8 a b c d e f g h i j i h k l m n % ~ + o p q + ~ % r s t u v } w x       ; - - * ;           ",
"                  y z 7 A t B C D E F G H I J K L M N O P Q % ~ R p S T + + % U V W X Y Z a `      ...  * * ;           ",
"  ; ;         y +.@.#.$.%.&.*.=.-.;.>.,.'.).).!.~.{.].^.^.^.% + + R T + + + % /.(.,._.:.<.[.}.|.1.2.3.  ; * *           ",
"  ; ;       y : 4.5.6.7.8.9.0.0.a.^.b.b.c.d.e.f.g.h.i.i.i.j.% k.l.~ ~ m.+ + % n.b.o.b.b.p.q.r.s.t.u.v.    w.* ;         ",
"  ;       x.y.z.A.B.C.D.b.b.E.E.b.b.F.G.H.I.J.K.L.M.% % % % % % % % % % % % N.E.O.O.o.b.P.Q.R.S.T.U.V.;   W.* ;         ",
"; ;       x.X.Y.Z.`. +P..+% % ++@+% #+% % % % % % % $+$+$++ + + + + + + ~ %+% % % % % % % % &+% % % % % % % *+;       =+",
"; ;       -+X.Y.;+>+,+'+)+% @ !+5 ~++ + + + + + + + + + + + + + + + + + + + + + + + + + + + + T T + + {++ % % % % % ]+% ",
"            , ^+/+(+_+:+g.% ++) <+[+}++ + + + + + + + + + + + + + + + + + + + + + + + + + + |+[+1+T + + + + + + + + + + ",
"  2+3+4+    5+6+7+8+9+0+a+b+% @ q [+c+d+T + + + + + + + + + + + + + + + + + + + + + + + + e+!+S }++ + + + + + + + + + + ",
"  f+g+4+    , h+i+j+b..+b.b.% % + |+k+p l+m++ + + + + + + + + + + + + + + + + + + + + + + T ) l+m++ + + + + + + + + + + ",
"; ;     n+o+, p+q+j+b.b.b.b.F.% + + |+l+<+[+}++ + + + + + + + + + + + + + + + + + + + + + + m+o r+T + + + + + + + + + + ",
"; *     4+4+, s+t+u+b.b.b.b.b.% + + + T q l+S }+T + + + + + + + + + + + + + + + + + + + + + + R p d++ + + + + + + + + + ",
"; *       v+w+x+y+z+b.b.b.b.b.% % + + + T A+c+l+[+T + + + + + + + + + + + + + + + + + + + + + T l+<+m++ + + + + + + + + ",
"; * ; B+; 4+C+x+D+E+b.b.b.b.b.F.% F++ + + T G+<+<+m++ + + + + + + + + + + + + + + + + + + + + + d+p ) + + + + + + + + + ",
"; *   ;     C+H+I+J+F.b.b.E./.b.% + + + + + + m+m++ + + + + + + + + + + + + + + + + + + + + + + m+4 <+K++ + + + + + + + ",
"; *         , L+M+N+O+b.b.P+Q+b.% ~ + + + + + + + + + + + + + + + + + + + + + + + + + + + + + + + R+S S+e++ + + + + + + ",
"; ;         8 T+U+V+W+X+b.o.o.b.% Y++ + + + + + + + + + + + + + + + + + + + + + + + + + + + + + + + ! e++ + + + + + + + ",
";           Z+`+ @.@+@@@#@o.o.b.% + + + + + + + + + + + + + + + + + + + + + + + + + + + + + + + + + + + + + + + + + + + ",
";           $@%@&@*@=@-@;@>@,@b.% ~ + + + + + + + + + + + + + + + + + + + + + + + + + + + + + + + + + + + + + + + + + + ",
";           '@)@!@~@=@=@{@]@^@/@% % + + + + + + + + + + + + + + + + + + + + + + + + + + + + + + + + + + + + + + + + + + ",
";           +.(@_@:@=@=@=@<@[@}@|@% + + + + + + + + + + + + + + + + + + + + + + + + + + + + + + + + + + + + + + + + + + ",
";           , 1@2@3@}@=@=@=@=@=@=@% + + + + + + + + + + + + + + + + + + + + + + + + + + + + + + + + + + + + + + + + + + ",
"; ;         > 4@5@6@7@{@=@=@=@=@=@% + + + + + + + + + + + + + + + + + + + + + + + + + + + + + + + + + + + + + + + + + + ",
"; ;           8@9@0@a@b@c@d@e@f@g@% + + + + + + + + + + + + + + + + + + + + + + + + + + + + + + + + + + + + + + + + + + ",
"; ;           h@9@i@j@k@l@m@n@o@p@% + + + + + + + + + + + + + + + + + + + + + + + + + + + + + + + + + + + + + + + + + + ",
"; ;           q@k r@s@b.b.t@u@v@w@x@+ + + + + + + + + + + + + + + + + + + + + + + + + + + + + + + + + + + + + + + + + + ",
"; ;           : y@z@s@b.b.b.b.b.A@% %++ + + + + + + + + + + + + + + + + + + + + + + + + + + + + + + + + + + + + + + + + ",
"; ;           B@C@D@a.b.b.b.b.E@% % + + + + + e++ + + + + + + + + + + + + + + + + + + + + + + + + + + + + + + + + + + + ",
";           4+B@F@G@s@b.b.b.H@H@% + + + + + @ S+e++ + + + + + + + + + + + + + + + + + + + + + + + + + + + + + + + + + + ",
";   I@    J@K@: y@L@s@b.b.b.'+F.% + + + + K+1+M@! + + + + + + + + + + + + + + + + + + + + + + + + + + + + + + + + + + + ",
";   K@N@4+J@K@: O@P@s@b.b.o.H@b.% + + + q <+S R + + + + + + + + + + + + + + + + + + + + + + + + + + + + + + + + + + + + ",
";     o+4+Q@v+R@S@T@s@b.b.b.b.D.% + + }+[+<+R++ + + + + + + + + + + + + + + + + + + + + + + + + + + + + + + + + + + + + ",
";       K@N@U@V@W@X@s@b.b.b.b.% % |+R c+[+q + + + + + + + + + + + + + + + + + + + + + + + + + + + + + + + + + + + + + + ",
";         n+Y@Z@`@ #.#u@b.b.E.% +#l+S 1+|++ + + + + + + + + + + + + + + + + + + + + + + + + + + + + + + + + + + + + + + ",
";         @#4+##$#%#&#*#=#v@-#% T ) }+e++ + + + + + + + + + + + + + + + + + + + + + + + + + + + + + + + + + + + + + + + ",
"        4+4+  ;#>#,#'#)#!#~#{#]#+ T + + + + + + + + + + + + + + + + + + + + + + + + + + + + + + + + + + + + + + + + + + ",
"              ^#/#,#=@=@{@d@% + + + + + + + + + + + + + + + + + + + + + + + + + + + + + + + + + + + + + + + + + + + + + ",
"              (#_#:#<#'#=@=@[#+ + + + + + + + + + + + + + + + + + + + + + + + + + + + + + + + + + + + + + + + + + + + + ",
"              & }#|#1#2#3#4#% + + + + + + + + + + + + + + + + + + + + ! e++ + + + + + + + + + + + + + + + + + + + + + + ",
"              5#6#7#8#9#/@% % + + + + + + e+R + + + + + + + + + + e+5 c+S+e++ + + + + + + + + + e++ + + + + + + + + + + ",
"              0#a#b#c#b.v@% + + + + + e+d#[+p R + + + + + + + + }+[+4 M@|++ + + + + + + + + + e+S+q d#+ + + + + + + + + ",
"            e#f#g#h#i#b.9+% + + + + e+1+S <+c+T + + + + + + + R p p ) T + + + + + + + + + + + ! <+p 4 !+e++ + + + + + + ",
"              j#k#l#m#b.% % + + + e+R M@R ! T + + + + + + + m+l+p o + + + + + + + + + + + + + + ! 1+4 S ) @ + + + + + + ",
"              8 n#o#p#b.x@+ + + e+k+M@1+e++ + + + + + + + T [+A+d++ + + + + + + + + + + ~ + + q#+ + d#!+<+d+r#+ + + + + ",
"              ' s#t#u#v#x@+ + 6 d+p d+e++ + + + + + + + + 3 S !+e++ + w#+ x#q#% % % % % % % % #+q#$++ r#d+y#+ + + + + + ",
"              , z#A#B#% x@~ C#5 S d++ + + + + + + + + + @ R+) T + + %+D#% % % % P.E#F.b.b.o.F#% x@% % % % % % G#l.$+l.$+",
"              > H#I#J#N.+ + @ !+) @ + + + + + + + + + + # ~+~+K#% % % L#M#b.i#b.b.b.b.b.b.o.o.b.b.N#O#} , e#% . P#% Q#. ",
"                R#S#T#% % % % @ @ + + + + + + + ~ U#V#+ %+W#X#x@P.b./.b.Y#b.b.b.b.b.b.b.b.o.o.b.b.Z#`#} ,   &   ; * ;  $",
"                .$+$@$#$/.P.#+% % % % + %+%+$$% #+x@% % % % %$b.b.b.b.b.Y#b.b.b.b.b.b.b.b.o.H@].&$*$=$} ,       ; ;     ",
"                -$;$>$,$'$b.b.b.b./.% % % % % )$b.b.b.b.b.E#F.b.b.b.b.b.b.b.b.b.b.b.b.b.s@!$~${$]$^$/$} ,         ;     ",
"      ;         y ($_$:$<$[$p.b.b.b./.b.b.}$E#b.b.b.b.b.b.E#F.b.b.b.b.b.b.b.b.b.b.|$1$2$3$4$5$6$7$8$9$0$>               ",
"      ; ;         a$b$h c$d$e$|$b.b.b.b.b.b.b.b.b.b.b.b.b.b.b.b.b.b.b.b.b.b.a.f$g$h$i$j$k$l$m$n$o$p$z  $                ",
"      ; ;           y b 0$q$r$s$t$u$'.s@s@b.b.b.b.b.b.b.b.^.^.].v$w$a.f$x$y$i@z$A$B$C$D$E$q@|.8 F$y                     ",
"        ; ; ; ;         a$G$H$I$J$K$L$M$N$O$j+P$P$j+j+Q$R$S$T${$U$V$W$z$X$Y$D Z$A `$9 ^                                 ",
"          ; * - *         y ' E$A  %.%+%`#k$@%@%@%k$#%$%k$%%&%*%=%-%q$;%=%>%: ' ,                     ;                 ",
"            ; * 0 -             , ' _ : c ,%} } } } '%)%!%~%{%)%z.]%c b ^%v.                        ; ;                 ",
"              ; * - - ;                   > , , , , , ' ' ' ' ' , >                     ;                               "};
