/* XPM */
static char * sM_xpm[] = {
"60 60 281 2",
"  	c #A6B980",
". 	c #A7B97E",
"+ 	c #A8B97B",
"@ 	c #A7B97D",
"# 	c #A6B97F",
"$ 	c #96A874",
"% 	c #A3B57D",
"& 	c #A2B57D",
"* 	c #93A471",
"= 	c #9BAD77",
"- 	c #99AA76",
"; 	c #9DAF79",
"> 	c #98A975",
", 	c #9FB079",
"' 	c #98AA75",
") 	c #98AB75",
"! 	c #A5B87F",
"~ 	c #A3B67E",
"{ 	c #A8B97A",
"] 	c #A5B880",
"^ 	c #A0B27B",
"/ 	c #93A370",
"( 	c #96A773",
"_ 	c #000000",
": 	c #080A05",
"< 	c #060703",
"[ 	c #010000",
"} 	c #010101",
"| 	c #020101",
"1 	c #040502",
"2 	c #050703",
"3 	c #0A0C05",
"4 	c #8F9E6D",
"5 	c #9CAE78",
"6 	c #95A773",
"7 	c #A7B97C",
"8 	c #080A04",
"9 	c #5F1C1C",
"0 	c #551818",
"a 	c #5C1B1B",
"b 	c #020301",
"c 	c #090B04",
"d 	c #12150B",
"e 	c #090B05",
"f 	c #66724D",
"g 	c #76845A",
"h 	c #A4B57F",
"i 	c #ADBF89",
"j 	c #99AA75",
"k 	c #4B1414",
"l 	c #3F1010",
"m 	c #4F1616",
"n 	c #111307",
"o 	c #9BAB78",
"p 	c #ABBE87",
"q 	c #A7BA82",
"r 	c #3B0F0F",
"s 	c #3C0F0F",
"t 	c #4D1515",
"u 	c #0C0803",
"v 	c #070101",
"w 	c #A5B782",
"x 	c #A8BB82",
"y 	c #411111",
"z 	c #3A0E0E",
"A 	c #461212",
"B 	c #5E1B1B",
"C 	c #541818",
"D 	c #010100",
"E 	c #A7B97F",
"F 	c #2C3220",
"G 	c #521717",
"H 	c #431212",
"I 	c #3B0E0E",
"J 	c #3E0F0F",
"K 	c #571919",
"L 	c #591A1A",
"M 	c #491414",
"N 	c #531717",
"O 	c #0E1108",
"P 	c #A3B67D",
"Q 	c #9BAD76",
"R 	c #4A1414",
"S 	c #481313",
"T 	c #3D0F0F",
"U 	c #511717",
"V 	c #431111",
"W 	c #3F472F",
"X 	c #441212",
"Y 	c #4C1515",
"Z 	c #3E1010",
"` 	c #501616",
" .	c #471313",
"..	c #451212",
"+.	c #4B1515",
"@.	c #5B1B1B",
"#.	c #421111",
"$.	c #491313",
"%.	c #461313",
"&.	c #070501",
"*.	c #230606",
"=.	c #030000",
"-.	c #090101",
";.	c #979D3F",
">.	c #B4BC4D",
",.	c #B3BB4D",
"'.	c #B1B94C",
").	c #ADB54A",
"!.	c #AAB249",
"~.	c #99A040",
"{.	c #9AA140",
"].	c #AFB74B",
"^.	c #959C3E",
"/.	c #AFB64A",
"(.	c #0B0C02",
"_.	c #0C0D02",
":.	c #090A02",
"<.	c #060601",
"[.	c #AEB54A",
"}.	c #ACB449",
"|.	c #ABB349",
"1.	c #090B02",
"2.	c #B1B94B",
"3.	c #A2A944",
"4.	c #A1AB54",
"5.	c #495236",
"6.	c #090C05",
"7.	c #2A2E15",
"8.	c #26280B",
"9.	c #9AA141",
"0.	c #B4BC4E",
"a.	c #A1AB51",
"b.	c #4C5437",
"c.	c #839264",
"d.	c #050603",
"e.	c #A1B37C",
"f.	c #7F8E60",
"g.	c #30341A",
"h.	c #5A5E24",
"i.	c #A5AC46",
"j.	c #A2AB4F",
"k.	c #4C5536",
"l.	c #9FB179",
"m.	c #A4B67E",
"n.	c #90A06E",
"o.	c #2B3017",
"p.	c #494C1C",
"q.	c #91983D",
"r.	c #B0B84B",
"s.	c #AEB64A",
"t.	c #8C933A",
"u.	c #A2AB4D",
"v.	c #4C5534",
"w.	c #9DB078",
"x.	c #90A16E",
"y.	c #31361C",
"z.	c #3B3F17",
"A.	c #8E943C",
"B.	c #9CA342",
"C.	c #A2A945",
"D.	c #B4BC4F",
"E.	c #B3BB52",
"F.	c #9FA84D",
"G.	c #4C5433",
"H.	c #99AB76",
"I.	c #545D3A",
"J.	c #323619",
"K.	c #8E9643",
"L.	c #B2BA4D",
"M.	c #B0B84C",
"N.	c #9DA546",
"O.	c #9CA54D",
"P.	c #A5B05D",
"Q.	c #949F5B",
"R.	c #808C52",
"S.	c #495234",
"T.	c #8C9C6B",
"U.	c #495134",
"V.	c #60673C",
"W.	c #969E4C",
"X.	c #AAB24C",
"Y.	c #A1A946",
"Z.	c #9EA848",
"`.	c #8F974A",
" +	c #7B8549",
".+	c #76804E",
"++	c #646F47",
"@+	c #343B25",
"#+	c #464F34",
"$+	c #4B5438",
"%+	c #879667",
"&+	c #A5B77F",
"*+	c #8A9A6A",
"=+	c #4B5437",
"-+	c #363D24",
";+	c #676F3B",
">+	c #959E44",
",+	c #B0B84D",
"'+	c #AAB24B",
")+	c #A0A84A",
"!+	c #848C41",
"~+	c #4D5328",
"{+	c #4C522D",
"]+	c #4D5533",
"^+	c #434B30",
"/+	c #444D32",
"(+	c #636F4B",
"_+	c #5B6645",
":+	c #8D9D6C",
"<+	c #A2B47D",
"[+	c #4C5538",
"}+	c #48502C",
"|+	c #7E863B",
"1+	c #A1A847",
"2+	c #AAB24A",
"3+	c #AFB84D",
"4+	c #B3BC4F",
"5+	c #B2BB4E",
"6+	c #A9B14C",
"7+	c #9CA54B",
"8+	c #8A9349",
"9+	c #6E7640",
"0+	c #505832",
"a+	c #4A5231",
"b+	c #4A5233",
"c+	c #7C8A5C",
"d+	c #95A672",
"e+	c #879768",
"f+	c #889868",
"g+	c #9BAC77",
"h+	c #8E9F6D",
"i+	c #65714C",
"j+	c #4E5635",
"k+	c #51582F",
"l+	c #6F773D",
"m+	c #879049",
"n+	c #8C9448",
"o+	c #909846",
"p+	c #A0A84B",
"q+	c #A3AB4B",
"r+	c #A3AB4A",
"s+	c #A8B14E",
"t+	c #A8B151",
"u+	c #A8B154",
"v+	c #A7B159",
"w+	c #9FAA5D",
"x+	c #9CA75B",
"y+	c #88924F",
"z+	c #5F673A",
"A+	c #383E23",
"B+	c #4D5535",
"C+	c #69754E",
"D+	c #829163",
"E+	c #94A571",
"F+	c #A2B47C",
"G+	c #6A754E",
"H+	c #4E5738",
"I+	c #4C5535",
"J+	c #4D5532",
"K+	c #464D2E",
"L+	c #3A4025",
"M+	c #4C5434",
"N+	c #394027",
"O+	c #454D31",
"P+	c #394029",
"Q+	c #3D452C",
"R+	c #545E3E",
"S+	c #829264",
"T+	c #97A874",
"U+	c #97A974",
"V+	c #94A572",
"W+	c #869566",
"X+	c #728057",
"Y+	c #566041",
"Z+	c #535D3F",
"`+	c #4A5337",
" @	c #434C32",
".@	c #707E56",
"+@	c #819063",
"@@	c #91A270",
"#@	c #A4B77E",
"                                                                                              . + + @ . #               ",
"                                      $   $ $   % & * & = - ; ; = > , ' ) ! ~                   # + { @ . #             ",
"                            ] ] ^ / ( _ _ : _ _ _ _ < [ [ } | 1 1 _ 2 3 _ _ _ 4 5 5 6 ; &         # 7 + @ #             ",
"                        & _ _ _ _ _ _ 8 9 9 9 9 9 9 9 9 9 9 0 a 9 9 9 9 9 9 1 b c d e f g h i       # @ @ . #           ",
"                  j _ _ _ _ 9 9 9 9 9 9 9 9 9 9 9 9 9 9 9 k l m a 9 9 9 9 9 9 9 9 9 n _ _ _ o     p q   . . #           ",
"  # #         ! _ _ b 9 9 9 9 9 9 9 9 9 9 9 9 9 9 9 9 9 m r s t 9 9 9 9 9 9 9 9 9 9 9 9 9 u v _ 8 w x   # . .           ",
"  # #       _ _ _ 9 9 9 9 9 9 9 9 9 9 9 9 9 9 9 9 9 9 a y z A 9 9 9 9 9 9 9 9 9 9 9 9 9 B C C B D _ _ _ & E . #         ",
"  #     = F _ 9 G 9 9 9 9 9 9 9 9 9 9 9 9 9 9 9 9 9 9 H I J K 9 9 9 9 9 9 9 9 9 9 9 9 9 L M M N 9 9 9 d _ _ _ O =       ",
"P Q _ _ _ _ 9 G l R 9 9 9 9 9 9 9 9 9 9 9 9 9 9 9 9 S I T U 9 9 9 9 9 9 9 9 9 9 9 9 9 9 9 L N V U 9 9 9 9 9 9 _ _ _ _ W ",
"d _ d 9 9 9 9 a X T G 9 9 9 9 9 9 9 9 9 9 9 9 9 9 0 T I Y 9 9 9 9 9 9 9 9 9 9 9 9 9 9 9 9 9 U T l N 9 9 9 9 9 9 9 9 9 9 ",
"9 9 9 9 9 9 9 a M I S 9 9 9 9 9 9 9 9 9 9 9 9 9 9 m I J K 9 9 9 9 9 9 9 9 9 9 9 9 9 9 9 9 9 9 M s y L 9 9 9 9 9 9 9 9 9 ",
"9 9 9 9 9 9 9 9 M z s M 9 9 9 9 9 9 9 9 9 9 9 9 a S z Z K 9 9 9 9 9 9 9 9 9 9 9 9 9 9 9 9 9 9 G I I ` 9 9 9 9 9 9 9 9 9 ",
"9 9 9 9 9 9 9 9 9  .l J R 9 9 9 9 9 9 9 9 9 9 9 9 0 l V K 9 9 9 9 9 9 9 9 9 9 9 9 9 9 9 9 9 9 K y T K 9 9 9 9 9 9 9 9 9 ",
"9 9 9 9 9 9 9 9 9 9 0 ..Z G 9 9 9 9 9 9 9 9 9 9 9 9 K K 9 9 9 9 9 9 9 9 9 9 9 9 9 9 9 9 9 9 9 9 R z t 9 9 9 9 9 9 9 9 9 ",
"9 9 9 9 9 9 9 9 9 9 9 L +.a 9 9 9 9 9 9 9 9 9 9 9 9 9 9 9 9 9 9 9 9 9 9 9 9 9 9 9 9 9 9 9 9 9 9 G r R a 9 9 9 9 9 9 9 9 ",
"9 9 9 9 9 9 9 9 9 9 9 9 a 9 9 9 9 9 9 9 9 9 9 9 9 9 9 9 9 9 9 9 9 9 9 9 9 9 9 9 9 9 9 9 9 9 9 9 G T R a 9 9 9 9 9 9 9 9 ",
"9 9 9 9 9 9 9 9 9 9 9 9 9 9 9 9 9 9 9 9 9 9 9 9 9 9 9 9 9 9 9 9 9 9 9 9 9 9 9 9 9 9 9 9 9 9 9 9 9 G a 9 9 9 9 9 9 9 9 9 ",
"9 9 9 9 9 9 9 9 9 9 9 9 9 9 9 9 9 9 9 9 9 9 9 9 9 9 9 9 9 9 9 9 9 9 9 9 9 9 9 9 9 9 9 9 9 9 9 9 9 9 9 9 9 9 9 9 9 9 9 9 ",
"9 9 9 9 9 9 9 9 9 9 9 9 9 9 9 9 9 9 9 9 9 9 9 9 9 9 9 9 9 9 9 9 9 9 9 9 9 9 9 9 9 9 9 9 9 9 9 9 9 9 9 9 9 9 9 9 9 9 9 9 ",
"9 9 9 9 9 9 9 9 9 9 9 9 9 9 9 9 9 9 9 9 9 9 9 9 9 9 9 9 9 9 9 9 9 9 9 9 9 9 9 9 9 9 9 9 9 9 9 9 9 9 9 9 9 9 9 9 9 9 9 9 ",
"9 9 9 9 9 9 9 9 9 9 9 9 9 9 9 9 9 9 9 9 9 9 9 9 9 9 9 9 9 9 9 9 9 9 9 9 9 9 9 9 9 9 9 9 9 9 9 9 9 9 9 9 9 9 9 9 9 9 9 9 ",
"9 9 9 9 9 9 9 9 9 9 9 9 9 9 9 9 9 9 9 9 9 9 9 9 9 9 9 9 9 9 9 9 9 9 9 9 9 9 9 9 9 9 9 9 9 9 9 9 9 9 9 9 9 9 9 9 9 9 9 9 ",
"9 9 9 9 9 9 9 9 9 9 9 9 9 9 9 9 9 9 9 9 9 9 9 9 9 9 9 9 9 9 9 9 9 9 9 9 9 9 9 9 9 9 9 9 9 9 9 9 9 9 9 9 9 9 9 9 9 9 9 9 ",
"9 9 9 9 9 9 9 9 9 9 9 9 9 9 9 9 9 9 9 9 9 9 9 9 9 9 9 9 9 9 9 9 9 9 9 9 9 9 9 9 9 9 9 9 9 9 9 9 9 9 9 9 9 9 9 9 9 9 9 9 ",
"9 9 9 9 9 9 9 9 9 9 9 9 9 9 9 9 9 9 9 9 9 9 9 9 9 9 9 9 9 9 9 9 9 9 9 9 9 9 9 9 9 9 9 9 9 9 9 9 9 9 9 9 9 9 9 9 9 9 9 9 ",
"9 9 9 9 9 9 9 9 9 9 9 9 9 9 9 9 9 9 9 9 9 9 9 9 9 9 9 9 9 9 9 9 9 9 9 9 9 9 9 9 9 9 9 9 9 9 9 9 9 9 9 9 9 9 9 9 9 9 9 9 ",
"9 9 9 9 9 9 9 9 9 9 9 9 9 9 9 9 9 9 9 9 9 9 9 9 9 9 9 9 9 9 9 9 9 9 9 9 9 9 9 9 9 9 9 9 9 9 9 9 9 9 9 9 9 9 9 9 9 9 9 9 ",
"9 9 9 9 9 9 9 9 9 9 9 9 9 9 9 9 9 9 9 9 9 9 9 9 9 9 9 9 9 9 9 9 9 9 9 9 9 9 9 9 9 9 9 9 9 9 9 9 9 9 9 9 9 9 9 9 9 9 9 9 ",
"9 9 9 9 9 9 9 9 9 9 9 9 9 9 9 9 9 9 9 9 9 9 9 9 9 9 9 9 9 9 9 9 9 9 9 9 9 9 9 9 9 9 9 9 9 9 9 9 9 9 9 9 9 9 9 9 9 9 9 9 ",
"9 9 9 9 9 9 9 9 9 9 9 9 9 9 9 9 9 9 9 9 9 9 9 9 9 9 9 9 9 9 9 9 9 9 9 9 9 9 9 9 9 9 9 9 9 9 9 9 9 9 9 9 9 9 9 9 9 9 9 9 ",
"9 9 9 9 9 9 9 9 9 9 9 9 9 9 9 9 9 9 9 9 9 9 9 9 9 9 9 9 9 9 9 9 9 9 9 9 9 9 9 9 9 9 9 9 9 9 9 9 9 9 9 9 9 9 9 9 9 9 9 9 ",
"9 9 9 9 9 9 9 9 9 9 9 9 9 9 9 9 9 9 9 9 9 9 9 9 9 9 9 9 9 9 9 9 9 9 9 9 9 9 9 9 9 9 9 9 9 9 9 9 9 9 9 9 9 9 9 9 9 9 9 9 ",
"9 9 9 9 9 9 9 9 9 9 9 9 9 9 9 9 9 9 9 9 9 9 9 9 9 9 9 9 9 9 9 9 9 9 9 9 9 9 9 9 9 9 9 9 9 9 9 9 9 9 9 9 9 9 9 9 9 9 9 9 ",
"9 9 9 9 9 9 9 9 9 9 9 9 9 9 9 9 9 9 9 9 9 9 9 9 9 9 9 9 9 9 9 9 9 9 9 9 9 9 9 9 9 9 9 9 9 9 9 9 9 9 9 9 9 9 9 9 9 9 9 9 ",
"9 9 9 9 9 9 9 9 9 9 9 9 9 9 9 9 9 9 9 9 G 0 9 9 9 9 9 9 9 9 9 9 9 9 9 9 9 9 9 9 9 9 9 9 9 9 9 9 9 9 9 9 9 9 9 9 9 9 9 9 ",
"9 9 9 9 9 9 9 9 9 9 9 9 9 9 9 9 9 9 9 G J l M K a 9 9 9 9 9 9 9 9 9 9 9 9 9 9 9 9 9 9 9 9 9 9 9 9 9 9 9 9 9 9 9 9 9 9 9 ",
"9 9 9 9 9 9 9 9 9 9 9 9 9 9 9 9 9 9 9 9 t l z l S ` a a 9 9 9 9 9 9 9 9 9 9 9 9 9 9 9 9 L L 9 9 9 9 9 9 9 9 9 9 9 9 9 9 ",
"9 9 9 9 9 9 9 9 9 9 @.@.9 9 9 9 9 9 9 9 9 K R y s T X R ` K 9 a 9 9 9 9 9 9 9 9 9 9 9 L M #.L 9 9 9 9 9 9 9 9 9 9 9 9 9 ",
"9 9 9 9 9 9 9 9 9 @.m m @.9 9 9 9 9 9 9 9 9 9 K ` ..T s s l M +.` U 9 9 9 9 9 9 9 9 9 B $.z  .a 9 9 9 9 9 9 9 9 9 9 9 9 ",
"9 9 9 9 9 9 9 9 a ` m m @.9 9 9 9 9 9 9 9 9 9 9 9 a G Y J r z r s s  .K K a 9 9 9 9 9 9 B  .l H a 9 9 9 9 9 9 9 9 9 9 9 ",
"9 9 9 9 9 9 9 a y J ` @.9 9 9 9 9 9 9 9 9 9 9 9 9 9 9 9 0 U m ` X r z l l %.a 9 9 9 9 9 9 9 %.z m 9 9 9 9 9 9 9 9 9 9 9 ",
"9 9 9 9 9 9 9 #.z J K 9 9 9 9 9 9 9 9 9 9 9 9 9 9 9 9 9 9 9 9 9 a U R l z I %.K 9 9 9 9 9 a +.r ` 9 9 9 9 9 9 9 9 9 9 9 ",
"9 9 9 9 9 9 A I T U 9 9 9 9 9 9 9 9 9 9 9 9 9 9 9 9 9 9 9 9 9 9 9 9 9 0 #.I z l K 9 9 9 9 9 ` s #.a 9 9 9 9 9 9 9 9 9 9 ",
"9 9 9 9 9 Y I T m 9 9 9 9 9 9 9 9 9 9 9 9 9 9 9 9 9 9 9 9 9 9 9 9 9 9 9 a R s l 0 9 9 9 9 9 K T I t 9 9 9 9 9 9 9 9 9 9 ",
"9 9 9 9 K Z z y a 9 9 9 9 9 9 9 9 9 9 9 _ _ _ _ _ _ _ _ &._ _ &._ _ _ _ _ _ *.0 9 9 9 9 9 9 K #.J 0 9 9 9 9 9 9 9 9 9 9 ",
"9 9 9 K Y y Z 0 9 9 9 9 9 9 9 9 9 =._ _ -.;.>.>.>.,.'.).!.~.{.).].>.>.).^./._ _ _ _ (._._.:.9 K 0 9 9 9 9 9 9 9 9 9 9 9 ",
"9 9 K y s y U 9 9 9 9 <._._ _ _ _ _ [.>.>.>.>.>.>.>.>.>.>.^.).>.>.>.>.).^.>.>.>.>.^.}.|._ _ _ _._.1.D _ 9 9 9 9 9 9 9 9 ",
"9 9 K V y U 9 9 _ _ _ _ ].>.>.>.2.>.>.>.>.>.>.>.>.>.>.>.>.^.).>.>.>.>.).^.>.>.>.>.^.).>.>.3.3.>.>.4.5._ 6._ _ 9 9 9 9 9 ",
"9 9 9 K K _ _ _ b 7.8.9.>.>.>.>.>.>.>.>.>.>.>.>.>.>.>.>.>.^.).>.>.>.>.).^.>.>.>.>.^.).>.>.3.3.>.0.a.b.c.^ ; d._ _ _ 9 9 ",
"_ _ _ _ _ _ e.% f.g.h.i.>.>.>.>.>.>.>.>.>.>.>.>.>.>.>.>.>.^.).>.>.>.>.).^.>.>.>.>.>.>.>.>.3.3.>.>.j.k.c.&       l._ _ _ ",
"m.      &       n.o.p.q.r.>.>.>.>.>.>.>.>.>.s.,.>.>.>.>.>.^.).>.>.>.>.>.t.>.>.>.>.>.>.>.>.3.3.>.>.u.v.c.&       # . w.  ",
"                x.y.z.A.r.>.>.>.>.>.>.>.>.>.B.s.>.>.>.>.>.^.).>.>.>.>.>.t.>.>.>.>.>.>.>.>.3.C.D.E.F.G.c.&       # #     ",
"                H.I.J.K.L.>.>.>.>.>.>.>.>.).^.>.>.>.>.>.>.^.).>.>.>.>.>.>.>.>.>.>.>.>.>.M.N.O.P.Q.R.S.c.&         #     ",
"      #         ! T.U.V.W.X.,.>.>.>.>.>.>.).^.>.>.>.>.>.>.^.).>.>.>.>.>.>.>.>.>.>.].Y.Z.`. +.+++@+#+$+%+%               ",
"      # #         &+*+=+-+;+>+].>.>.>.>.>.>.>.>.>.>.>.>.>.>.>.>.>.>.>.>.>.>.,+'+)+!+~+{+]+^+/+(+_+:+> <+                ",
"      # #           ! ' %+[+}+|+1+2+3+M.M.>.>.>.>.>.>.>.>.0.0.D.4+5+,+'+6+7+8+9+0+a+b+c+d+e+f+5 g+!                     ",
"        # # # #         &+h+i+j+k+l+m+n+o+p+q+r+r+q+q+s+t+u+v+P.w+x+y+9+z+A+B+C+D+E+6 F+                                ",
"          # . @ .         ! ; d+D+G+H+I+v.]+J+J+J+]+K+L+]+M+N+O+P+Q+[+R+P+S+T+; &                     #                 ",
"            # . 7 @             & ; U+T+V+W+c.c.c.c.X+Y+Z+`+ @Y+.@+@V+' @@#@                        # #                 ",
"              # . @ @ #                   % & & & & & ; ; ; ; ; & %                     #                               "};
