/* XPM */
static char * sR_xpm[] = {
"60 60 542 2",
"  	c #A6B980",
". 	c #96A874",
"+ 	c #000000",
"@ 	c #5F221E",
"# 	c #5F1C1C",
"$ 	c #5E1B1B",
"% 	c #591A1A",
"& 	c #0A0C06",
"* 	c #A7B97E",
"= 	c #A8B97B",
"- 	c #A7B97D",
"; 	c #A6B97F",
"> 	c #5F1B1B",
", 	c #521717",
"' 	c #441212",
") 	c #9DAF79",
"! 	c #A2B47C",
"~ 	c #9DB079",
"{ 	c #A5B87F",
"] 	c #A3B67E",
"^ 	c #A8B97A",
"/ 	c #96A773",
"( 	c #9CAD78",
"_ 	c #97A974",
": 	c #5B1A1A",
"< 	c #461313",
"[ 	c #3B0E0E",
"} 	c #4E1616",
"| 	c #697550",
"1 	c #6C7952",
"2 	c #7C8B5F",
"3 	c #6E7B54",
"4 	c #8A9A6A",
"5 	c #889868",
"6 	c #92A270",
"7 	c #9CAE78",
"8 	c #95A773",
"9 	c #A2B57D",
"0 	c #A7B97C",
"a 	c #91A16F",
"b 	c #98AA75",
"c 	c #94A572",
"d 	c #7B8A5E",
"e 	c #4A5437",
"f 	c #616C47",
"g 	c #4E5739",
"h 	c #4C1515",
"i 	c #3A0E0E",
"j 	c #431111",
"k 	c #313721",
"l 	c #2D321F",
"m 	c #3B432A",
"n 	c #343B25",
"o 	c #41492E",
"p 	c #545E3B",
"q 	c #525B39",
"r 	c #2C311C",
"s 	c #353B22",
"t 	c #333922",
"u 	c #667149",
"v 	c #646F4A",
"w 	c #495236",
"x 	c #66724D",
"y 	c #839264",
"z 	c #A4B57F",
"A 	c #ADBF89",
"B 	c #98A975",
"C 	c #829163",
"D 	c #373E27",
"E 	c #555E3D",
"F 	c #4D5535",
"G 	c #4B5230",
"H 	c #49502B",
"I 	c #6B733D",
"J 	c #86904D",
"K 	c #571919",
"L 	c #3D0F0F",
"M 	c #4A1414",
"N 	c #90994C",
"O 	c #8F984E",
"P 	c #8B944E",
"Q 	c #909A51",
"R 	c #9BA554",
"S 	c #A0A953",
"T 	c #A0AA51",
"U 	c #99A14B",
"V 	c #98A049",
"W 	c #959D48",
"X 	c #767D3C",
"Y 	c #69703B",
"Z 	c #4B522E",
"` 	c #636C41",
" .	c #555E3B",
"..	c #A6B881",
"+.	c #ABBE87",
"@.	c #A7BA82",
"#.	c #9FB17B",
"$.	c #83A165",
"%.	c #4B5D38",
"&.	c #434B2F",
"*.	c #4F5630",
"=.	c #6B723A",
"-.	c #666D34",
";.	c #707738",
">.	c #8D944A",
",.	c #A1A952",
"'.	c #A2AA4D",
").	c #A9B14A",
"!.	c #AFB84D",
"~.	c #B4BC4E",
"{.	c #B4BC4F",
"].	c #ADB54C",
"^.	c #ADB54B",
"/.	c #ADB54A",
"(.	c #AAB148",
"_.	c #B0B84B",
":.	c #ABB24A",
"<.	c #A1A949",
"[.	c #A8B04D",
"}.	c #979F4C",
"|.	c #5E653A",
"1.	c #808D5D",
"2.	c #93A471",
"3.	c #ABBD87",
"4.	c #A8BB82",
"5.	c #97A874",
"6.	c #5D6846",
"7.	c #495E36",
"8.	c #849D56",
"9.	c #8E974B",
"0.	c #A0A849",
"a.	c #A9B149",
"b.	c #AAB249",
"c.	c #B0B84D",
"d.	c #B4BC4D",
"e.	c #6B702B",
"f.	c #5D1B1A",
"g.	c #561717",
"h.	c #4B1513",
"i.	c #353711",
"j.	c #323510",
"k.	c #373912",
"l.	c #3A3D14",
"m.	c #454819",
"n.	c #444718",
"o.	c #797F31",
"p.	c #A2A944",
"q.	c #B3BB4D",
"r.	c #979F45",
"s.	c #444A26",
"t.	c #1F2314",
"u.	c #404931",
"v.	c #8B9B6D",
"w.	c #A4B77E",
"x.	c #A7B97F",
"y.	c #A9BC84",
"z.	c #A1B37D",
"A.	c #707E56",
"B.	c #1D2414",
"C.	c #3D4C24",
"D.	c #97A04B",
"E.	c #B1B94D",
"F.	c #A5AD46",
"G.	c #A4AC46",
"H.	c #74792F",
"I.	c #595D22",
"J.	c #010100",
"K.	c #121303",
"L.	c #A0A644",
"M.	c #959C3F",
"N.	c #A9B148",
"O.	c #9CA342",
"P.	c #B3BB4C",
"Q.	c #969D42",
"R.	c #363A1C",
"S.	c #16190D",
"T.	c #444C32",
"U.	c #6E7A53",
"V.	c #9CAE77",
"W.	c #A4B67D",
"X.	c #141604",
"Y.	c #5F1C1B",
"Z.	c #561818",
"`.	c #060601",
" +	c #120202",
".+	c #170303",
"++	c #7D8547",
"@+	c #8E9856",
"#+	c #4F5736",
"$+	c #8A9967",
"%+	c #A3B67D",
"&+	c #15190D",
"*+	c #541818",
"=+	c #481313",
"-+	c #ACB44B",
";+	c #939A40",
">+	c #4F552B",
",+	c #93A36C",
"'+	c #A6B87F",
")+	c #451212",
"!+	c #411111",
"~+	c #551818",
"{+	c #4D1515",
"]+	c #3C0F0F",
"^+	c #A1A845",
"/+	c #505529",
"(+	c #879663",
"_+	c #A3B57D",
":+	c #5C1B1B",
"<+	c #471313",
"[+	c #3E0F0F",
"}+	c #A4AB48",
"|+	c #505730",
"1+	c #768359",
"2+	c #A1B37C",
"3+	c #511717",
"4+	c #3F1010",
"5+	c #431212",
"6+	c #A7B056",
"7+	c #5F6943",
"8+	c #383F29",
"9+	c #91A26F",
"0+	c #401010",
"a+	c #A8B152",
"b+	c #687348",
"c+	c #576141",
"d+	c #99AA75",
"e+	c #AAB24B",
"f+	c #737C42",
"g+	c #636E46",
"h+	c #421111",
"i+	c #B2BB4F",
"j+	c #959D45",
"k+	c #393E20",
"l+	c #95A670",
"m+	c #4B1414",
"n+	c #60201C",
"o+	c #ABB349",
"p+	c #B0B84F",
"q+	c #909742",
"r+	c #4D532D",
"s+	c #98A872",
"t+	c #4F1616",
"u+	c #AFB84E",
"v+	c #80873E",
"w+	c #434929",
"x+	c #97A873",
"y+	c #4B1515",
"z+	c #491414",
"A+	c #B3BC4E",
"B+	c #6D702D",
"C+	c #150D04",
"D+	c #98A36E",
"E+	c #601E1B",
"F+	c #B5BB4D",
"G+	c #6A5B24",
"H+	c #200703",
"I+	c #644E33",
"J+	c #ABB47D",
"K+	c #BBB34A",
"L+	c #7B411C",
"M+	c #300101",
"N+	c #481A10",
"O+	c #B3A874",
"P+	c #A7B87F",
"Q+	c #B6B94C",
"R+	c #BCB34A",
"S+	c #D48F3C",
"T+	c #801D0E",
"U+	c #511A10",
"V+	c #B1A975",
"W+	c #A5A744",
"X+	c #AEA041",
"Y+	c #D0963F",
"Z+	c #E26F31",
"`+	c #EE3D22",
" @	c #980D0D",
".@	c #270101",
"+@	c #4A1F13",
"@@	c #AAAF79",
"#@	c #CA933D",
"$@	c #CA8337",
"%@	c #DD662D",
"&@	c #F0311F",
"*@	c #F21F1C",
"=@	c #F21C1C",
"-@	c #C21414",
";@	c #220101",
">@	c #573925",
",@	c #A5B37C",
"'@	c #F12A1E",
")@	c #F1231C",
"!@	c #C72016",
"~@	c #2C0703",
"{@	c #47432B",
"]@	c #F03420",
"^@	c #C56C2E",
"/@	c #32220F",
"(@	c #525B3C",
"_@	c #F2201C",
":@	c #F1251D",
"<@	c #EE3F23",
"[@	c #E17131",
"}@	c #CC9D41",
"|@	c #A39F48",
"1@	c #2F341D",
"2@	c #D17A34",
"3@	c #C58939",
"4@	c #C4A845",
"5@	c #BAB64B",
"6@	c #9BA44F",
"7@	c #3E452B",
"8@	c #080801",
"9@	c #898635",
"0@	c #A4A844",
"a@	c #A3AB4B",
"b@	c #4D5533",
"c@	c #9DA442",
"d@	c #959C3E",
"e@	c #A3AB49",
"f@	c #4D5531",
"g@	c #A3AB4A",
"h@	c #3E1010",
"i@	c #A4AB47",
"j@	c #4E5530",
"k@	c #A4AB46",
"l@	c #4F552A",
"m@	c #849362",
"n@	c #93993D",
"o@	c #9EA444",
"p@	c #434524",
"q@	c #849363",
"r@	c #B8B74C",
"s@	c #9F8D3C",
"t@	c #382411",
"u@	c #7B8157",
"v@	c #561A17",
"w@	c #BAB54B",
"x@	c #D0953E",
"y@	c #B14820",
"z@	c #310703",
"A@	c #685538",
"B@	c #A4B37C",
"C@	c #9FA342",
"D@	c #C0AE48",
"E@	c #D98438",
"F@	c #EE3E22",
"G@	c #B91714",
"H@	c #240101",
"I@	c #4D2718",
"J@	c #A2AC77",
"K@	c #0C0B02",
"L@	c #0D0601",
"M@	c #E5642D",
"N@	c #F1281E",
"O@	c #C81515",
"P@	c #2A0101",
"Q@	c #482215",
"R@	c #949F6D",
"S@	c #C71C16",
"T@	c #250101",
"U@	c #463321",
"V@	c #98A773",
"W@	c #140000",
"X@	c #F2211D",
"Y@	c #ED4424",
"Z@	c #C16731",
"`@	c #280D06",
" #	c #555A3C",
".#	c #8D9D6C",
"+#	c #DB251A",
"@#	c #E4672E",
"##	c #CAA042",
"$#	c #AAA546",
"%#	c #393A22",
"&#	c #596443",
"*#	c #748259",
"=#	c #BFAF48",
"-#	c #B5BA4C",
";#	c #989F43",
">#	c #4E5635",
",#	c #64714C",
"'#	c #501616",
")#	c #A9B24D",
"!#	c #454C2F",
"~#	c #606B49",
"{#	c #ACB449",
"]#	c #A9B14E",
"^#	c #3D442A",
"/#	c #A6B057",
"(#	c #4B5436",
"_#	c #68744F",
":#	c #5B1B1B",
"<#	c #561D18",
"[#	c #0C0D02",
"}#	c #A0AB57",
"|#	c #40482F",
"1#	c #6B7852",
"2#	c #501B18",
"3#	c #571A17",
"4#	c #441111",
"5#	c #A1AB54",
"6#	c #4B5437",
"7#	c #561D1A",
"8#	c #080901",
"9#	c #B2BA4C",
"0#	c #5D1B1B",
"a#	c #A1AB51",
"b#	c #4C5437",
"c#	c #0E0101",
"d#	c #7F8E60",
"e#	c #30341A",
"f#	c #5A5E24",
"g#	c #A5AC46",
"h#	c #A3AA45",
"i#	c #7D8333",
"j#	c #101203",
"k#	c #0E0D02",
"l#	c #A2AB4F",
"m#	c #4C5536",
"n#	c #A2B47D",
"o#	c #90A06E",
"p#	c #2B3017",
"q#	c #494C1C",
"r#	c #91983D",
"s#	c #AEB64A",
"t#	c #060101",
"u#	c #070101",
"v#	c #501916",
"w#	c #5E1E1B",
"x#	c #A2AB4D",
"y#	c #4C5534",
"z#	c #90A16E",
"A#	c #31361C",
"B#	c #3B3F17",
"C#	c #8E943C",
"D#	c #90963B",
"E#	c #1B1C06",
"F#	c #050501",
"G#	c #A0A744",
"H#	c #B3BB52",
"I#	c #9FA84D",
"J#	c #4C5433",
"K#	c #99AB76",
"L#	c #545D3A",
"M#	c #323619",
"N#	c #8E9643",
"O#	c #B2BA4D",
"P#	c #8B923A",
"Q#	c #B0B84C",
"R#	c #9DA546",
"S#	c #9CA54D",
"T#	c #A5B05D",
"U#	c #949F5B",
"V#	c #808C52",
"W#	c #495234",
"X#	c #8C9C6B",
"Y#	c #495134",
"Z#	c #60673C",
"`#	c #969E4C",
" $	c #AAB24C",
".$	c #ACB349",
"+$	c #A1A946",
"@$	c #9EA848",
"#$	c #8F974A",
"$$	c #7B8549",
"%$	c #76804E",
"&$	c #646F47",
"*$	c #464F34",
"=$	c #4B5438",
"-$	c #879667",
";$	c #A5B77F",
">$	c #363D24",
",$	c #676F3B",
"'$	c #959E44",
")$	c #AFB74B",
"!$	c #A0A84A",
"~$	c #848C41",
"{$	c #4D5328",
"]$	c #4C522D",
"^$	c #434B30",
"/$	c #444D32",
"($	c #636F4B",
"_$	c #5B6645",
":$	c #4C5538",
"<$	c #48502C",
"[$	c #7E863B",
"}$	c #A1A847",
"|$	c #AAB24A",
"1$	c #B3BC4F",
"2$	c #B2BB4E",
"3$	c #A9B14C",
"4$	c #9CA54B",
"5$	c #8A9349",
"6$	c #6E7640",
"7$	c #505832",
"8$	c #4A5231",
"9$	c #4A5233",
"0$	c #7C8A5C",
"a$	c #95A672",
"b$	c #879768",
"c$	c #9BAC77",
"d$	c #8E9F6D",
"e$	c #65714C",
"f$	c #51582F",
"g$	c #6F773D",
"h$	c #879049",
"i$	c #8C9448",
"j$	c #909846",
"k$	c #A0A84B",
"l$	c #A8B14E",
"m$	c #A8B151",
"n$	c #A8B154",
"o$	c #A7B159",
"p$	c #9FAA5D",
"q$	c #9CA75B",
"r$	c #88924F",
"s$	c #5F673A",
"t$	c #383E23",
"u$	c #69754E",
"v$	c #94A571",
"w$	c #6A754E",
"x$	c #4E5738",
"y$	c #4C5535",
"z$	c #4D5532",
"A$	c #464D2E",
"B$	c #3A4025",
"C$	c #4C5434",
"D$	c #394027",
"E$	c #454D31",
"F$	c #394029",
"G$	c #3D452C",
"H$	c #545E3E",
"I$	c #829264",
"J$	c #869566",
"K$	c #728057",
"L$	c #566041",
"M$	c #535D3F",
"N$	c #4A5337",
"O$	c #434C32",
"P$	c #819063",
"Q$	c #91A270",
"                                        . + @ # $ % # # # &                                   * = = - * ;               ",
"                                        . & > $ , ' % # # + ) ) ) ) ! ) ~ { ]                   ; = ^ - * ;             ",
"                                  ! / ( _ + # : < [ } # > + | | | 1 2 1 3 4 5 6 7 7 8 ) 9         ; 0 = - ;             ",
"                        9 7 a b c d e f g + > # h i j # > + k l m n o p q r s t u v w x y z A       ; - - * ;           ",
"                  { B 6 C v D E F G H I J + # # K L i M > + N O P Q R S T U V W X Y Z `  .a ..    +.@.  * * ;           ",
"  ; ;         { #.$.%.&.*.=.-.;.>.,.'.).!.+ # # # K M # # + ~.{.].{.~.^.^./.(._.:.).<.[.}.|.1.5 2.3.4.  ; * *           ",
"  ; ;       { 5.6.7.8.9.0.a.b.b.c.~.d.d.e.+ # # f.> > g.h.+ i.j.k.k.k.l.m.m.n.o.d.p.d.d.q.r.s.t.u.v.w.    x.* ;         ",
"  ;       y.z.A.B.C.D.E.d.d.F.G.d.d./.H.I.J.+ + + + + + + + + + + + K.L.M.M.G.N.O.O.p.d.P.Q.R.S.T.U.V.;   ; * ;         ",
"W.;       @.+ + + + + + + X.+ + + + + + + + Y.> # # # # # # # Z.Z.Z.+ + + + + + + `.+  +.++ + ++@+#+$+%+    x.;         ",
"+ &++ + + + + # > # # K K # # # # # # # # # # # # # # # # # # # # # # # # # # # # # *+< =+% + -+;+>+,+'+    ; x.;       ",
"# # # # # # # # # # K )+!+~+# # # # # # # # # # # # # # # # # # # # # # # # # # # {+!+]+' .++ q.^+/+(+_+      ; ;       ",
"# # # # # # # # # # # {+L =+:+# # # # # # # # # # # # # # # # # # # # # # # # K <+[+!+h % + d.d.}+|+1+2+      ;         ",
"# # # # # # # # # # # 3+4+' K # # # # # # # # # # # # # # # # # # # # # # # 3+4+i 5+~+# + + d.~.6+7+8+9+      ;         ",
"# # # # # # # # # # K 0+j 3+# # # # # # # # # # # # # # # # # # # # # # # {+!+]+4+~+# # + /.d.d.a+b+c+d+        ;       ",
"# # # # # # # # # # <+i M # # # # # # # # # # # # # # # # # # # # # # K {+L 4+h K # # # + d.d.d.e+f+g+V.        ;       ",
"# # # # # # # # # 3+]+4+K # # # # # # # # # # # # # # # # # # # # # K !+4+[+h+K # # # + + d.d.d.i+j+k+l+        ;       ",
"# # # # # # # # # ' i <+# # # # # # # # # # # # # # # # # # # # # # 3+]+]+m+K # # # n++ G.o+d.~.p+q+r+s+        ;       ",
"# # # # # # # # t+]+[ 3+# # # # # # # # # # # # # # # # # # # # # # # 3+3+# # # # # # + o+o+d.~.u+v+w+x+        ;       ",
"# # # # # # # :+y+L z+# # # # # # # # # # # # # # # # # # # # # # # # # # # # # # # > + p.p.d.d.A+B+C+D+      ; ;     ; ",
"# # # # # # # # :+, # # # # # # # # # # # # # # # # # # # # # # # # # # # # # # # # E++ p.p.d.d.F+G+H+I+J+    ; ;     ; ",
"# # # # # # # # # # # # # # # # # # # # # # # # # # # # # # # # # # # # # # # # # # # + p.p.d.~.K+L+M+N+O+P+  ;       ; ",
"# # # # # # # # # # # # # # # # # # # # # # # # # # # # # # # # # # # # # # # # # # > + p.p.Q+R+S+T+M+U+V+    ;     ; x.",
"# # # # # # # # # # # # # # # # # # # # # # # # # # # # # # # # # # # # # # # # # # + + W+X+Y+Z+`+ @.@+@@@          ; x.",
"# # # # # # # # # # # # # # # # # # # # # # # # # # # # # # # # # # # # # # # # # # + #@$@%@&@*@=@-@;@>@,@          ; x.",
"# # # # # # # # # # # # # # # # # # # # # # # # # # # # # # # # # # # # # # # # # # + '@)@*@=@=@=@!@~@{@_+    ; ;     ; ",
"# # # # # # # # # # # # # # # # # # # # # # # # # # # # # # # # # # # # # # # # # # + =@=@=@=@*@]@^@/@(@9     ; ;     ; ",
"# # # # # # # # # # # # # # # # # # # # # # # # # # # # # # # # # # # # # # # # # # + _@)@:@<@[@}@|@1@y 9     ; ;     ; ",
"# # # # # # # # # # # # # # # # # # # # # # # # # # # # # # # # # # # # # # # # # # + 2@$@3@4@5@F+6@7@y 9     ; x.    ; ",
"# # # # # # # # # # # # # # # # # # # # # # # # # # # # # # # # # # # # # # # # # # 8@9@W+0@d.d.d.a@b@y 9     ; x.      ",
"# # # # # # # # # # # # # # # # # # # # # # # # # # # # # # # # # # # # # # # # # E++ c@d@/.d.d.d.e@f@y 9       x.      ",
"# # # # # # # # # # # # # # # # # # # # # # # # # # # # # # # # # # # # :+# # # # # + + d@/.d.d.d.e@f@y 9     ; *       ",
"# # # # # # # # # # # # # # # # # # # # # # # # # # # # # # # # # # # :+y+% # # # # # + d@/.d.d.d.g@b@y 9     ; *       ",
"# # # # # # # # # # # # # # # # # # # # # # # # # # # # # # # # # # # , h@)+t+# # # # + d@/.d.d.d.i@j@y 9     ; *       ",
"# # # # # # # # # # # # # # # # # # # # # # # # # # # # # # # # # # # # M L ]+h # # # + d@/.d.d.d.k@l@m@9     ; *       ",
"# # # # # # # # # # # # # # # # # # # # # # # # # # # # # # # # # # # # # z+]+!+{+# # + n@/.d.~.d.o@p@q@9       *       ",
"# # # # # # # # # # # # # # # # # # # # # # # # # # # # # # # # # # # # # # h !+[+M ~++ + /.d.d.r@s@t@u@_+      x.      ",
"# # # # # # # # # # # # # # # # # # # # # # # # # # # # # # # # # # # # # # # ~+)+L 4+v@+ /.d.w@x@y@z@A@B@      ;       ",
"# # # # # # # # # # # # # # # # # # # # # # # # # # # # # # # # # # # # # # # # :+{+' K + C@D@E@F@G@H@I@J@      ;       ",
"# # # # # # # # # # # # # # # # # # # # # # # # # # # # # # # # # # # # # # # # # # K # K@L@M@N@=@O@P@Q@R@      ;       ",
"# # # # # # # # # # # # # # # # # # # # # # # # # # # # # # # # # # # # # # # # # # # # # + *@=@=@S@T@U@V@            ; ",
"# # # # # # # # # # # # # # # # # # # # # # # # # # # # # # # # # # # # # # # # # # # # # W@=@X@Y@Z@`@ #.#            ; ",
"# # # # # # # # # # # # # # # # # # # # # # # :+, # # # # # # # # # # # # # # # # # # # # + +#@###$#%#&#*#          ; ; ",
"# # # # # # # # # # # :+# # # # # # # # # # :+y+[+< :+# # # # # # # # # # M :+# # # # # # + + =#-#;#>#,#5.          ; ; ",
"# # # # # # # # # '#h y+:+# # # # # # # # # # ~+h@[ !+{+# # # # # # # # M i !+'#:+# # # # # + d.d.)#!#~#)           ; ; ",
"# # # # # # # :+=+[ i ]+, # # # # # # # # # # # K ' i i M # # # # # # # K [+]+L )+:+# # # # + {#d.]#^#6.)           ;   ",
"# # # # # # % ' L [ )+, # # # # # # # # # # # # # # j i 4+3+# # # # # # # K , M h@M :+# # # + + d./#(#_#)           ;   ",
"# # # # # :#<+]+=+'## # <## # > # # # # # # # # # # # <+h+!+K # # # # # # # # :+)+h@5+:+# # # [#~.}#|#1#9           ;   ",
"# # # # # # 2#<+:## Z.<#`.+ + + + + + + + <#3## 4## # :+=+L } # # # # # # # # # :+<+i <+: # # [#d.5#6#y 9           ;   ",
"Z.g.Z.g.7#+ + + + + + 8#+ /.d.d.d.d.d.9#+ + + + `.E+# # K ' z+% # # # # # # # # # # <+L < 0#> [#+ a#b#y 9         ; ;   ",
"& c#+ & & + ] _+d#e#f#g#d.d.d.d.d.d.d.d.d.h#d.i#j#+ + + k#*+*+$ # # # # # # # # # # % ' =+% # # `.l#m#y 9       ; * ;   ",
"n#        .     o#p#q#r#_.d.d.d.d.d.d.d.d.d.s#q.d._.d.9#[#t#u#E+# v#w#> # # # # # # # % % + + + + x#y#y 9       ; * ;   ",
"                z#A#B#C#_.d.d.d.d.d.d.d.d.d.O.s#d.d.d.d.d.D#+ + + + [#`.+ E#E+E+# + + + + F#G#{.H#I#J#y 9       ; ;     ",
"                K#L#M#N#O#d.d.d.d.d.d.d.d./.d@d.d.d.d.d.d.d@/.d.d.d.d.d.P#+ + + + + _.d.Q#R#S#T#U#V#W#y 9         ;     ",
"      ;         { X#Y#Z#`# $q.d.d.d.d.d.d./.d@d.d.d.d.d.d.d@/.d.d.d.d.d.d.d.q.d.d..$+$@$#$$$%$&$n *$=$-$_+              ",
"      ; ;         ;$4 6#>$,$'$)$d.d.d.d.d.d.d.d.d.d.d.d.d.d.d.d.d.d.d.d.d.d.c.e+!$~${$]$b@^$/$($_$.#B n#                ",
"      ; ;           { b -$:$<$[$}$|$!.Q#Q#d.d.d.d.d.d.d.d.~.~.{.1$2$c.e+3$4$5$6$7$8$9$0$a$b$5 7 c${                     ",
"        ; ; ; ;         ;$d$e$>#f$g$h$i$j$k$a@g@g@a@a@l$m$n$o$T#p$q$r$6$s$t$F u$C v$8 !                                 ",
"          ; * - *         { ) a$C w$x$y$y#b@z$z$z$b@A$B$b@C$D$E$F$G$:$H$F$I$5.) 9                     ;                 ",
"            ; * 0 -             9 ) _ 5.c J$y y y y K$L$M$N$O$L$A.P$c b Q$w.                        ; ;                 ",
"              ; * - - ;                   _+9 9 9 9 9 ) ) ) ) ) 9 _+                    ;                               "};
