/* XPM */
static char * pR_xpm[] = {
"60 60 291 2",
"  	c #A6B980",
". 	c #000000",
"+ 	c #DFCC13",
"@ 	c #A4B582",
"# 	c #A8BA82",
"$ 	c #A8BB83",
"% 	c #DBCA1C",
"& 	c #12150B",
"* 	c #A4B77F",
"= 	c #A7BA82",
"- 	c #AABD85",
"; 	c #98AA75",
"> 	c #A8BB82",
", 	c #AEC08B",
"' 	c #BDCDAE",
") 	c #B8C9A6",
"! 	c #B0C297",
"~ 	c #9ABD78",
"{ 	c #A5B87F",
"] 	c #BFCEB2",
"^ 	c #CDDBCB",
"/ 	c #C1D1B7",
"( 	c #94BE74",
"_ 	c #AEC093",
": 	c #AABD89",
"< 	c #C8D6C6",
"[ 	c #C7D5C0",
"} 	c #8CC06F",
"| 	c #A0BB7C",
"1 	c #A9BC84",
"2 	c #CBD9CA",
"3 	c #C3D2BB",
"4 	c #A8BB85",
"5 	c #C0D0BD",
"6 	c #C9D7C4",
"7 	c #92BF72",
"8 	c #ADBF89",
"9 	c #ACBEA4",
"0 	c #91A771",
"a 	c #8BA36D",
"b 	c #C2D1BA",
"c 	c #B9C9A7",
"d 	c #79C463",
"e 	c #97BD76",
"f 	c #FFF3F3",
"g 	c #CBD9C7",
"h 	c #849C67",
"i 	c #96AC75",
"j 	c #BACAAA",
"k 	c #ACBE87",
"l 	c #89C16D",
"m 	c #C1D0B6",
"n 	c #88A06A",
"o 	c #A0B47C",
"p 	c #80C367",
"q 	c #A9C086",
"r 	c #88C16C",
"s 	c #92BF73",
"t 	c #7E9864",
"u 	c #97C279",
"v 	c #A6BE82",
"w 	c #87C16C",
"x 	c #9BBC79",
"y 	c #7B9661",
"z 	c #A1BC7E",
"A 	c #A8C086",
"B 	c #A4C183",
"C 	c #86C46C",
"D 	c #9FBB7B",
"E 	c #96C57A",
"F 	c #75C762",
"G 	c #84C26A",
"H 	c #87C46D",
"I 	c #879F69",
"J 	c #9DC37F",
"K 	c #85C26A",
"L 	c #A5B880",
"M 	c #77925F",
"N 	c #A7BA81",
"O 	c #9ABE79",
"P 	c #A6B97F",
"Q 	c #A5B97F",
"R 	c #88A06B",
"S 	c #889C6A",
"T 	c #A2B57D",
"U 	c #A4B77E",
"V 	c #AABC85",
"W 	c #AEC08A",
"X 	c #90C173",
"Y 	c #76C561",
"Z 	c #9FB17A",
"` 	c #A9BC83",
" .	c #A4BE83",
"..	c #69C859",
"+.	c #898282",
"@.	c #100E0E",
"#.	c #0D0C0C",
"$.	c #4A4646",
"%.	c #CAC0C0",
"&.	c #212517",
"*.	c #252B1A",
"=.	c #A4B67E",
"-.	c #75C561",
";.	c #010101",
">.	c #3A3737",
",.	c #E1D6D6",
"'.	c #161A0F",
").	c #69C759",
"!.	c #E0D6D6",
"~.	c #1F1D1D",
"{.	c #524E4E",
"].	c #070904",
"^.	c #6C6666",
"/.	c #F4E8E8",
"(.	c #202516",
"_.	c #A3B57E",
":.	c #383535",
"<.	c #CBC1C1",
"[.	c #020201",
"}.	c #B568BB",
"|.	c #B567BB",
"1.	c #BCB3B3",
"2.	c #585353",
"3.	c #B366B9",
"4.	c #FEF2F2",
"5.	c #CCC2C2",
"6.	c #9D9696",
"7.	c #827C7C",
"8.	c #363333",
"9.	c #AAA2A2",
"0.	c #E7DCDC",
"a.	c #9F9797",
"b.	c #3E3B3B",
"c.	c #7C7676",
"d.	c #D3C9C9",
"e.	c #F9EEEE",
"f.	c #E8DDDD",
"g.	c #14180D",
"h.	c #11140A",
"i.	c #0B1007",
"j.	c #2E2B2B",
"k.	c #8A8383",
"l.	c #121010",
"m.	c #534E4E",
"n.	c #E4D9D9",
"o.	c #282626",
"p.	c #B9B1B1",
"q.	c #080707",
"r.	c #817B7B",
"s.	c #EEE3E3",
"t.	c #040404",
"u.	c #343131",
"v.	c #F0E5E5",
"w.	c #8B8484",
"x.	c #302D2D",
"y.	c #322F2F",
"z.	c #948D8D",
"A.	c #050603",
"B.	c #A59D9D",
"C.	c #C3BABA",
"D.	c #8C8585",
"E.	c #121111",
"F.	c #807A7A",
"G.	c #070A04",
"H.	c #413E3E",
"I.	c #8F8888",
"J.	c #161414",
"K.	c #595555",
"L.	c #A2B67D",
"M.	c #7A7474",
"N.	c #4B4747",
"O.	c #D7CDCD",
"P.	c #7CC464",
"Q.	c #96A874",
"R.	c #6E6969",
"S.	c #B8AFAF",
"T.	c #6F6A6A",
"U.	c #060D04",
"V.	c #7DC365",
"W.	c #B6ADAD",
"X.	c #191717",
"Y.	c #A39B9B",
"Z.	c #080808",
"`.	c #1D1B1B",
" +	c #100F0F",
".+	c #B3AAAA",
"++	c #0F0E0E",
"@+	c #5F5B5B",
"#+	c #78C161",
"$+	c #A19A9A",
"%+	c #262424",
"&+	c #3F3C3C",
"*+	c #090C05",
"=+	c #676262",
"-+	c #C0B7B7",
";+	c #635E5E",
">+	c #2F2C2C",
",+	c #C6BCBC",
"'+	c #020202",
")+	c #746E6E",
"!+	c #FDF1F1",
"~+	c #F6EBEB",
"{+	c #ECE1E1",
"]+	c #E3D8D8",
"^+	c #050703",
"/+	c #726D6D",
"(+	c #D2C8C8",
"_+	c #BEB5B5",
":+	c #B2A9A9",
"<+	c #787272",
"[+	c #3D3A3A",
"}+	c #0A0909",
"|+	c #B1A9A9",
"1+	c #FCF0F0",
"2+	c #151414",
"3+	c #1B1A1A",
"4+	c #5E5A5A",
"5+	c #D4C9C9",
"6+	c #918A8A",
"7+	c #656060",
"8+	c #979090",
"9+	c #D9CECE",
"0+	c #FBEFEF",
"a+	c #EEE2E2",
"b+	c #EFE4E4",
"c+	c #F2E7E7",
"d+	c #030502",
"e+	c #141212",
"f+	c #857F7F",
"g+	c #030303",
"h+	c #90B470",
"i+	c #010100",
"j+	c #7C7575",
"k+	c #585454",
"l+	c #1B1919",
"m+	c #060702",
"n+	c #030402",
"o+	c #7CAF62",
"p+	c #020302",
"q+	c #837D7D",
"r+	c #BBB2B2",
"s+	c #353232",
"t+	c #2B4B21",
"u+	c #060804",
"v+	c #010201",
"w+	c #11150B",
"x+	c #13170C",
"y+	c #090B05",
"z+	c #040602",
"A+	c #040603",
"B+	c #0B0E07",
"C+	c #080A05",
"D+	c #171B0F",
"E+	c #739E5A",
"F+	c #6A8455",
"G+	c #78935F",
"H+	c #F4EBE7",
"I+	c #0A0D06",
"J+	c #B0C18C",
"K+	c #678754",
"L+	c #8BA26C",
"M+	c #7F9864",
"N+	c #10130A",
"O+	c #AFC18C",
"P+	c #7C9762",
"Q+	c #94AA73",
"R+	c #6A8855",
"S+	c #B367B8",
"T+	c #0F1209",
"U+	c #AA6BAD",
"V+	c #241025",
"W+	c #AEBF8A",
"X+	c #0B1407",
"Y+	c #0D1108",
"Z+	c #171C0F",
"`+	c #11130A",
" @	c #070804",
".@	c #13160C",
"+@	c #A1B37B",
"@@	c #070704",
"#@	c #0E1109",
"$@	c #0D1008",
"%@	c #040402",
"&@	c #050504",
"*@	c #0D0E07",
"=@	c #040502",
"-@	c #020301",
";@	c #0C0F07",
">@	c #0C0E07",
",@	c #0A0D05",
"'@	c #060803",
"                                                                                                                        ",
"                                                                                                                        ",
"                      .                     . .                                                                         ",
"                    . + . @ #         $ $ . + % & *           . . . . .                                                 ",
"                  = . + + . -         $ $ . + + . ;       . . . . . . .                                                 ",
"                  > . + + + . .     ,   . . + + .     . . . . . . . . . .         ' ) !           ~ ~                   ",
"    . . . . .       . + + + . . . . . . + + + + + . . . . . . . . . . . . {       ] ^ /           ( (                   ",
"  . . . . . . . . . . + + + + . . . . . . . . . . . . . . . . . . . . . . ' _     : < [             } |   $ 1           ",
". . . . . . . . . . . + + + + . . . . . . . . . . . . . . . . . . . . . 2 3 4       5 6 } 7         } |   8 1           ",
". . . . . . . . . . . . . . . . . . . . . . . . . . . . . . . . . . . . 9 0     a a b c   d e       e e   8 #           ",
". . . . . . . . . . . . . . . f f . f f f f f . . . . . . . . . . . . g : h     0 i j   $ k l l     | } ,               ",
". . . . . . . . . . . . . . f f f . f f f f f . . . . . . . . . . . m !   i n o a       $ k | p       } q #     e r s   ",
". . . . . . . . . . . . . f f . f . f . f f f f . . . . . . . . .         o t   h           , e d     u v       e w x   ",
"    . . . . . . . . . . . f f f f . f f f f f f . . . .             o a     i y i           z A e e   B C   7 p         ",
"              . . . . . . f f f . . . f f f f f . . . .                 a   h 0 a           D E F G   8 H   e e         ",
"                  . . . . f f . . . . . f f f . . . . .                 I o h a o   8 #       # J p e , K l l           ",
"                L . . . . . . . . . . . . . . . . . . .                 i y M t       , N       8 O C q K e e P Q       ",
"                  . . . . . . . . . . . . . . . . . .                   i R R S T U *   V W     1 v J X Y e     P       ",
"                  . . . . . . . . . . . . . . . . . . . . . . . . . . . . . . . . . . . . . Z P   `  .C ..              ",
"                    . . . . . . . . . . . . . . . . f f f f f f f f f +.. . . @.. #.$.%.. . . &.*.=.$ p -.              ",
"                      . . . . . . . . . . . . . . . f f f f f f f f f +.. . . ;.. . . >.,.f f f . . '.).}               ",
"                      . . . . . . . . . . . . . . f f f f f f f f f f !.~.. . . . . . . {.f f f f f ]..                 ",
"                    . . . . . . . . . . . . . . . f f f f f f f f f f f ^.. . . . . . . . /.f f f f f f (._.            ",
"                  . . . . . . . . . . . . . . . . f f f f f f f f f f f ,.. . . . . . . . :.<.f f f f f [..             ",
"                  . . . . . . . . . . }.|.. . . . . f f f f f f f f f f f 1.. . . . . . . . 2.f f f f f f . .           ",
"                  . . . . . . . . . |.|.|.|.3.. . . 4.f f f f f f f f f f f f /.5.6.7.8.. . 9.f f f f f f .   .         ",
"                  . . . |.|.|.. . . |.|.|.|.|.. . . f f 0.a.b.c.d.e.f f f f f f f f f f /.f./.f f f f f f .   g.        ",
"                  . . |.|.h.i.|.. . |.|.j.j.|.|.. . f f k.l.. . m.n.f f f f f f f f f f f f f f f f f f f .   .         ",
"                  . . |.|.h.i.|.|.|.|.|.j.j.|.|.. . f f o.. . . . p.f f f f f f f f f f f f f f f f f f f .   .         ",
"                  . . |.|.|.|.|.|.|.|.|.|.|.|.|.. . f e.q.. . . . r.f f f f f f f e.s.f.s.e.f f f f f f f .   .         ",
"                    . . . . . . . . . . . . . . . f f !.t.. . . . u.v.f f f f f 0.w.x.. . y.z.0.f f f f f A.  .         ",
"                    . . . . . . . . . . . . . . f f f B.. . . . . . C.f f f f f D.q.. . . . E.F.v.f f f f . { .         ",
"                        U G.f f f f f f f f f f f f v.H.. . . . . . I.f f f f e.J.. . . . . . ;.K.d.e.f f . L..   K     ",
"                        U . f f f f f f f f f f f f C.. . . . . . . M.f f f f !.. . . . . . . . . N.O.f f .   . P.}     ",
"                        Q.. f f f f f f f f f f f v.R.. . . . . . . I.f f f f S.. . . . . . . . . . T.v.f U.V.. {       ",
"                      8 # . f f f f f f f f f f f W.X.. . . . . . . C.f f f f Y.. . . . Z.`.. . . .  +W.f . P..         ",
"                      # 8 . f f f f f f f f f e..+++. . . . . . . H.v.f f f f S.. . . . . . ;.. . . . . @+. p .         ",
"                        - . f f f f f f f f f !.o.. . . . . . . . B.f f f f f !.K.. . . . . . . . . . . . . #+.         ",
"                          . f f f f f f f f f $+. . . . . . . . %+!.f f f f f e.d.&+. . . . . . . . . . . *+. . .       ",
"                          . c.=+-+e.f f f f f N.. . . . . . . t.w.e.f f f f f f f ,.;+. . . . . . . . . . .   . ; .     ",
"                          . . . >+,+f f f f f . . . . . . . '+)+0.f f f f f f f f f !+~+v.{+]+. . . . . . . {           ",
"                          ^+. . . /+f f f f f (+_+:+a.<+[+}+|+1+f f f f f f f f f f f f f 1.. . . . . . . . {           ",
"                          ^+. . . 2+,+f f f f f f f f f f f f f f f f f f f f f f f f f f . . . . . . . . . U           ",
"                          . . . . . 3+4+,+f f f f f f f f f f f f f f f f f f f f f f f f 1.. . . . . . . . P           ",
"                        { . . . . . . . &+/.f f f f f f f f f f f f f f f f f f f f f f f f f . . . . . . . {           ",
"                          . . . . . . . . 9.f f f f f f f /.5+6+7+8+9+/.f f f f f f f 0+a+b+c+. . . . . . .             ",
"                        L d+. . . . . . . . O.f f f f f 1.. . . . . . . e+N.<.f f f ]+f+. . . . . . . . g+.             ",
"                          h+i+. #.. . . . . j+f f f f f . . . . . . . . . . k+f f f l+. . . . . . ;.x.m+n+G.*           ",
"                            o+. p+. #.. . . q+f f f f f r+. s+#.. . . . . . 9.f f f 8.. . . . . '+. . .   *             ",
"                            e t+u+v+v+. . . . . . w+. x+. y+. . . . . . . . . . . z+. [.A+B+. [.. C+D+                  ",
"                              E+. f f . f f .   I F+i G+a o       . |.|.|.|.|.|.|.*+f f . f H+I+J+-                     ",
"                              Q.. f f . f f .     K+L+a M+      ; N+. . . . . . . . f f . f f . O+#                     ",
"                              Q.. f f . f f .     P+Q+  R+      * . |.. S+T+U+. |.V+f f . f f . W+#                     ",
"                                . f f X+f f f .   a o             . |.. |.n+|.. |.. f f . f f . W+#                     ",
"                                . . . . . . . .   a o             L .   .   [.  . Y+f f . f f f .                       ",
"                                Z+. . . `+ @. .@    a o                     +@    . . . . . . . . {                     ",
"                                . u+@@. . . #@$@                                  %@;.&@. . *@. =@                      ",
"                                . . . . . . -@;@                                  . . v+>@v+].[.. {                     ",
"                                ,@n+T+. . . . .                                   . '@*+. *+*+. .                       ",
"                                                                                    Q.                                  "};
