/* XPM */
static char * fD_xpm[] = {
"60 60 255 2",
"  	c #A6B980",
". 	c #000000",
"+ 	c #090501",
"@ 	c #12150B",
"# 	c #A5B87F",
"$ 	c #EEB044",
"% 	c #EFB145",
"& 	c #F0B245",
"* 	c #EEB145",
"= 	c #EDAE44",
"- 	c #A4B77F",
"; 	c #AA1212",
"> 	c #AB1513",
", 	c #AB1713",
"' 	c #AB1913",
") 	c #AA1613",
"! 	c #AA1312",
"~ 	c #AA1412",
"{ 	c #AB1313",
"] 	c #A8BA82",
"^ 	c #ADBF89",
"/ 	c #A5B880",
"( 	c #180000",
"_ 	c #EEB045",
": 	c #EFB245",
"< 	c #EFB144",
"[ 	c #0A0D06",
"} 	c #0A0C06",
"| 	c #15190E",
"1 	c #AABD85",
"2 	c #ABBE87",
"3 	c #A7BA82",
"4 	c #9ABD78",
"5 	c #EDB249",
"6 	c #040200",
"7 	c #AEC08A",
"8 	c #A8BB82",
"9 	c #94BE74",
"0 	c #EEB34D",
"a 	c #EDB044",
"b 	c #ECB047",
"c 	c #EEB349",
"d 	c #A9BC84",
"e 	c #A8BB83",
"f 	c #A0BB7C",
"g 	c #8CC06F",
"h 	c #BD8989",
"i 	c #92BF72",
"j 	c #C9D7C4",
"k 	c #C0D0BD",
"l 	c #0E1B09",
"m 	c #BA8787",
"n 	c #A0B27B",
"o 	c #AFC18C",
"p 	c #97BD76",
"q 	c #79C463",
"r 	c #B9C9A7",
"s 	c #C2D1BA",
"t 	c #8BA36D",
"u 	c #BB6F6F",
"v 	c #BA6464",
"w 	c #AEC08B",
"x 	c #89C16D",
"y 	c #ACBE87",
"z 	c #BACAAA",
"A 	c #96AC75",
"B 	c #91A771",
"C 	c #B95858",
"D 	c #BA6262",
"E 	c #BA8686",
"F 	c #A6B780",
"G 	c #92BF73",
"H 	c #88C16C",
"I 	c #A9C086",
"J 	c #80C367",
"K 	c #070806",
"L 	c #BA5C5C",
"M 	c #BA5A5A",
"N 	c #9BBC79",
"O 	c #87C16C",
"P 	c #A6BE82",
"Q 	c #97C279",
"R 	c #98AA75",
"S 	c #849C67",
"T 	c #FCF0F0",
"U 	c #FFF3F3",
"V 	c #F7EEEB",
"W 	c #F8EEEB",
"X 	c #9AAB78",
"Y 	c #86C46C",
"Z 	c #A4C183",
"` 	c #A8C086",
" .	c #A1BC7E",
"..	c #FEF3F3",
"+.	c #FDF1F1",
"@.	c #F7EDEB",
"#.	c #020201",
"$.	c #87C46D",
"%.	c #84C26A",
"&.	c #75C762",
"*.	c #96C57A",
"=.	c #9FBB7B",
"-.	c #FEF2F2",
";.	c #F9EEEE",
">.	c #FBEFEF",
",.	c #85C26A",
"'.	c #9DC37F",
").	c #9DAD7C",
"!.	c #FAEEEE",
"~.	c #151313",
"{.	c #FCF1F1",
"].	c #96A874",
"^.	c #A5B97F",
"/.	c #A6B97F",
"(.	c #9ABE79",
"_.	c #0B0E07",
":.	c #050703",
"<.	c #050404",
"[.	c #FCF1F0",
"}.	c #010201",
"|.	c #76C561",
"1.	c #90C173",
"2.	c #79875C",
"3.	c #869D69",
"4.	c #0D0C0C",
"5.	c #0A0909",
"6.	c #B2BF94",
"7.	c #9AAB76",
"8.	c #8AA26C",
"9.	c #9FB27B",
"0.	c #A3B67E",
"a.	c #99AE77",
"b.	c #69C859",
"c.	c #89A16B",
"d.	c #75C561",
"e.	c #B0C28E",
"f.	c #A4B77E",
"g.	c #3A0E0E",
"h.	c #3B1210",
"i.	c #3B1611",
"j.	c #3A1210",
"k.	c #7C9662",
"l.	c #879F69",
"m.	c #69C759",
"n.	c #AEBF8A",
"o.	c #A2B47C",
"p.	c #F2DEDE",
"q.	c #A2B47D",
"r.	c #B1C28D",
"s.	c #F1DDDD",
"t.	c #A1B57C",
"u.	c #370D0D",
"v.	c #380D0D",
"w.	c #A91212",
"x.	c #92A871",
"y.	c #390E0E",
"z.	c #A0B47C",
"A.	c #380E0E",
"B.	c #3B1711",
"C.	c #3D1A14",
"D.	c #3C1511",
"E.	c #3C1612",
"F.	c #FAEBEB",
"G.	c #A4B67E",
"H.	c #7A9461",
"I.	c #F2DDDD",
"J.	c #A1BB7D",
"K.	c #9AAF78",
"L.	c #7F9663",
"M.	c #3A110F",
"N.	c #3B1612",
"O.	c #3A1310",
"P.	c #3B1310",
"Q.	c #A5B980",
"R.	c #6F8C59",
"S.	c #381610",
"T.	c #150303",
"U.	c #BC8988",
"V.	c #7CC464",
"W.	c #BC8888",
"X.	c #35110E",
"Y.	c #BB8A88",
"Z.	c #7DC365",
"`.	c #91BF72",
" +	c #7BC464",
".+	c #6FC65D",
"++	c #A3B57D",
"@+	c #6F3737",
"#+	c #6E3737",
"$+	c #6A6363",
"%+	c #6E3939",
"&+	c #BB8B88",
"*+	c #BD8B89",
"=+	c #B3C4A1",
"-+	c #40425E",
";+	c #3D3F5E",
">+	c #3E405E",
",+	c #150D0D",
"'+	c #C4D3B9",
")+	c #C6D4C3",
"!+	c #B6C7A2",
"~+	c #AABD86",
"{+	c #AABC88",
"]+	c #9AAF8D",
"^+	c #C6D5C2",
"/+	c #C8D6C2",
"(+	c #3F415E",
"_+	c #ABBD88",
":+	c #A5B67F",
"<+	c #A7B985",
"[+	c #B0C297",
"}+	c #CAD8C4",
"|+	c #ACBD8B",
"1+	c #7E9864",
"2+	c #C4D3BC",
"3+	c #BDCCAE",
"4+	c #AABD89",
"5+	c #C7D6C0",
"6+	c #C1D1B4",
"7+	c #C7D6C1",
"8+	c #C6D5BF",
"9+	c #B2C398",
"0+	c #B8C9A6",
"a+	c #A6B985",
"b+	c #A6B982",
"c+	c #A1B581",
"d+	c #ACBF89",
"e+	c #91A773",
"f+	c #829B66",
"g+	c #9EB37D",
"h+	c #A3B782",
"i+	c #99AF78",
"j+	c #9DB17E",
"k+	c #B0C18C",
"l+	c #ACBD87",
"m+	c #A8BB87",
"n+	c #A2BA7E",
"o+	c #98BD77",
"p+	c #B2C38F",
"q+	c #A2B67E",
"r+	c #A2B67D",
"s+	c #A3BA7E",
"t+	c #9CBC7A",
"u+	c #96AC78",
"v+	c #9EB27A",
"w+	c #9BBC78",
"x+	c #A2BA7D",
"y+	c #9BB07A",
"z+	c #88A06B",
"A+	c #45495F",
"B+	c #95BE74",
"C+	c #A4BA7E",
"D+	c #7E9964",
"E+	c #78935F",
"F+	c #839B67",
"                                                  . . . . . . . . . . . + @                                             ",
"                                              # . $ % & % * % % & % & & = & .                                           ",
"                                            - . . ; ; ; ; ; ; ; ; ; > , ; ' . .                                         ",
"                                    #     - . ) ; ; ; ; ) ) ' ; ! ~ ; { ; ; ; ! .         ] ^                           ",
"                                    / . . . ( % % _ = : & & & & % % % % % & & < [ } @ @ | 1 1     2 3                   ",
"                  4 4           . . . & & % & & & & & & 5 & & & & & : & & & & & % : % & & 6 . .   7 8                   ",
"                  9 9         . & & 0 & $ a & < % % % b . . . . . . . . b % & & & & % & & c & & . 1                     ",
"          d e   f g           . . . . . . . . . . . . . . h h h h h h . . . . . . . . . . . . . .                       ",
"          d ^   f g         i g j k   / . h h h h h h h h . h h h h l m h h h h h h . n o 1   1 1                       ",
"          ] ^   p p       p q   r s t t . h h h h h h h . h h u v h h . h h h h h h . / 7 ]   w                         ",
"              w g f     x x y e   z A B . h h h h h h h . h v C C D E . h h h h h h . F ^ ] 1 1                         ",
"  G H p     ] I g       J f y e       t . h h h h K . . . . L C M D . } . . h h h h . w ^ ] w                           ",
"  N O p       P Q     q p w       R . S . h h . . . T U U U . . . . U V W } . . h h . X . ] w                           ",
"        J i   Y Z   p p `  .      . ... . . . . U U U U U U +.U U U U U U U @.. . . . #.... ^                           ",
"        p p   $.^   %.&.*.=.      . ..-.-.;.>.-.U U U U U U U U U U U U U U U U U -.-.-....                             ",
"          x x ,.w p J '.]       ] ).. -.-.+.U U !.~...U U U U U U U U U U . {.U U -.-.-.. ].                            ",
"      ^./.p p ,.I Y (.^       w w     _.. :.. . <.U [.U U U U U U U U U U >.<.. . . }..                                 ",
"      /.    p |.1.'.P 1     7 ^       2.A 3.    4.!.-.U U U U U U U U U U U 5.6.7.  8.9.      0.a.                      ",
"              b.Y Z ^ ]   ] 7     . . . . . . . . . . . U U U U U U U . . . . . . . . . .     c.a.                      ",
"              d.J e.1   ] ^   f.. . g.h.g.g.g.g.g.g.. . . . . . . . . . i.j.h.g.g.g.g.h.. . k.l.                        ",
"              g m.7 n.  ^ ] o.. . g.g.g.g.g.g.g.g.g.g.. . ; p.; U . . h.g.g.g.g.g.g.g.g.g.. . q.                        ",
"                  r.1 ] ^   o.. g.g.g.g.g.g.g.g.g.g.g.g.. U ; s.; . g.g.g.g.g.g.g.g.g.g.g.g..                           ",
"                      1 1     . g.g.g.g.g.g.g.g.g.g.g.h.. ; s.; U . g.g.g.g.g.g.g.g.g.g.g.g.. t.                        ",
"                      1 1     . u.g.g.g.. v.g.g.g.g.g.g.. U ; U w.. g.g.g.g.g.g.g.. g.g.g.g.. x.                        ",
"                      1 1     . y.g.g.v.. h.g.g.g.g.g.h.. ; U ; U . g.g.g.g.g.g.g.. g.g.g.g.. z.                        ",
"                              . A.g.g.y.. g.g.g.g.g.g.y.. U ; U ; . B.g.g.g.g.g.g.. g.g.g.g..                           ",
"                    t l.      . g.g.g.y.. y.g.g.g.g.g.y.. ; U ; s.. g.g.g.g.g.g.C.. g.g.g.g.. 0.                        ",
"                    A B       . g.g.g.g.. g.g.g.g.g.g.g.. U ; U w.. g.g.g.g.g.g.g.. g.g.g.g.. 0.                        ",
"                      t l.  z.. h.g.D.E.. g.g.g.g.g.g.g.. w.U ; F.. g.g.g.g.g.g.h.. g.g.g.g.. G.                        ",
"                      A B   H.. g.g.g.g.. h.g.g.g.g.g.g.. U ; I.; . g.g.g.g.g.g.g.. g.g.g.g.. 0.                        ",
"              G J.      t K.L.. M.g.h.N.. g.g.g.g.g.g.O.. ; s.; U . P.g.g.g.g.g.h.. E.g.g.h..                           ",
"            p G Q.      t R.A . . . . . . h.g.g.g.g.g.g.. U ; U ; . S.g.g.g.g.g.g.. . . . T.. 0.                        ",
"    ,.    f g       f   A R.. . h h h h . g.g.g.g.g.g.. . ; U ; U . . g.g.g.g.g.g.. U.U.h h . .                         ",
"    g V.p f g   f J g   A A . h h h h W.. g.g.g.g.g.g.. ; s.; U ; s.. X.g.g.g.g.g.. Y.h h h h .                         ",
"      i p Z.x p g i         . h h h h h . . g.g.g.j.. . U ; U ; U ; . . g.g.g.g.. . h h h h h . /                       ",
"        g V.`.p             . U.h h h h U.. h.g.g.j.. . . . . . . . . . g.g.g.g.. h h h h h h . ^                       ",
"          J  +f           o.. h h h h . h . g.. . . . . . . . . . . . . . . . g.. h . h h h h . ]                       ",
"          .+p             ++. h h h h . . . . . @+#+@+@+@+@+$+@+$+%+@+@+@+@+. . . . . h h h h .                         ",
"        p p     1         ++. . . &+*+. ++  . . . . . . . . . . . . . . . . . . .   . h h . . .                         ",
"                1   =+z         . . . . r   . -+;+;+;+;+;+;+;+. >+;+;+;+;+;+;+. 1 ] . ,+. . 1 /                         ",
"                  '+)+!+      1 ~+{+]+^+/+  . (+;+;+;+;+;+;+;+. ;+;+;+;+;+;+;+. _+  ^ :+# <+]                           ",
"                [+}+|+1+      w     l.z.2+3+. >+;+;+;+;+;+;+;+. >+;+;+;+;+;+;+. w   ^ ]   ^ ]                           ",
"              4+5+6+] B A   ^ ]     S     7+. ;+;+;+;+;+;+;+;+. ;+;+;+;+;+;+;+. ] ^ ^ ]   ^ ]                           ",
"              4+8+9+^ z.1+] ^       S     0+. ;+;+;+;+;+;+;+>+. ;+;+;+;+;+;+;+. ] ^ w   ] ^                             ",
"                    w   A a+      b+c+0.a.  . ;+;+;+;+;+;+;+>+. >+;+;+;+;+;+;+. - ] d+J.  w                             ",
"                    1 1 A a+      e+  f+a.  . ;+;+;+;+;+;+;+;+. ;+;+;+;+;+;+;+. /   J.G   w                             ",
"                    o y g+g+    h+i+  S   / . ;+;+;+;+;+;+;+;+. ;+;+;+;+;+;+;+. / f g       p                           ",
"                    1 1 w t z.y j+z.t z.    . ;+;+;+;+;+;+;+;+. ;+;+;+;+;+;+;+.   f g     p p                           ",
"                      k+l+S ] m+A z.t       . ;+;+;+;+;+;+;+>+. ;+;+;+;+;+;+(+. p f g   n+o+                            ",
"                    ] p+^ t b+q+# r+r+    - . ;+;+;+;+;+;+;+;+. ;+;+;+;+;+;+;+. s+      t+=.                            ",
"                    1 k+^ u+b+v+# z.      f.. . ;+;+;+;+;+;+;+. ;+;+;+;+;+;+. . w+x+g H g                               ",
"                    ] o 1 4+y+t 1+A           . . ;+;+;+;+;+;+. ;+;+;+;+;+. .   g 4 J i                                 ",
"                    ] n.^ a+z+z+B               . ;+;+;+;+;+;+. ;+;+;+;+A+.     t+B+C+4                                 ",
"                    ] n.^ _+D+z+A             . . . . . . . . . . . . . . . .         n+                                ",
"                          z.D+E+        . . . . . . . . . . . . . . . . . . . . . .                                     ",
"                            A F+      . . . . . . . . . . . . . . . . . . . . . . . .                                   ",
"                                        . . . . . . . . . . . . . . . . . . . . . .                                     ",
"                                              . . . . . . . . . . . . . . . .                                           ",
"                                                -                 # # #                                                 ",
"                                                                                                                        "};
