/* XPM */
static char * fL_xpm[] = {
"60 60 186 2",
"  	c #A6B980",
". 	c #000000",
"+ 	c #A0B37B",
"@ 	c #EFB145",
"# 	c #A5B880",
"$ 	c #A3B57D",
"% 	c #AA1212",
"& 	c #A8BA82",
"* 	c #ADBF89",
"= 	c #EEB045",
"- 	c #EFB045",
"; 	c #AABD85",
"> 	c #ABBE87",
", 	c #A7BA82",
"' 	c #9ABD78",
") 	c #EFB146",
"! 	c #EDB045",
"~ 	c #EDB046",
"{ 	c #AEC08A",
"] 	c #A8BB82",
"^ 	c #94BE74",
"/ 	c #A9BC84",
"( 	c #A8BB83",
"_ 	c #A0BB7C",
": 	c #8CC06F",
"< 	c #92BF72",
"[ 	c #C9D7C4",
"} 	c #C0D0BD",
"| 	c #A8BB85",
"1 	c #BD8989",
"2 	c #A5B780",
"3 	c #AFC18C",
"4 	c #97BD76",
"5 	c #79C463",
"6 	c #B9C9A7",
"7 	c #C2D1BA",
"8 	c #8BA36D",
"9 	c #A4B67E",
"0 	c #AEC08B",
"a 	c #89C16D",
"b 	c #ACBE87",
"c 	c #BACAAA",
"d 	c #96AC75",
"e 	c #91A771",
"f 	c #BC7777",
"g 	c #92BF73",
"h 	c #88C16C",
"i 	c #A9C086",
"j 	c #80C367",
"k 	c #BB6464",
"l 	c #BA5E5E",
"m 	c #BA5D5D",
"n 	c #9BBC79",
"o 	c #87C16C",
"p 	c #A6BE82",
"q 	c #97C279",
"r 	c #849C67",
"s 	c #180606",
"t 	c #BB6161",
"u 	c #BC8282",
"v 	c #FEF2F2",
"w 	c #A4B77F",
"x 	c #86C46C",
"y 	c #A4C183",
"z 	c #A8C086",
"A 	c #A1BC7E",
"B 	c #7B9661",
"C 	c #1C0808",
"D 	c #87C46D",
"E 	c #84C26A",
"F 	c #75C762",
"G 	c #96C57A",
"H 	c #9FBB7B",
"I 	c #85C26A",
"J 	c #9DC37F",
"K 	c #A0B47C",
"L 	c #859D67",
"M 	c #A5B97F",
"N 	c #A6B97F",
"O 	c #9ABE79",
"P 	c #7E9864",
"Q 	c #77925F",
"R 	c #77925E",
"S 	c #76C561",
"T 	c #90C173",
"U 	c #88A06B",
"V 	c #3A0E0E",
"W 	c #390E0E",
"X 	c #A3B67E",
"Y 	c #99AE77",
"Z 	c #69C859",
"` 	c #829A67",
" .	c #FBEFEF",
"..	c #89A16B",
"+.	c #75C561",
"@.	c #B0C28E",
"#.	c #7F9964",
"$.	c #879F69",
"%.	c #69C759",
"&.	c #AEBF8A",
"*.	c #A0B27B",
"=.	c #B1C28D",
"-.	c #3A120F",
";.	c #390D0D",
">.	c #380D0D",
",.	c #370D0D",
"'.	c #020000",
").	c #A2B57D",
"!.	c #A5B87F",
"~.	c #A1B57C",
"{.	c #160303",
"].	c #92A871",
"^.	c #0E0202",
"/.	c #78935F",
"(.	c #040101",
"_.	c #A5B77F",
":.	c #7E9964",
"<.	c #050101",
"[.	c #360C0C",
"}.	c #A1BB7D",
"|.	c #9AAF78",
"1.	c #A5B980",
"2.	c #6F8C59",
"3.	c #040000",
"4.	c #030000",
"5.	c #A0B57F",
"6.	c #7CC464",
"7.	c #9EB07A",
"8.	c #090101",
"9.	c #7DC365",
"0.	c #0A0101",
"a.	c #91BF72",
"b.	c #A1B47C",
"c.	c #7BC464",
"d.	c #6FC65D",
"e.	c #AABD89",
"f.	c #9EB28B",
"g.	c #B3C4A1",
"h.	c #AEC18E",
"i.	c #C1D1B6",
"j.	c #CEDCCC",
"k.	c #C3D2C0",
"l.	c #3D3F5E",
"m.	c #C4D3B9",
"n.	c #C6D4C3",
"o.	c #B6C7A2",
"p.	c #AABD86",
"q.	c #AABC88",
"r.	c #9BB08E",
"s.	c #C6D5C2",
"t.	c #C8D6C2",
"u.	c #B0C297",
"v.	c #CAD8C4",
"w.	c #ACBD8B",
"x.	c #C4D3BC",
"y.	c #BDCCAE",
"z.	c #C7D6C0",
"A.	c #C1D1B4",
"B.	c #C7D6C1",
"C.	c #AEC091",
"D.	c #C6D5BF",
"E.	c #B2C398",
"F.	c #B8C9A6",
"G.	c #A6B985",
"H.	c #A6B982",
"I.	c #A1B581",
"J.	c #ACBF89",
"K.	c #91A773",
"L.	c #829B66",
"M.	c #3F435A",
"N.	c #A1B37C",
"O.	c #9EB37D",
"P.	c #A3B782",
"Q.	c #99AF78",
"R.	c #3C3E5B",
"S.	c #9DB17E",
"T.	c #3A3C59",
"U.	c #B0C18C",
"V.	c #ACBD87",
"W.	c #A8BB87",
"X.	c #B2C38F",
"Y.	c #96AC78",
"Z.	c #9BB07A",
"`.	c #92BE73",
" +	c #ABBD88",
".+	c #9CAE78",
"                                                  . . . . . . . . . . . . .                                             ",
"                                              + . @ @ @ @ @ @ @ @ @ @ @ @ @ . #                                         ",
"                                            $ . . % % % % % % % % % % % % % . .                                         ",
"                                          + . % % % % % % % % % % % % % % % % % .         & *                           ",
"                                      . . . . @ @ @ @ @ @ @ @ @ @ @ @ @ @ @ = - . . . . . ; ;     > ,                   ",
"                  ' '           . . . ) ! ~ @ @ @ @ @ @ @ @ @ @ @ @ @ @ @ @ @ @ @ @ @ @ @ . . .   { ]                   ",
"                  ^ ^         . @ @ @ @ @ @ @ @ @ @ @ @ @ @ @ @ @ @ @ @ @ @ ~ @ @ @ @ @ @ @ @ @ . ;                     ",
"          / (   _ :           . . . . . . . . . . . . . . . . . . . . . . . . . . . . . . . . . .                       ",
"          / *   _ :         < : [ }       | . . . 1 1 1 1 1 1 1 1 1 1 1 1 1 .     2 *   3 ;   ; ;                       ",
"          & *   4 4       4 5   6 7 8 8 9 . . 1 1 1 1 1 1 1 1 1 1 1 1 1 1 1 .       0   { &   0                         ",
"              0 : _     a a b (   c d e . . f f 1 1 1 1 . . 1 1 1 1 1 1 1 1 .       * & * & ; ;                         ",
"  g h 4     & i :       j _ b (       8 . k l m 1 1 1 . . . 1 1 1 1 1 1 1 1 .         0 * & 0                           ",
"  n o 4       p q     5 4 0           r . s t t u . . . v . 1 1 1 1 1 1 1 . . w     ; ; * & 0                           ",
"        j <   x y   4 4 z A           d B . . . C . . v v . 1 1 1 1 1 1 . .               & *                           ",
"        4 4   D *   E F G H           8 e r   8 . v v v v . 1 1 1 1 1 . .                                               ",
"          a a I 0 4 j J &       & *   K 8 r K L . v v v v . 1 1 1 1 1 .       #     d                                   ",
"      M N 4 4 I i x O *       0 0       P Q R . . v v v . . . . . . . . . . .       d                                   ",
"      N     4 S T J p ;     { *         d U . . v v v v . V V V V V V V V W . .     8 K       X Y                       ",
"              Z x y * &   & {           K ` . v v v  .. . V V V V V V V V V V .     K 8       ..Y                       ",
"              +.j @.;   & *               9 . v v v . . V V V V V V V V V V V . w     d d   #.$.                        ",
"              : %.{ &.  * &                 . v v . . V V V V V V V V V V V V . *.    8 K e 8                           ",
"                  =.; & *       , >         . . . -.V V V V W V V V V V V V V . .     P e P K                           ",
"                      ; ;         > *           . ;.V V V V . >.V ,.V '.>.V V V . ).  d U d !.~.                        ",
"                      ; ;           ; *         . V V V V V {.V V V V . ,.V V V . w   d U d ].].                        ",
"                      ; ;       Y X   b ;     . . V V V V V {.V V V V . ,.V V V . !.  d U d P K                         ",
"                                Y X     ; ; . . ;.V V V V V ^.>.V V V . V V V V .     d U /.                            ",
"                    8 $.      /.d         ; . ;.V V V V V V (.,.V W V . V V V V . _.  d U :.K                           ",
"                    d e       r     Y X     . ;.V V V V V V <.[.,.V V . V V V V . X   d U :.K                           ",
"                      8 $.  K 8   d Y X     . >.V V V V V V . [.>.V V . V V V V .       d :.K                           ",
"    # #               d e   P d d /.        . V V V V V V V '.;.W V V . W V V V .         d d                           ",
"      X       g }.      8 |.$.K P           . V V V V V V W . >.V ,.V <.W V V V .         d d                           ",
"            4 g 1.      8 2.d r           X . V V V V V W V . <.3.. . . V V V V . X       d d                           ",
"    I     _ :       _   d 2.|.8           !.. . V V V V V V 4.1 1 1 1 . V V V . .       , 5.d                           ",
"    : 6.4 _ :   _ j :   d d d d             7.. V V V V V V 8.1 1 1 1 . V V V .         * /                             ",
"      < 4 9.a 4 : <                           . . V V V V . 0.1 1 1 1 . V V V .       *                                 ",
"        : 6.a.4                               b.. . V V ,.. 1 1 1 1 1 . V V . .       3       & *                       ",
"          j c._                                 ).. V V V . 1 1 1 1 1 '.V V . ;     & *       * &                       ",
"          d.4                                     . V V ,.. 1 1 1 1 1 . V V . *     ; ;     ; ;                         ",
"        4 4     ;               ,   e.f.          . . . . . . 1 1 1 1 . . . . * &   ; ;   ; ;                           ",
"                ;   g.c         h.i.j.k.6         ).. l.l.l.. . . . . . .     ; ; & *     3 ;                           ",
"                  m.n.o.      ; p.q.r.s.t.          . l.l.l.l.l.l.l.l.l..     & *   * &   { &                           ",
"                u.v.w.P       0     $.K x.y.      ).. l.l.l.l.l.l.l.l.l..       0   * &   * &                           ",
"              e.z.A.& e d   * &     r     B.C.    w . l.l.l.l.l.l.l.l.l..       & * * &   * &                           ",
"              e.D.E.* K P & *       r     F.u.    ).. l.l.l.l.l.l.l.l.l..       & * 0   & *                             ",
"                    0   d G.      H.I.X Y           . l.l.l.l.l.l.l.l.l..         & J.}.  0                             ",
"                    ; ; d G.      K.  L.Y           . M.l.l.l.l.l.l.l.l.. N.        }.g   0                             ",
"                    3 b O.O.    P.Q.  r             . R.l.l.l.l.l.l.l.l.. !.:     _ :       4                           ",
"                    ; ; 0 8 K b S.K 8 K             . T.l.l.l.l.l.l.l.l..   < 4   _ :     4 4                           ",
"                      U.V.r & W.d K 8               . T.l.l.l.l.l.l.l.l..     4 4 _ :   4 a                             ",
"                    & X.* 8 H.Y.K d d             _.. . l.l.l.l.l.l.l.l..     : h _ :   5 4                             ",
"                    ; U.* Y.H.r K 8                   . . l.l.l.l.l.l.l.. #   _ h _ : h :                               ",
"                    & 3 ; e.Z.8 P d                   $ . l.l.l.l.l.l.. .       : ' j <                                 ",
"                    & &.* G.U U e                       . l.l.l.l.l.l.. X       `.j _ :                                 ",
"                    & &.*  +:.U d             . . . . . . . . . . . . . . . .   : _ 4 4                                 ",
"                          K :./.        . . . . . . . . . . . . . . . . . . . . . .                                     ",
"                            d /.      . . . . . . . . . . . . . . . . . . . . . . . .                                   ",
"                                        . . . . . . . . . . . . . . . . . . . . . . !.                                  ",
"                                              . . . . . . . . . . . . . . . .                                           ",
"                                                    w .+  ).                                                            ",
"                                                                                                                        "};
