/* XPM */
static char * fR_xpm[] = {
"60 60 191 2",
"  	c #A6B980",
". 	c #000000",
"+ 	c #A5B880",
"@ 	c #EFB145",
"# 	c #A0B37B",
"$ 	c #AA1212",
"% 	c #A3B57D",
"& 	c #A8BB83",
"* 	c #A8BA82",
"= 	c #ADBF89",
"- 	c #EFB045",
"; 	c #EEB045",
"> 	c #AABD85",
", 	c #ABBE87",
"' 	c #A7BA82",
") 	c #9ABD78",
"! 	c #EDB046",
"~ 	c #EDB045",
"{ 	c #EFB146",
"] 	c #AEC08A",
"^ 	c #A8BB82",
"/ 	c #94BE74",
"( 	c #AEC08B",
"_ 	c #A9BC84",
": 	c #A0BB7C",
"< 	c #8CC06F",
"[ 	c #92BF72",
"} 	c #C9D7C4",
"| 	c #C0D0BD",
"1 	c #A3B67E",
"2 	c #BD8989",
"3 	c #AFC18C",
"4 	c #97BD76",
"5 	c #79C463",
"6 	c #B9C9A7",
"7 	c #C2D1BA",
"8 	c #8BA36D",
"9 	c #A4B67E",
"0 	c #89C16D",
"a 	c #ACBE87",
"b 	c #BACAAA",
"c 	c #96AC75",
"d 	c #91A771",
"e 	c #BC7777",
"f 	c #92BF73",
"g 	c #88C16C",
"h 	c #A9C086",
"i 	c #80C367",
"j 	c #A0B47C",
"k 	c #BA5D5D",
"l 	c #BA5E5E",
"m 	c #BB6464",
"n 	c #9BBC79",
"o 	c #87C16C",
"p 	c #A6BE82",
"q 	c #97C279",
"r 	c #849C67",
"s 	c #A4B77F",
"t 	c #FEF2F2",
"u 	c #BC8282",
"v 	c #BB6161",
"w 	c #180606",
"x 	c #86C46C",
"y 	c #A4C183",
"z 	c #A8C086",
"A 	c #A1BC7E",
"B 	c #7B9661",
"C 	c #1C0808",
"D 	c #87C46D",
"E 	c #84C26A",
"F 	c #75C762",
"G 	c #96C57A",
"H 	c #9FBB7B",
"I 	c #85C26A",
"J 	c #9DC37F",
"K 	c #8AA26D",
"L 	c #879F69",
"M 	c #A5B97F",
"N 	c #A6B97F",
"O 	c #9ABE79",
"P 	c #7E9864",
"Q 	c #A1B47C",
"R 	c #76C561",
"S 	c #90C173",
"T 	c #390E0E",
"U 	c #3A0E0E",
"V 	c #99AE77",
"W 	c #69C859",
"X 	c #FBEFEF",
"Y 	c #89A16B",
"Z 	c #75C561",
"` 	c #B0C28E",
" .	c #7F9964",
"..	c #69C759",
"+.	c #AEBF8A",
"@.	c #A0B27B",
"#.	c #B1C28D",
"$.	c #3A120F",
"%.	c #A9BB86",
"&.	c #380D0D",
"*.	c #020000",
"=.	c #370D0D",
"-.	c #390D0D",
";.	c #88A06B",
">.	c #A5B87F",
",.	c #A1B57C",
"'.	c #A8BB84",
").	c #160303",
"!.	c #92A871",
"~.	c #0E0202",
"{.	c #78935F",
"].	c #A5B77F",
"^.	c #040101",
"/.	c #7E9964",
"(.	c #96AB75",
"_.	c #360C0C",
":.	c #050101",
"<.	c #A1BB7D",
"[.	c #9AAF78",
"}.	c #A5B980",
"|.	c #6F8C59",
"1.	c #040000",
"2.	c #030000",
"3.	c #A0B57F",
"4.	c #7CC464",
"5.	c #090101",
"6.	c #A3B580",
"7.	c #7DC365",
"8.	c #0A0101",
"9.	c #91BF72",
"0.	c #7BC464",
"a.	c #A2B57D",
"b.	c #6FC65D",
"c.	c #AABD89",
"d.	c #9EB28B",
"e.	c #B3C4A1",
"f.	c #AEC18E",
"g.	c #C1D1B6",
"h.	c #CEDCCC",
"i.	c #C3D2C0",
"j.	c #3D3F5E",
"k.	c #C4D3B9",
"l.	c #C6D4C3",
"m.	c #B6C7A2",
"n.	c #AABD86",
"o.	c #AABC88",
"p.	c #9BB08E",
"q.	c #C6D5C2",
"r.	c #C8D6C2",
"s.	c #B0C297",
"t.	c #CAD8C4",
"u.	c #ACBD8B",
"v.	c #C4D3BC",
"w.	c #BDCCAE",
"x.	c #C7D6C0",
"y.	c #C1D1B4",
"z.	c #C7D6C1",
"A.	c #AEC091",
"B.	c #C6D5BF",
"C.	c #B2C398",
"D.	c #B8C9A6",
"E.	c #9FB27B",
"F.	c #A6B985",
"G.	c #A6B982",
"H.	c #A1B581",
"I.	c #7A9561",
"J.	c #ACBF89",
"K.	c #91A773",
"L.	c #829B66",
"M.	c #A1B37C",
"N.	c #3F435A",
"O.	c #9EB37D",
"P.	c #A3B782",
"Q.	c #99AF78",
"R.	c #3C3E5B",
"S.	c #9DB17E",
"T.	c #3A3C59",
"U.	c #B0C18C",
"V.	c #ACBD87",
"W.	c #A8BB87",
"X.	c #B2C38F",
"Y.	c #96AC78",
"Z.	c #75925E",
"`.	c #9BB07A",
" +	c #8BA26C",
".+	c #678754",
"++	c #94AA73",
"@+	c #7C9762",
"#+	c #92BE73",
"$+	c #ABBD88",
"%+	c #9CAE78",
"                                            . . . . . . . . . . . . .                                                   ",
"                                        + . @ @ @ @ @ @ @ @ @ @ @ @ @ . #                                               ",
"                                        . . $ $ $ $ $ $ $ $ $ $ $ $ $ . . %                                             ",
"                                      . $ $ $ $ $ $ $ $ $ $ $ $ $ $ $ $ $ . # & &         * =                           ",
"                              . . . . . - ; @ @ @ @ @ @ @ @ @ @ @ @ @ @ @ . . . .         > >     , '                   ",
"                  ) )   . . . @ @ @ @ @ @ @ @ @ @ @ @ @ @ @ @ @ @ @ @ @ @ @ ! ~ { . . .   = *     ] ^                   ",
"                  / / . @ @ @ @ @ @ @ @ @ ! @ @ @ @ @ @ @ @ @ @ @ @ @ @ @ @ @ @ @ @ @ @ . (     > >                     ",
"          _ &   : <   . . . . . . . . . . . . . . . . . . . . . . . . . . . . . . . . . . =   > >                       ",
"          _ =   : <         [ < } | 1     . 2 2 2 2 2 2 2 2 2 2 2 2 2 . . .       * =   3 >   > >                       ",
"          * =   4 4       4 5   6 7 8 8   . 2 2 2 2 2 2 2 2 2 2 2 2 2 2 2 . . 9     (   ] *   (                         ",
"              ( < :     0 0 a &   b c d   . 2 2 2 2 2 2 2 2 . . 2 2 2 2 e e . .     = * = * > >                         ",
"  f g 4     * h <       i : a &       8 j . 2 2 2 2 2 2 2 2 . . . 2 2 2 k l m .       ( = * (                           ",
"  n o 4       p q     5 4 (           r s . . 2 2 2 2 2 2 2 . t . . . u v v w .     > > = * (                           ",
"        i [   x y   4 4 z A           c B c . . 2 2 2 2 2 2 . t t . . C . . .             * =                           ",
"        4 4   D =   E F G H           8 d r   . . 2 2 2 2 2 . t t t t .                                                 ",
"          0 0 I ( 4 i J *       * =   j K r j L . 2 2 2 2 2 . t t t t . 9           c                                   ",
"      M N 4 4 I h x O =       ( (       P . . . . . . . . . . . t t t . . Q         c                                   ",
"      N     4 R S J p >     ] =         . . T U U U U U U U U . t t t t . .         8 j       1 V                       ",
"              W x y = *   * ]           . U U U U U U U U U U . . X t t t . Q       j 8       Y V                       ",
"              Z i ` >   * =           s . U U U U U U U U U U U . . t t t . 9         c c    .L                         ",
"              < ..] +.  = *           @.. U U U U U U U U U U U U . . t t .           8 j d 8                           ",
"                  #.> * =       ' ,   . . U U U U U U U U T U U U U $.. . .           P d P j                           ",
"                      > >         , %.. U U U &.*.U =.U &.. U U U U -..               c ;.c >.,.                        ",
"                      > >           '.. U U U =.. U U U U ).U U U U U .               c ;.c !.!.                        ",
"                      > >       V 1 >.. U U U =.. U U U U ).U U U U U . .             c ;.c P j                         ",
"                                V 1   . U U U U . U U U &.~.U U U U U -.. .           c ;.{.                            ",
"                    8 L       {.c   ].. U U U U . U T U =.^.U U U U U U -..           c ;./.j                           ",
"                    c d       r     (.. U U U U . U U =._.:.U U U U U U -..           c ;./.j                           ",
"                      8 L   j 8   c V . U U U U . U U &._.. U U U U U U &.. f           c /.j                           ",
"                      c d   P c c {.  . U U U T . U U T -.*.U U U U U U U . <.            c c                   + +     ",
"              f <.      8 [.L j P     . U U U T :.U =.U &.. T U U U U U U .               c c                   1       ",
"            4 f }.      8 |.c r     1 . U U U U . . . 1.:.. U T U U U U U . 1             c c                           ",
"    I     : <       :   c |.[.8       . . U U U . 2 2 2 2 2.U U U U U U . . >.          ' 3.c                           ",
"    < 4.4 : <   : i <   c c c c         . U U U . 2 2 2 2 5.U U U U U U . 6.            = _                             ",
"      [ 4 7.0 4 < [                     . U U U . 2 2 2 2 8.. U U U U . . a           =                                 ",
"        < 4.9.4                         . . U U . 2 2 2 2 2 . =.U U . . Q   (         3       * =                       ",
"          i 0.:                           . U U *.2 2 2 2 2 . U U U . a.    > >     * =       = *                       ",
"          b.4                             . U U . 2 2 2 2 2 . =.U U .       * =     > >     > >                         ",
"        4 4     >               '   c.d.  . . . . 2 2 2 2 . . . . . .         = *   > >   > >                           ",
"                >   e.b         f.g.h.i.6     . . . . . . . j.j.j.. a.        > > * =     3 >                           ",
"                  k.l.m.      > n.o.p.q.r.    . j.j.j.j.j.j.j.j.j..           * =   = *   ] *                           ",
"                s.t.u.P       (     L j v.w.  . j.j.j.j.j.j.j.j.j.. a.          (   = *   = *                           ",
"              c.x.y.* d c   = *     r     z.A.. j.j.j.j.j.j.j.j.j.. s           * = = *   = *                           ",
"              c.B.C.= j P * =       r     D.s.. j.j.j.j.j.j.j.j.j.. E.1         * = (   * =                             ",
"                    (   c F.      G.H.1 V     . j.j.j.j.j.j.j.j.j.. I.V           * J.<.  (                             ",
"                    > > c F.      K.  L.V   M.. j.j.j.j.j.j.j.j.N.. 8 j             <.f   (                             ",
"                    3 a O.O.    P.Q.  r     >.. j.j.j.j.j.j.j.j.R.. c       <     : <       4                           ",
"                    > > ( 8 j a S.j 8 j       . j.j.j.j.j.j.j.j.T.. j       [ 4   : <     4 4                           ",
"                      U.V.r * W.c j 8         . j.j.j.j.j.j.j.j.T..           4 4 : <   4 0                             ",
"                    * X.= 8 G.Y.j c c         . j.j.j.j.j.j.j.j.. . E.L       < g : <   5 4                             ",
"                    > U.= Y.G.r j 8         + . j.j.j.j.j.j.j.. . c Z.L       : g : < g <                               ",
"                    * 3 > c.`.8 P c           . . j.j.j.j.j.j.. ;. +.+          < ) i [                                 ",
"                    * +.= F.;.;.d             1 . j.j.j.j.j.j..   ++@+          #+i : <                                 ",
"                    * +.= $+/.;.c         . . . . . . . . . . . . . . . .       < : 4 4                                 ",
"                          j /.{.    . . . . . . . . . . . . . . . . . . . . . .                                         ",
"                            c {.  . . . . . . . . . . . . . . . . . . . . . . . .                                       ",
"                                  >.. . . . . . . . . . . . . . . . . . . . . .                                         ",
"                                          . . . . . . . . . . . . . . . .                                               ",
"                                                            a.  %+s                                                     ",
"                                                                                                                        "};
