/* XPM */
static char * fU_xpm[] = {
"60 60 239 2",
"  	c #A6B980",
". 	c #000000",
"+ 	c #090501",
"@ 	c #12150B",
"# 	c #A5B87F",
"$ 	c #EEB044",
"% 	c #EFB145",
"& 	c #F0B245",
"* 	c #EEB145",
"= 	c #EDAE44",
"- 	c #A4B77F",
"; 	c #AA1212",
"> 	c #AB1513",
", 	c #AB1713",
"' 	c #AB1913",
") 	c #AA1613",
"! 	c #AA1312",
"~ 	c #AA1412",
"{ 	c #AB1313",
"] 	c #A8BA82",
"^ 	c #ADBF89",
"/ 	c #A5B880",
"( 	c #180000",
"_ 	c #EEB045",
": 	c #EFB245",
"< 	c #EFB144",
"[ 	c #0A0D06",
"} 	c #0A0C06",
"| 	c #15190E",
"1 	c #AABD85",
"2 	c #ABBE87",
"3 	c #A7BA82",
"4 	c #9ABD78",
"5 	c #EDB249",
"6 	c #040200",
"7 	c #AEC08A",
"8 	c #A8BB82",
"9 	c #94BE74",
"0 	c #EEB34D",
"a 	c #EDB044",
"b 	c #ECB047",
"c 	c #EEB349",
"d 	c #A9BC84",
"e 	c #A8BB83",
"f 	c #A0BB7C",
"g 	c #8CC06F",
"h 	c #BD8989",
"i 	c #92BF72",
"j 	c #C9D7C4",
"k 	c #C0D0BD",
"l 	c #A0B27B",
"m 	c #AFC18C",
"n 	c #97BD76",
"o 	c #79C463",
"p 	c #B9C9A7",
"q 	c #C2D1BA",
"r 	c #8BA36D",
"s 	c #BC8888",
"t 	c #AEC08B",
"u 	c #89C16D",
"v 	c #ACBE87",
"w 	c #BACAAA",
"x 	c #96AC75",
"y 	c #91A771",
"z 	c #A6B780",
"A 	c #92BF73",
"B 	c #88C16C",
"C 	c #A9C086",
"D 	c #80C367",
"E 	c #9BBC79",
"F 	c #87C16C",
"G 	c #A6BE82",
"H 	c #97C279",
"I 	c #98AA75",
"J 	c #849C67",
"K 	c #9AAB78",
"L 	c #86C46C",
"M 	c #A4C183",
"N 	c #A8C086",
"O 	c #A1BC7E",
"P 	c #FEF3F3",
"Q 	c #BE8A8A",
"R 	c #BD8888",
"S 	c #020201",
"T 	c #87C46D",
"U 	c #84C26A",
"V 	c #75C762",
"W 	c #96C57A",
"X 	c #9FBB7B",
"Y 	c #FEF2F2",
"Z 	c #050404",
"` 	c #BE8989",
" .	c #85C26A",
"..	c #9DC37F",
"+.	c #9DAD7C",
"@.	c #BF8B8B",
"#.	c #C08C8C",
"$.	c #010101",
"%.	c #E7DCDC",
"&.	c #96A874",
"*.	c #A5B97F",
"=.	c #A6B97F",
"-.	c #9ABE79",
";.	c #0B0E07",
">.	c #050703",
",.	c #BB8888",
"'.	c #020202",
").	c #010201",
"!.	c #76C561",
"~.	c #90C173",
"{.	c #79875C",
"].	c #7B9060",
"^.	c #FFF3F3",
"/.	c #0D0C0C",
"(.	c #BD8A8A",
"_.	c #BF8A8A",
":.	c #BB8C8C",
"<.	c #0A0909",
"[.	c #64714D",
"}.	c #8AA26C",
"|.	c #9FB27B",
"1.	c #A3B67E",
"2.	c #99AE77",
"3.	c #69C859",
"4.	c #030202",
"5.	c #080707",
"6.	c #89A16B",
"7.	c #75C561",
"8.	c #B0C28E",
"9.	c #A4B77E",
"0.	c #3A0E0E",
"a.	c #3B100F",
"b.	c #390D0D",
"c.	c #360D0D",
"d.	c #380D0D",
"e.	c #390E0E",
"f.	c #3A0F0E",
"g.	c #3A100F",
"h.	c #3B1210",
"i.	c #7C9662",
"j.	c #879F69",
"k.	c #69C759",
"l.	c #AEBF8A",
"m.	c #A2B47C",
"n.	c #A2B47D",
"o.	c #B1C28D",
"p.	c #A1B57C",
"q.	c #370D0D",
"r.	c #92A871",
"s.	c #A0B47C",
"t.	c #380E0E",
"u.	c #3B0F0F",
"v.	c #A4B67E",
"w.	c #7A9461",
"x.	c #A1BB7D",
"y.	c #9AAF78",
"z.	c #7F9663",
"A.	c #3A110F",
"B.	c #3B1010",
"C.	c #3B1110",
"D.	c #3A0F0F",
"E.	c #A5B980",
"F.	c #6F8C59",
"G.	c #150303",
"H.	c #BC8988",
"I.	c #7CC464",
"J.	c #BB8A88",
"K.	c #7DC365",
"L.	c #91BF72",
"M.	c #7BC464",
"N.	c #6FC65D",
"O.	c #A3B57D",
"P.	c #370C0C",
"Q.	c #3C1010",
"R.	c #360A0A",
"S.	c #BB8B88",
"T.	c #BD8B89",
"U.	c #B3C4A1",
"V.	c #40425E",
"W.	c #3D3F5E",
"X.	c #3E405E",
"Y.	c #150D0D",
"Z.	c #C4D3B9",
"`.	c #C6D4C3",
" +	c #B6C7A2",
".+	c #AABD86",
"++	c #AABC88",
"@+	c #9AAF8D",
"#+	c #C6D5C2",
"$+	c #C8D6C2",
"%+	c #3F415E",
"&+	c #ABBD88",
"*+	c #A5B67F",
"=+	c #A7B985",
"-+	c #B0C297",
";+	c #CAD8C4",
">+	c #ACBD8B",
",+	c #7E9864",
"'+	c #C4D3BC",
")+	c #BDCCAE",
"!+	c #AABD89",
"~+	c #C7D6C0",
"{+	c #C1D1B4",
"]+	c #C7D6C1",
"^+	c #C6D5BF",
"/+	c #B2C398",
"(+	c #B8C9A6",
"_+	c #A6B985",
":+	c #A6B982",
"<+	c #A1B581",
"[+	c #ACBF89",
"}+	c #91A773",
"|+	c #829B66",
"1+	c #9EB37D",
"2+	c #A3B782",
"3+	c #99AF78",
"4+	c #9DB17E",
"5+	c #B0C18C",
"6+	c #ACBD87",
"7+	c #A8BB87",
"8+	c #A2BA7E",
"9+	c #98BD77",
"0+	c #B2C38F",
"a+	c #A2B67E",
"b+	c #A2B67D",
"c+	c #A3BA7E",
"d+	c #9CBC7A",
"e+	c #96AC78",
"f+	c #9EB27A",
"g+	c #9BBC78",
"h+	c #A2BA7D",
"i+	c #9BB07A",
"j+	c #88A06B",
"k+	c #45495F",
"l+	c #95BE74",
"m+	c #A4BA7E",
"n+	c #7E9964",
"o+	c #78935F",
"p+	c #839B67",
"                                                  . . . . . . . . . . . + @                                             ",
"                                              # . $ % & % * % % & % & & = & .                                           ",
"                                            - . . ; ; ; ; ; ; ; ; ; > , ; ' . .                                         ",
"                                    #     - . ) ; ; ; ; ) ) ' ; ! ~ ; { ; ; ; ! .         ] ^                           ",
"                                    / . . . ( % % _ = : & & & & % % % % % & & < [ } @ @ | 1 1     2 3                   ",
"                  4 4           . . . & & % & & & & & & 5 & & & & & : & & & & & % : % & & 6 . .   7 8                   ",
"                  9 9         . & & 0 & $ a & < % % % b . . . . . . . . b % & & & & % & & c & & . 1                     ",
"          d e   f g           . . . . . . . . . . . . . . h h h h h h . . . . . . . . . . . . . .                       ",
"          d ^   f g         i g j k   / . h h h h h h h h h h h h h h h h h h h h h . l m 1   1 1                       ",
"          ] ^   n n       n o   p q r r . h h h h h h h s h h h h h h h h h h h h h . / 7 ]   t                         ",
"              t g f     u u v e   w x y . h h h h h h h h h h h h h h h h h h h h h . z ^ ] 1 1                         ",
"  A B n     ] C g       D f v e       r . h h h h h h h h h h h h h h h h h h h h h . t ^ ] t                           ",
"  E F n       G H     o n t       I . J . h h h h h h h h h h h h h h h h h h h h h . K . ] t                           ",
"        D i   L M   n n N O       . P . . h h h h h h Q h h h h h h h h h h h h h R . S P . ^                           ",
"        n n   T ^   U V W X       . P Y Z h Q h h h h Q h h h h h h h h h h h h ` Q . Y P .                             ",
"          u u  .t n D ..]       ] +.. Y Y . @.Q h h @.h h h h h h h h h h h h Q #.$.%.Y . &.                            ",
"      *.=.n n  .C L -.^       t t     ;.. >.. . Z ,.h h ` h h ` h h h h h h '.. . . )..                                 ",
"      =.    n !.~...G 1     7 ^       {.x ].. ^./.h h h @.(.(.@.h _.h h h :.<.^.. [.}.|.      1.2.                      ",
"              3.L M ^ ]   ] 7     . . . . . . . . . . . $.4.. . 5.. . . . . . . . . . . .     6.2.                      ",
"              7.D 8.1   ] ^   9.. . 0.a.0.0.0.0.0.0.0.0.b.c.c.d.e.0.0.0.f.g.h.0.0.0.0.h.. . i.j.                        ",
"              g k.7 l.  ^ ] m.. . 0.0.0.0.0.0.0.0.0.0.0.0.0.0.0.0.0.0.0.0.0.0.0.0.0.0.0.0.. . n.                        ",
"                  o.1 ] ^   m.. 0.0.0.0.0.0.0.0.0.0.0.0.0.0.0.0.0.0.0.0.0.0.0.0.0.0.0.0.0.0..                           ",
"                      1 1     . 0.0.0.0.0.0.0.0.0.0.0.0.0.0.0.0.0.0.0.0.0.0.0.0.0.0.0.0.0.0.. p.                        ",
"                      1 1     . q.0.0.0.. e.0.0.0.0.0.0.0.0.0.0.0.0.0.0.0.0.0.0.0.. 0.0.0.0.. r.                        ",
"                      1 1     . e.0.0.d.. g.0.0.0.0.0.0.0.0.0.0.0.0.0.0.0.0.0.0.0.. 0.0.0.0.. s.                        ",
"                              . t.0.0.e.. 0.0.0.0.0.0.0.0.0.0.0.0.0.0.0.0.0.0.0.0.. 0.0.0.0..                           ",
"                    r j.      . 0.0.0.e.. e.0.0.0.0.0.0.0.0.0.0.0.0.0.0.0.0.0.0.0.. 0.0.0.0.. 1.                        ",
"                    x y       . 0.0.0.0.. 0.0.0.0.0.0.0.0.0.0.0.0.0.0.0.0.0.0.0.0.. 0.0.0.0.. 1.                        ",
"                      r j.  s.. u.0.0.a.. 0.0.0.0.0.0.0.0.0.0.0.0.0.0.0.0.0.0.0.0.. 0.0.0.0.. v.                        ",
"                      x y   w.. 0.0.0.0.. f.0.0.0.0.0.0.0.0.0.0.0.0.0.0.0.0.0.0.0.. 0.0.0.0.. 1.                        ",
"              A x.      r y.z.. A.0.B.C.. 0.0.0.0.0.0.0.0.0.0.0.0.0.0.0.0.0.0.0.f.. D.0.0.g..                           ",
"            n A E.      r F.x . . . . . . f.0.0.0.0.0.0.0.0.0.0.0.0.0.0.0.0.0.0.0.. . . . G.. 1.                        ",
"     .    f g       f   x F.. . h h h h . 0.0.0.0.0.0.0.0.0.0.0.0.0.0.0.0.0.0.0.0.. H.H.h h . .                         ",
"    g I.n f g   f D g   x x . h h h h s . 0.0.0.0.0.0.0.0.0.0.0.0.0.0.0.0.0.0.0.0.. J.h h h h .                         ",
"      i n K.u n g i         . h h h h h . . 0.0.0.0.0.0.0.0.0.0.0.0.0.0.0.0.0.0.. . h h h h h . /                       ",
"        g I.L.n             . H.h h h h H.. h.0.0.0.0.0.0.0.0.0.0.0.0.0.0.0.0.0.. h h h h h h . ^                       ",
"          D M.f           m.. h h h h . h . 0.0.0.0.0.0.0.0.0.0.0.0.0.0.0.0.b.0.. h . h h h h . ]                       ",
"          N.n             O.. h h h h . . . . P.0.0.0.0.0.Q.0.0.u.0.0.0.0.u.R.. . . . h h h h .                         ",
"        n n     1         O.. . . S.T.. O.  . . . . . . . . . . . . . . . . . . .   . h h . . .                         ",
"                1   U.w         . . . . p   . V.W.W.W.W.W.W.W.. X.W.W.W.W.W.W.. 1 ] . Y.. . 1 /                         ",
"                  Z.`. +      1 .+++@+#+$+  . %+W.W.W.W.W.W.W.. W.W.W.W.W.W.W.. &+  ^ *+# =+]                           ",
"                -+;+>+,+      t     j.s.'+)+. X.W.W.W.W.W.W.W.. X.W.W.W.W.W.W.. t   ^ ]   ^ ]                           ",
"              !+~+{+] y x   ^ ]     J     ]+. W.W.W.W.W.W.W.W.. W.W.W.W.W.W.W.. ] ^ ^ ]   ^ ]                           ",
"              !+^+/+^ s.,+] ^       J     (+. W.W.W.W.W.W.W.X.. W.W.W.W.W.W.W.. ] ^ t   ] ^                             ",
"                    t   x _+      :+<+1.2.  . W.W.W.W.W.W.W.X.. X.W.W.W.W.W.W.. - ] [+x.  t                             ",
"                    1 1 x _+      }+  |+2.  . W.W.W.W.W.W.W.W.. W.W.W.W.W.W.W.. /   x.A   t                             ",
"                    m v 1+1+    2+3+  J   / . W.W.W.W.W.W.W.W.. W.W.W.W.W.W.W.. / f g       n                           ",
"                    1 1 t r s.v 4+s.r s.    . W.W.W.W.W.W.W.W.. W.W.W.W.W.W.W..   f g     n n                           ",
"                      5+6+J ] 7+x s.r       . W.W.W.W.W.W.W.X.. W.W.W.W.W.W.%+. n f g   8+9+                            ",
"                    ] 0+^ r :+a+# b+b+    - . W.W.W.W.W.W.W.W.. W.W.W.W.W.W.W.. c+      d+X                             ",
"                    1 5+^ e+:+f+# s.      9.. . W.W.W.W.W.W.W.. W.W.W.W.W.W.. . g+h+g B g                               ",
"                    ] m 1 !+i+r ,+x           . . W.W.W.W.W.W.. W.W.W.W.W.. .   g 4 D i                                 ",
"                    ] l.^ _+j+j+y               . W.W.W.W.W.W.. W.W.W.W.k+.     d+l+m+4                                 ",
"                    ] l.^ &+n+j+x             . . . . . . . . . . . . . . . .         8+                                ",
"                          s.n+o+        . . . . . . . . . . . . . . . . . . . . . .                                     ",
"                            x p+      . . . . . . . . . . . . . . . . . . . . . . . .                                   ",
"                                        . . . . . . . . . . . . . . . . . . . . . .                                     ",
"                                              . . . . . . . . . . . . . . . .                                           ",
"                                                -                 # # #                                                 ",
"                                                                                                                        "};
