/* XPM */
static char * cow_xpm[] = {
"60 60 448 2",
"  	c #A6B980",
". 	c #96A874",
"+ 	c #A4B77F",
"@ 	c #98AA75",
"# 	c #363E28",
"$ 	c #576242",
"% 	c #6D7A53",
"& 	c #000000",
"* 	c #5F6A48",
"= 	c #9EB17A",
"- 	c #79875C",
"; 	c #3D452D",
"> 	c #13170C",
", 	c #12150B",
"' 	c #10130A",
") 	c #353C27",
"! 	c #5E6A48",
"~ 	c #999E61",
"{ 	c #9CA163",
"] 	c #292A16",
"^ 	c #8D9056",
"/ 	c #292F1E",
"( 	c #8FA06E",
"_ 	c #4E583B",
": 	c #020301",
"< 	c #222718",
"[ 	c #849365",
"} 	c #C3C779",
"| 	c #C5C97A",
"1 	c #495337",
"2 	c #2A301E",
"3 	c #B5B970",
"4 	c #C2C678",
"5 	c #212617",
"6 	c #889868",
"7 	c #A8BB83",
"8 	c #A8BA82",
"9 	c #ADBF89",
"0 	c #030402",
"a 	c #2F3522",
"b 	c #454E34",
"c 	c #C6CA7A",
"d 	c #1B2013",
"e 	c #95A672",
"f 	c #464F34",
"g 	c #AEB26B",
"h 	c #BEC377",
"i 	c #A6AA66",
"j 	c #A3B67E",
"k 	c #AABD85",
"l 	c #ABBE87",
"m 	c #A7BA82",
"n 	c #708A56",
"o 	c #0E1408",
"p 	c #161A0F",
"q 	c #171B0F",
"r 	c #94995E",
"s 	c #919458",
"t 	c #696D42",
"u 	c #B6BA70",
"v 	c #6C7045",
"w 	c #363D28",
"x 	c #1E1F0E",
"y 	c #BFC477",
"z 	c #C1C577",
"A 	c #868952",
"B 	c #2B311F",
"C 	c #2C3220",
"D 	c #0C0F07",
"E 	c #89986C",
"F 	c #7A885E",
"G 	c #AEC08A",
"H 	c #A8BB82",
"I 	c #6B8B53",
"J 	c #25321B",
"K 	c #040502",
"L 	c #BBBF74",
"M 	c #BEC275",
"N 	c #C5C979",
"O 	c #60633A",
"P 	c #010101",
"Q 	c #4D5639",
"R 	c #9AAB78",
"S 	c #A9BC84",
"T 	c #A0BB7C",
"U 	c #7FAE64",
"V 	c #4D573A",
"W 	c #050603",
"X 	c #555732",
"Y 	c #8F9257",
"Z 	c #B4B76E",
"` 	c #5A5C35",
" .	c #020201",
"..	c #6C7953",
"+.	c #8CC06F",
"@.	c #12190B",
"#.	c #050703",
"$.	c #76845C",
"%.	c #97BD76",
"&.	c #97A196",
"*.	c #E2E4DF",
"=.	c #FDFDFD",
"-.	c #FEFEFD",
";.	c #DCDCDC",
">.	c #FFFFFF",
",.	c #C4C6C3",
"'.	c #535D3E",
").	c #AEC08B",
"!.	c #466637",
"~.	c #040503",
"{.	c #FEFFFE",
"].	c #FCFCFC",
"^.	c #E3E3E3",
"/.	c #12130F",
"(.	c #F3F4F2",
"_.	c #F4F4F4",
":.	c #0C1407",
"<.	c #92BF73",
"[.	c #88C16C",
"}.	c #A9C086",
"|.	c #80C367",
"1.	c #364128",
"2.	c #1B1F12",
"3.	c #080B05",
"4.	c #B2B2B2",
"5.	c #FFFFFE",
"6.	c #FBFBFB",
"7.	c #E3E4E3",
"8.	c #F9F9F9",
"9.	c #FDFEFD",
"0.	c #EDF4EB",
"a.	c #1C2014",
"b.	c #5F6B48",
"c.	c #9BBC79",
"d.	c #87C16C",
"e.	c #A6BE82",
"f.	c #97C279",
"g.	c #79C463",
"h.	c #D5D9D1",
"i.	c #FCFCFB",
"j.	c #F9FAF8",
"k.	c #010100",
"l.	c #060703",
"m.	c #FEFEFE",
"n.	c #BABBB9",
"o.	c #F3F5F0",
"p.	c #F9FBF8",
"q.	c #E1E4E1",
"r.	c #0E1208",
"s.	c #10140A",
"t.	c #0F1209",
"u.	c #080A05",
"v.	c #748159",
"w.	c #92BF72",
"x.	c #86C46C",
"y.	c #A4C183",
"z.	c #A8C086",
"A.	c #A1BC7E",
"B.	c #F8F9F7",
"C.	c #010201",
"D.	c #B9BEB2",
"E.	c #D7D9D4",
"F.	c #292929",
"G.	c #FDFDFC",
"H.	c #ECF5EA",
"I.	c #181C10",
"J.	c #F0F0F0",
"K.	c #565852",
"L.	c #87C46D",
"M.	c #84C26A",
"N.	c #75C762",
"O.	c #96C57A",
"P.	c #738858",
"Q.	c #EEEFEC",
"R.	c #0D1108",
"S.	c #F7F7F7",
"T.	c #EEEFED",
"U.	c #0D1008",
"V.	c #B5B7B4",
"W.	c #9C9C9A",
"X.	c #F3F4F1",
"Y.	c #3F472F",
"Z.	c #89C16D",
"`.	c #85C26A",
" +	c #9DC37F",
".+	c #101409",
"++	c #D1D2CF",
"@+	c #C0C4BB",
"#+	c #A5B97F",
"$+	c #A6B97F",
"%+	c #9ABE79",
"&+	c #191D11",
"*+	c #E9E9E8",
"=+	c #76C561",
"-+	c #90C173",
";+	c #080A04",
">+	c #ECEDEA",
",+	c #99AE77",
"'+	c #69C859",
")+	c #98A975",
"!+	c #BABCB9",
"~+	c #FBFBFA",
"{+	c #7E7F7C",
"]+	c #89A16B",
"^+	c #75C561",
"/+	c #B0C28E",
"(+	c #4E573B",
"_+	c #1D2114",
":+	c #E0E0E0",
"<+	c #CFD5C7",
"[+	c #7F9964",
"}+	c #879F69",
"|+	c #69C759",
"1+	c #AEBF8A",
"2+	c #7E8B63",
"3+	c #CBCFC5",
"4+	c #060804",
"5+	c #0B0B0B",
"6+	c #F6F6F5",
"7+	c #7E9462",
"8+	c #B1C28D",
"9+	c #586243",
"0+	c #526440",
"a+	c #3B462D",
"b+	c #28321E",
"c+	c #5B6745",
"d+	c #596445",
"e+	c #D1D5CC",
"f+	c #F1F2F1",
"g+	c #3A422B",
"h+	c #C7CAC3",
"i+	c #212717",
"j+	c #0D1007",
"k+	c #535E3F",
"l+	c #A1B57C",
"m+	c #4F593D",
"n+	c #D7DCCD",
"o+	c #0B0C0A",
"p+	c #B46BB9",
"q+	c #B270B5",
"r+	c #0B0D06",
"s+	c #E8E8E8",
"t+	c #FBFCFB",
"u+	c #7A7A7A",
"v+	c #6C7C53",
"w+	c #92A871",
"x+	c #E7EAE2",
"y+	c #050505",
"z+	c #AD6DB1",
"A+	c #B567BB",
"B+	c #B568BA",
"C+	c #010001",
"D+	c #070904",
"E+	c #0D1107",
"F+	c #0E1108",
"G+	c #E6E6E5",
"H+	c #C1C2BF",
"I+	c #445335",
"J+	c #A0B47C",
"K+	c #B46AB9",
"L+	c #020401",
"M+	c #B266B7",
"N+	c #181116",
"O+	c #202A18",
"P+	c #7F8E62",
"Q+	c #64764E",
"R+	c #4C5A3A",
"S+	c #090C05",
"T+	c #AA6FAC",
"U+	c #060206",
"V+	c #0B0B08",
"W+	c #A362A8",
"X+	c #150715",
"Y+	c #0E040E",
"Z+	c #A55FAC",
"`+	c #D9D9D9",
" @	c #27311D",
".@	c #6D7C54",
"+@	c #4E5B3C",
"@@	c #485437",
"#@	c #000100",
"$@	c #100511",
"%@	c #0F0510",
"&@	c #0B050B",
"*@	c #B265B8",
"=@	c #F6F6F6",
"-@	c #8C9E6C",
";@	c #2C3521",
">@	c #1F2416",
",@	c #EEEEED",
"'@	c #B165B7",
")@	c #AF63B5",
"!@	c #B366B9",
"~@	c #B366BA",
"{@	c #B266B8",
"]@	c #ECECEC",
"^@	c #404F32",
"/@	c #191E11",
"(@	c #242A1A",
"_@	c #F9F9F8",
":@	c #030301",
"<@	c #140815",
"[@	c #190B1A",
"}@	c #0A1006",
"|@	c #CCCDCC",
"1@	c #889D6A",
"2@	c #A1BB7D",
"3@	c #3E462E",
"4@	c #0B0E06",
"5@	c #161716",
"6@	c #0F0F0F",
"7@	c #0D0D0D",
"8@	c #040902",
"9@	c #0A0C05",
"0@	c #8BA06C",
"a@	c #A5B980",
"b@	c #0E1309",
"c@	c #E5E6E4",
"d@	c #F8F9F8",
"e@	c #E8EAE8",
"f@	c #F6F7F6",
"g@	c #E2E2E0",
"h@	c #EBECE9",
"i@	c #626E4B",
"j@	c #1E2415",
"k@	c #6D7D54",
"l@	c #8DA26E",
"m@	c #7CC464",
"n@	c #74B15D",
"o@	c #39512C",
"p@	c #0F1309",
"q@	c #454D33",
"r@	c #869567",
"s@	c #7DC365",
"t@	c #84AD67",
"u@	c #CBCBCB",
"v@	c #83887A",
"w@	c #91BF72",
"x@	c #303723",
"y@	c #0F120A",
"z@	c #D6D6D6",
"A@	c #171B10",
"B@	c #313824",
"C@	c #9CAE78",
"D@	c #7BC464",
"E@	c #1A1E11",
"F@	c #11140B",
"G@	c #EBEBEB",
"H@	c #94A572",
"I@	c #6FC65D",
"J@	c #11140A",
"K@	c #A4B67E",
"L@	c #252B1A",
"M@	c #15190E",
"N@	c #24281F",
"O@	c #121510",
"P@	c #0F120E",
"Q@	c #373E28",
"R@	c #979995",
"S@	c #AFC18C",
"T@	c #B2BFA8",
"U@	c #5E655C",
"V@	c #EFEFEF",
"W@	c #DEDEDE",
"X@	c #B0C297",
"Y@	c #CAD8C4",
"Z@	c #393F2C",
"`@	c #090D05",
" #	c #F8F8F8",
".#	c #161A10",
"+#	c #707D55",
"@#	c #AABD89",
"##	c #C7D6C0",
"$#	c #C1D1B4",
"%#	c #2A311E",
"&#	c #C6D5BF",
"*#	c #B2C398",
"=#	c #96A576",
"-#	c #040602",
";#	c #2B3026",
">#	c #12170C",
",#	c #88976C",
"'#	c #1C2114",
")#	c #313725",
"!#	c #585858",
"~#	c #767676",
"{#	c #9FAF7F",
"]#	c #141A0D",
"^#	c #14180D",
"/#	c #DDDEDC",
"(#	c #212618",
"_#	c #3D442E",
":#	c #1C2115",
"<#	c #F2F2F2",
"[#	c #060B04",
"}#	c #080808",
"|#	c #A5B87F",
"1#	c #23271A",
"2#	c #020202",
"3#	c #202416",
"4#	c #F0F0EF",
"5#	c #EFF1EC",
"6#	c #212C18",
"7#	c #93B973",
"8#	c #23281A",
"9#	c #09030A",
"0#	c #080C05",
"a#	c #B467BB",
"b#	c #B268B8",
"c#	c #050803",
"d#	c #76915E",
"e#	c #96AC75",
"f#	c #75925E",
"g#	c #869D68",
"h#	c #F6F7F5",
"i#	c #8A996A",
"j#	c #202517",
"k#	c #0F050F",
"l#	c #070207",
"m#	c #0A0C06",
"n#	c #8BA36D",
"o#	c #8BA26C",
"p#	c #678754",
"q#	c #171A0F",
"r#	c #090B08",
"s#	c #B368B8",
"t#	c #040104",
"u#	c #94AA73",
"v#	c #7C9762",
"w#	c #16190F",
"x#	c #819063",
"y#	c #B065B6",
"z#	c #B368B9",
"A#	c #F8FAF7",
"B#	c #F9FAF9",
"C#	c #EFF0EF",
"D#	c #FAFAFA",
"E#	c #899969",
"F#	c #030104",
"G#	c #AE63B4",
"H#	c #B269B6",
"I#	c #AC71AE",
"J#	c #A969AC",
"K#	c #0D0F07",
"L#	c #050605",
"M#	c #9EAF7C",
"N#	c #9DAF79",
"O#	c #0C0E07",
"                                              .                                                                         ",
"                                          + @ # $                   % & * =                                             ",
"                    - ; > , ' ) *         @ ! ~ { -               * ] ^ / (                                             ",
"                    _ & & & & & : < [       # } | 1 =             2 3 4 5 6   7 7         8 9                           ",
"                  - ' & & & & & & & 0 a   . b c c / d $ - . - e f g h i # j   7 7   -     k k     l m                   ",
"                  n o & & & & & & & & & p q r s t u v w w & & & x y z A B j - # & & C D d E F     G H                   ",
"                  I J & & & & & & & & & & & K & & & & & & & & & L M N O & & & & & & & & & P ; Q R k                     ",
"          S 7   T U V & & & & & & & & & & & & & & & W & & & & & X Y Z `  .& & & & & & & & & P < ..                      ",
"          S 9   T +.  & & & & & & & & & & & & & & & & & & & @.& 0 & & & & & & & & & & & & & & #.$.                      ",
"          8 9   %.%.  V & & & & & & & & & & & & &.*.=.-.;.: >.,.: & & & & & & & & & & & & & & & '.                      ",
"              ).+.T     !.& & & & & & & & & #.~.>.{.>.].^./.(._.>.:.& & & & & & & & & & & & & & [                       ",
"  <.[.%.    8 }.+.      |.1.#.& 2.V V W & & 3.4.5.6.>.& 7.& 8.& 9.0.& & & & & & & & & & & & a.b.=                       ",
"  c.d.%.      e.f.    g.%.).= & h.i.j.k.& & l.>.{.i.m.m.n.& o.m.p.q.r.& & & & D & s.& t.u.v.).                          ",
"        |.w.  x.y.  %.%.z.A.# - >.>.B. .& & C.D.>.>.>.E.F.& : G.>.H.& & & & & I.J.K.& 5   8 9                           ",
"        %.%.  L.9   M.N.O.P.& >.>.>.Q.R.& & & : S.>.T.U.& & & & >.V.& & & & W.X.>.>.& Y.                                ",
"          Z.Z.`.).%.|. +8 - - >.>.>.>.& & & & & & & & & & & & & W .+& & & & ++>.>.>.@+&                                 ",
"      #+$+%.%.`.}.x.%+9 6 V >.>.>.>.>.++& & & & & & & & & & & & K K & & & &+*+>.>.>.>.& _                               ",
"      $+    %.=+-+ +e.k # - >.>.>.>.>.>.& & & & & & & & & & & & & & & & ;+5 >.>.>.>.>.>+&     j ,+                      ",
"              '+x.y.9 )+V >.>.>.>.>.>.>.!+& & & & & & & & & & & & & & & & >.>.>.>.>.>.~+{+_   ]+,+                      ",
"              ^+|./+k . (+>.>.>.>.>.>.>.>._+& & & & & & & & & & & & & & :+>.>.>.>.>.>.>.<+5 [+}+                        ",
"              +.|+G 1+- 2+>.>.>.>.>.>.>.>.3+4+& & & & & & & & & & & & 5+6+>.>.>.>.>.>.>.>.& 7+                          ",
"                  8+k 9+2+>.>.>.>.>.>.>.>.G.& & & & & & & & & & & & & & & 6.>.>.>.>.>.0+a+b+c+                          ",
"                      d+e+>.>.>.>.>.>.>.>.f+& & & & P P & & & & & & & & K g+>.>.>.>.h+i+& j+k+l+                        ",
"                      m+n+>.>.>.>.>.>.>.>.o+& & D & p+q+& & & & & & & & & r+s+>.>.t+u+& & & v+w+                        ",
"                      m+x+>.>.>.>.>.>.t+>.y+& & z+A+A+A+B+ .: C.C+D+E+& W F+G+>.>.H+& & & & I+J+                        ",
"                    . V >.>.>.>.>.>.>.>.>.& & 0 K+A+A+A+A+P & L+A+A+M+N+K W s+>.>.w & & & O+P+                          ",
"                    Q+R+* >.>.>.>.>.>.>.>.S+: T+A+U+& A+A+V+K W+X+Y+A+Z+;+& s+>.`+& & & &  @.@                          ",
"                    +@@@#@&+>.>.>.>.>.>.>.C.& A+A+$@%@A+A+A+A+A+&@& A+*@& & m.>.=@& & & & & -@                          ",
"                    % ;@& & >@>.>.>.>.>.,@&+& *@A+'@)@!@'@~@A+A+A+A+A+{@t.& m.>.]@& & & & ^@-@                          ",
"                    b /@& ;+& (@>.>.>.>.>._@:@<@&  .W & L+[@& C.k.}@& & & |@>.>.]@, & & & i+1@                          ",
"              <.2@  3@_+& & & 4@>.>.>.>.>.-.s+5@6@7@& & & & & & & t.& 8@& >.>.>.>.9@D & & S+0@                          ",
"            %.<.a@  3@&+& & & b@>.>.>.>.>.>.>.s+s+s+_.c@J.d@e@_.f@d@;.g@h@>.>.>.>.i@& & & j@k@                          ",
"    `.    T +.      & & & & &  .>.>.>.>.>.>.>.>.>.>.>.>.>.>.>.>.>.>.>.>.>.>.>.>.>.>.k.: & & l@                          ",
"    +.m@%.T +.  T n@o@& & & p@p@>.>.>.>.>.>.>.>.>.>.>.>.>.>.>.>.>.>.>.>.>.>.>.>.>.>.q@& & & r@                          ",
"      w.%.s@Z.%.+.t@& & & & & & u@>.>.>.>.>.>.>.>.>.>.>.>.>.>.>.>.>.>.>.>.>.>.>.>.>.v@& & & r@                          ",
"        +.m@w@%.  % x@& & & & & q >.>.>.>.>.>.>.>.>.>.>.>.>.>.>.>.>.>.>.#.: y@z@>.>.:+A@K B@C@8 9                       ",
"          |.D@T   - w & & & &  .& s+>.>.>.>.>.>.>.>.>.>.>.>.F+& & q >.E@& & & F@G@>.>.>.(@H@  9 8                       ",
"          I@%.    - w & & & & & & J@>.>.>.>.>.>.>.>.>.>.>.& k.& & & & u.& & & & J.>.>.>.V K@k k                         ",
"        %.%.    k - L@& & & & & & 0 & & & >.>.>.>.>.>.>.;+& & & & & & & & & & & t.>.>.B.M@k k                           ",
"                k   N@O@& & & & & P@& C.& Q@>.>.>.>.>.J.& & & & & & & & & & & & u._@>.R@&+S@k                           ",
"                  T@U@& & & & & & & & & & D+V@>.>.>.>.>.& & & & & & & & & & & & & W@>.B@D G 8                           ",
"                X@Y@Z@`@& & & & & & & & & &  #>.>.>.>.>.].G@& & & & & & & & & & .#& u@& +#9 8                           ",
"              @###$#F %#& & & & & & & & & & >.>.>.>.>.>.>.>.& W & & & & & & & & P & & u.( 9 8                           ",
"              @#&#*#=#-#& & & & & & & & & ;#>.>.>.>.>.>.>.>#& & & & & & & & & & & & & k.)+9                             ",
"                    ,#q & M@& & & & & & & >.>.>.>.>.>.>.'#`@& & & & & & & & & & & & & &   ).                            ",
"                    R & >.)#& & & & & 0 K >.>.>.>.>.>.!#k.& & & & & & & & & & & & & ~#&   ).                            ",
"                    {#& >.>@L@' t.& u.]#>.>.>.>.>.>.>.^#& & & & & & & & & & & & & /#=.& +   %.                          ",
"                    R (#s+>.>._#:#F+R.<#>.>.>.>.>.>.>.& 0 & C.& & & & & & & [#C.9@s+>.}#|#%.%.                          ",
"                    . 1#s+>.>.>.>.m.2#D K 3#4#=.m.9.5#D & & & & & & & : C.& & 6#>.>.>.P 7#Z.                            ",
"                    )+8#s+>.>.>.>.>.& F+: & & & & & & U+9#& & & & 0#^##.D+F+>.>.>.>.>.& g.%.                            ",
"                    R & >.>.>.>.>.>.& ( .   H@;+A+a#A+b#A+A+A+c#d#e#f#g#& h#>.>.>.>.>.2#+.                              ",
"                    i#1#>.>.>.>.>.>.j#6       & & k#& & & l#m#& n#o#p#@ q#>.>.>.>.>.S.r#                                ",
"                    )+& >.>.>.>.>.>.r+6       & s#t#A+& A+& A+&   u#v#  & >.>.>.>.>. #P                                 ",
"                    i#w#>.>.>.>.>.>.& x#      & y#& z#& A+& z#&   J+n#  & (.>.>.A#>.>.&                                 ",
"                    - & >.B#C#D#m.>.P E#    . F#G#& H#& I#& J#&   J+n#  & & F+& D+& K#&                                 ",
"                      & #.L#& 2#& m#& +         &   & M#& N#m#  J+n#    & & & & & & & &                                 ",
"                      & l.0 & O#& K &             |#    +               K & & & & & & &                                 ",
"                    = & & W & & & P u.                                  & & & & & & & &                                 ",
"                    ( ^#I.F+& & F+D+&                                   , & & P u.& & t.                                ",
"                          - - - -                                         .                                             "};
