/* XPM */
static char * exit_xpm[] = {
"60 60 341 2",
"  	c #A6B980",
". 	c #A8BB83",
"+ 	c #A8BA82",
"@ 	c #ADBF89",
"# 	c #A5B77F",
"$ 	c #AABD85",
"% 	c #ABBE87",
"& 	c #A7BA82",
"* 	c #9ABD78",
"= 	c #9EAE87",
"- 	c #000000",
"; 	c #0E1108",
"> 	c #15190E",
", 	c #212617",
"' 	c #181C10",
") 	c #050603",
"! 	c #96A874",
"~ 	c #A0B37B",
"{ 	c #AEC08B",
"] 	c #AEC08A",
"^ 	c #A8BB82",
"/ 	c #94BE74",
"( 	c #A4B77F",
"_ 	c #926A43",
": 	c #926942",
"< 	c #926B44",
"[ 	c #2B311F",
"} 	c #303723",
"| 	c #A9BC84",
"1 	c #A0BB7C",
"2 	c #83B468",
"3 	c #292F1E",
"4 	c #936C44",
"5 	c #926D44",
"6 	c #242A1A",
"7 	c #0A0C06",
"8 	c #1C2A14",
"9 	c #926A42",
"0 	c #1D2114",
"a 	c #916B44",
"b 	c #A7B886",
"c 	c #2B3820",
"d 	c #1D2714",
"e 	c #16190F",
"f 	c #926C44",
"g 	c #926C45",
"h 	c #7B8A5E",
"i 	c #272C1D",
"j 	c #8E6842",
"k 	c #0E1209",
"l 	c #936D47",
"m 	c #271A0D",
"n 	c #1F1308",
"o 	c #1D2215",
"p 	c #92BF73",
"q 	c #88C16C",
"r 	c #97BD76",
"s 	c #936D45",
"t 	c #0A0E06",
"u 	c #906942",
"v 	c #926B43",
"w 	c #926E45",
"x 	c #A4B77E",
"y 	c #9BBC79",
"z 	c #87C16C",
"A 	c #A5B87F",
"B 	c #232818",
"C 	c #93774F",
"D 	c #25170C",
"E 	c #3C442C",
"F 	c #182A12",
"G 	c #1A2512",
"H 	c #090C05",
"I 	c #926B45",
"J 	c #130B04",
"K 	c #9FB27B",
"L 	c #7A895D",
"M 	c #212A19",
"N 	c #1F2817",
"O 	c #1B2012",
"P 	c #12150B",
"Q 	c #363E28",
"R 	c #A6B97F",
"S 	c #8E9F6D",
"T 	c #0F1309",
"U 	c #191F11",
"V 	c #819865",
"W 	c #92A872",
"X 	c #A2B57D",
"Y 	c #A5B880",
"Z 	c #9AAB76",
"` 	c #A3B67E",
" .	c #A2B47C",
"..	c #A1B37C",
"+.	c #2C3220",
"@.	c #8D6740",
"#.	c #9DB079",
"$.	c #9AAC77",
"%.	c #0D2209",
"&.	c #926C43",
"*.	c #262C1B",
"=.	c #9BAD78",
"-.	c #A0B47C",
";.	c #869F6A",
">.	c #6B8A56",
",.	c #96AC75",
"'.	c #1A1E12",
").	c #1F2315",
"!.	c #323824",
"~.	c #2F3522",
"{.	c #0F210B",
"].	c #101E0B",
"^.	c #2C3222",
"/.	c #9EB17A",
"(.	c #879F69",
"_.	c #A4B67E",
":.	c #4D5639",
"<.	c #7FAE64",
"[.	c #5AAC4C",
"}.	c #2C3121",
"|.	c #735334",
"1.	c #8F6C45",
"2.	c #916942",
"3.	c #916841",
"4.	c #070904",
"5.	c #906841",
"6.	c #B1C28D",
"7.	c #9FB17C",
"8.	c #0F120A",
"9.	c #2A1E0F",
"0.	c #A2B47D",
"a.	c #8CC06F",
"b.	c #23160B",
"c.	c #1F2416",
"d.	c #4E583B",
"e.	c #A1B47C",
"f.	c #916A43",
"g.	c #9DB479",
"h.	c #808F62",
"i.	c #A1B57C",
"j.	c #98AA76",
"k.	c #070A04",
"l.	c #83B267",
"m.	c #9DAF79",
"n.	c #96AB74",
"o.	c #9EB27A",
"p.	c #0F190A",
"q.	c #8C6943",
"r.	c #141107",
"s.	c #1D2214",
"t.	c #9FB37B",
"u.	c #916842",
"v.	c #8FA46F",
"w.	c #AF9382",
"x.	c #D2BFB8",
"y.	c #EFE1DE",
"z.	c #94AA73",
"A.	c #9EB37B",
"B.	c #F7A5A3",
"C.	c #F7EAE9",
"D.	c #FDF1F0",
"E.	c #FA9896",
"F.	c #FD4A49",
"G.	c #030502",
"H.	c #9BAF78",
"I.	c #99AE77",
"J.	c #EE9590",
"K.	c #FF0000",
"L.	c #F9ECEB",
"M.	c #EADBD8",
"N.	c #EEE0DE",
"O.	c #030303",
"P.	c #FDF1F1",
"Q.	c #FFB3B3",
"R.	c #FF7474",
"S.	c #F2CCCA",
"T.	c #8F6741",
"U.	c #191E11",
"V.	c #95AA74",
"W.	c #FFF3F3",
"X.	c #FFDDDD",
"Y.	c #FCEFEF",
"Z.	c #FCF0EF",
"`.	c #FEB0B0",
" +	c #FE8080",
".+	c #090D05",
"++	c #606B49",
"@+	c #9AAF78",
"#+	c #A1BB7D",
"$+	c #12170C",
"%+	c #F9D5D4",
"&+	c #FBEE2A",
"*+	c #FBEFA1",
"=+	c #FEF2F1",
"-+	c #99AB76",
";+	c #A5B980",
">+	c #FDAE9E",
",+	c #85C26A",
"'+	c #8C6D46",
")+	c #FEB068",
"!+	c #FE7237",
"~+	c #F2E5E2",
"{+	c #A0B57F",
"]+	c #7CC464",
"^+	c #80C367",
"/+	c #F5E7E6",
"(+	c #F2E4E2",
"_+	c #FDD9C6",
":+	c #F6D2D1",
"<+	c #181108",
"[+	c #A3B57D",
"}+	c #92BF72",
"|+	c #7DC365",
"1+	c #89C16D",
"2+	c #A16641",
"3+	c #D7492D",
"4+	c #DCCBC5",
"5+	c #C0B6B6",
"6+	c #FAEDED",
"7+	c #FC6B69",
"8+	c #DF4228",
"9+	c #AC623E",
"0+	c #281D0F",
"a+	c #A2B380",
"b+	c #8EBB6F",
"c+	c #080D05",
"d+	c #C75434",
"e+	c #E53B24",
"f+	c #966A43",
"g+	c #0B0502",
"h+	c #A6B784",
"i+	c #A3B57E",
"j+	c #8B6641",
"k+	c #0D0702",
"l+	c #906943",
"m+	c #010101",
"n+	c #8F6A43",
"o+	c #A5B683",
"p+	c #1F1C10",
"q+	c #A7B982",
"r+	c #8C6742",
"s+	c #6FC65D",
"t+	c #190F06",
"u+	c #13160C",
"v+	c #060301",
"w+	c #150C05",
"x+	c #282213",
"y+	c #0D0602",
"z+	c #93B873",
"A+	c #927148",
"B+	c #906B44",
"C+	c #A0B27D",
"D+	c #0A0D06",
"E+	c #916D46",
"F+	c #AFC09E",
"G+	c #B9C9A9",
"H+	c #916E47",
"I+	c #A3B481",
"J+	c #13170D",
"K+	c #070401",
"L+	c #98AA75",
"M+	c #0B0602",
"N+	c #926E47",
"O+	c #0B0D06",
"P+	c #8F6841",
"Q+	c #926A44",
"R+	c #916B43",
"S+	c #936E46",
"T+	c #070907",
"U+	c #778D5D",
"V+	c #889868",
"W+	c #97A588",
"X+	c #A0B089",
"Y+	c #8FA06F",
"Z+	c #626E4B",
"`+	c #64734D",
" @	c #7E8F61",
".@	c #79875C",
"+@	c #171A10",
"@@	c #070302",
"#@	c #0E0703",
"$@	c #A0B27B",
"%@	c #ACBE8A",
"&@	c #A3B582",
"*@	c #A1B581",
"=@	c #9DB17A",
"-@	c #89A16B",
";@	c #8BA36D",
">@	c #7A9561",
",@	c #906842",
"'@	c #9EAF7D",
")@	c #9DB77A",
"!@	c #110904",
"~@	c #27190C",
"{@	c #170D06",
"]@	c #A6B985",
"^@	c #829B66",
"/@	c #91A771",
"(@	c #100903",
"_@	c #2F2011",
":@	c #96A773",
"<@	c #100803",
"[@	c #0C0602",
"}@	c #1E1208",
"|@	c #AFC18C",
"1@	c #ACBE87",
"2@	c #9EB37D",
"3@	c #9CB07B",
"4@	c #849C67",
"5@	c #14190D",
"6@	c #8BBF6F",
"7@	c #160D05",
"8@	c #1B1107",
"9@	c #936D46",
"0@	c #89A06B",
"a@	c #8D663E",
"b@	c #889F6A",
"c@	c #1F2616",
"d@	c #B0C18C",
"e@	c #ACBD87",
"f@	c #A8BB87",
"g@	c #7CAF62",
"h@	c #B2C38F",
"i@	c #A6B982",
"j@	c #96AC78",
"k@	c #79C463",
"l@	c #78935F",
"m@	c #75925E",
"n@	c #AABD89",
"o@	c #9BB07A",
"p@	c #7E9864",
"q@	c #7F9864",
"r@	c #8BA26C",
"s@	c #678754",
"t@	c #AEBF8A",
"u@	c #88A06B",
"v@	c #6A8855",
"w@	c #7C9762",
"x@	c #92BE73",
"y@	c #ABBD88",
"z@	c #7E9964",
"                                                                                                                        ",
"                                                                                                                        ",
"                                                                                                                        ",
"                                                                              . .         + @                           ",
"                                        #   #                                 . .         $ $     % &                   ",
"                  * *           = - - - ; > - - - - - - - - , - ' ) !   ~         {       @ +     ] ^                   ",
"                  / /   ( - , - - - _ _ _ _ _ _ _ _ _ _ _ _ : _ < [ - - } > !     {       {     $ $                     ",
"          | .   1 2 3 - - - 4 _ _ _ _ _ _ _ _ _ _ _ _ _ _ _ _ _ _ _ 5 _ _ 6 - ' 7 $ $   + @   $ $                       ",
"          | @   1 8 - _ _ _ _ _ _ _ _ - - - - _ - _ _ 9 0 _ _ _ _ - _ _ _ _ _ a - - - 3 b $   $ $                       ",
"          + @   c d _ _ _ _ _ _ _ _ _ - _ _ _ < - e _ - ' f _ _ _ _ _ _ _ _ _ a g _ _ ) - , h {                         ",
"              i j _ _ _ _ _ _ _ _ _ _ k a _ _ _ _ l 7 - _ _ _ _ : m _ n - - 7 ' _ _ _ _ _ 0 o - -                       ",
"  p q r     - _ _ _ _ _ _ _ _ _ _ _ s t - - - _ < - _ - - _ _ _ u - v _ w - _ _ _ _ _ _ _ _ _ _ : - x                   ",
"  y z r A B C _ _ _ _ _ _ _ _ _ _ _ _ - _ _ _ _ _ - _ _ 0 ' _ _ _ D _ _ _ - _ _ _ _ _ _ _ _ _ _ _ _ - E                 ",
"        F G _ _ _ _ _ _ _ _ _ _ _ _ _ - - - - _ - H _ _ I 0 _ _ _ J < _ _ - _ _ _ _ _ _ _ _ _ _ _ _ _ g -               ",
"        - w _ _ _ _ _ _ _ _ _ _ _ _ _ _ _ _ _ _ _ _ < _ _ _ _ _ _ _ _ _ _ 7 < _ _ _ _ _ _ _ _ _ _ _ _ _ - K             ",
"      - _ _ _ _ _ _ _ _ _ _ _ _ _ _ _ _ _ _ _ _ _ _ _ _ _ < _ _ _ _ v _ f , _ _ _ _ _ _ _ _ _ _ _ _ _ _ _ -             ",
"      L - _ _ _ _ _ _ _ _ _ _ _ _ _ _ g M N - O > > > > > > , ' - P 7 - _ _ _ _ _ _ _ _ _ _ _ _ _ _ _ Q -               ",
"      R S - _ _ _ _ _ _ _ _ _ g a - - P T U V W x X   Y Z ` X `  .A ..- - +.@.: _ _ _ _ _ _ _ _ _ _ Q #.                ",
"          $.) %.&._ _ _ _ _ _ *.- - =.  -.;.>.,.                          - '.).- a _ _ _ _ _ _ _ !.~.Y                 ",
"            ..{.].^.9 _ _ - 6 ' K /.        (.-.                            _. .; , > a _ _ _ _ - :.x                   ",
"              <.[.- }.~.|.) 1.-                                               ( 6 2.3.4.H 5._ +.E /.                    ",
"                  6.7.- 8.9._ - & %           Y x _.0.0._.# Y   1 a.          A - _ _ 3.b._ c.d.e.                      ",
"                    # - f.< a 7 0.% @     - - - - - - - - - - - g.  (           - _ _ _ < - h.i.                        ",
"                    # - : < _ >     j.  - - < < < < < - < < < k.- - - l.      m.- _ _ _ 3.- n.(                         ",
"                      - - < _ 7 o.` - - - < < < < < < - < < < < < < - p.-     6 q._ _ _ r.s.t.x                         ",
"                        - _ u.,   - - < < < < < < < < - < < < < < < < < - - ` - : _ _ _ - v.                            ",
"                    t.x 7 _ a - - - < < < w.w.< < < < - x.y.y.w.< < < < < - - ' _ _ _ _ - z.A                           ",
"                    A.o.> a < - - < < < < B.B.y.x.< < - C.D.E.F.< < < < < < < - _ _ _ 2.G.H.A                           ",
"                      I.- _ _ u - < < < x.J.K.L.M.N.x.O.P.Q.R.S.w.< < < < < < > f _ _ T.U.V.(                           ",
"                      A.- _ _ _ - < < < w.W.C.R.X.Y.Z.- `. +W.y.< < < < < < .+3._ _ _ - ++@+@+                          ",
"              p #+    ( $+f._ _ - < < < < W.W.%+R.Q.&+- *+=+W.< < < < < < < - _ _ _ _ - -+,.,.                          ",
"            r p ;+    X - 2._ v - - < < < < x.x.W.>+K.- &+W.W.x.< < < < < < - _ _ _ _ - # ,.,.                          ",
"    ,+    1 a.      1 A - @._ v '+- < < < < < < W.K.)+- !+P.P.~+w.< < < < < - _ _ _ f - & {+,.                          ",
"    a.]+r 1 a.  1 ^+a.( - - _ _ : - < < < < < < K./+(+- _+K.Q.:+y.< < < < < - _ _ _ <+'.@ |                             ",
"    [+}+r |+1+r a.}+      - _ _ a - < < < 2+3+K.4+W.W.- 5+6+`.7+R.8+9+< < < > _ _ _ 0+a+            Y A                 ",
"    -   a.]+b+c+[+        - g _ f.- < < < d+e+4+W.M.W.- w.W.y.M.S.9+f+< < < 8._ _ _ g+h+    7 i+@   [+P x     x - /.    ",
"  - j+k+X ^+- l+P A   A Y - _ _ 2.- < < < < < M.W.M.N.m+< < 4+/+< < < < < - _ _ < n+7 o+  - _ p+q+A 7 _ -   [+b._ -     ",
"Y - r+- Y s+t+< -         - - _ 2.- < < < < < y.W.y.y.- < < < < < < < < < - < _ _ 7 u+$ ` P _ v+    w+_ -   [+x+_ '._.  ",
"  - 5.y+z+r - A+-         ..- _ : - < < < < < < < w.w.- < < < < < < < < < - _ _ B+7 C+$ _.D+_ 7   A - _ >     0 _ 7 A   ",
"  0 : -     - E+- X F+G+Y ` - _ 2.- < < < < < < < < < - < < < < < < < < < - _ _ H+> I+/./.J+_ 7 (   K+a > =.=.> _ , ( L+",
"- 7 7 7 - - - t+M+- - - - - - _ 2.- < < < < < < < < < - < < < < < < < < < - _ _ N+7 O+) ' - - 7 - - - - - - - - - - - 7 ",
"f _ _ _ _ _ _ _ _ _ _ : 2.2.- _ P+- < < < < < < < < < - < < < < < < < < < - _ _ N+7 v _ _ _ _ < _ _ _ _ _ _ _ _ _ _ _ < ",
"_ _ _ _ _ _ f._ _ 3.3._ 2.2.- _ : - - - - - - - - - - - - - - - - - - - - - _ _ _ O+_ _ _ v _ _ _ Q+R+_ _ _ < S+< _ _ _ ",
"- - - - - - P - T+- O+- - 7 - _ j - U+V+V+W+X+V+  /.Y+Z+`+ @.@      ` ` ! - < _ : - +@- 7 O+- @@7 7 - - - - - - - - 7 ) ",
"m.- _ ; Y Y ) _ #@$@%@A ,.&@- _ f.- *@` I.              =@-@;@      >@I.  - f _ ,@7 '@)@A !@_ ~@~ $@> _ 7   # ) : {@..( ",
"  - _ 7 Y   - _ -   $ $ ,.]@- _ _ -  .^@I.                ,./@      ;@-.# - < _ 5.- #+p   (@_ _@Y   P _ -   :@<@_ [@_.  ",
"  }@< -     - _ -   |@1@2@3@- u 2.- $.4@                    ,.,.  ,.,.  Y - _ _ _ 5@6@    7@_ 8@A A 8@_ 7     - _ 7     ",
"  - 9@-     - _ -   $ $ { 0@H a@2.- b@-.                    ;@(.  ;@-.    - _ _ S+c@a.  $@g+_ - A   7 _ '   A - _ 7     ",
"                      d@e@4@+ f@,.-.;@                      -.(.-.;@          r r 1 a.  r g@                            ",
"                    + h@@ ;@i@j@-.,.,.                      -.;@-.;@-.(.      a.q 1 a.  k@r                             ",
"                    $ d@@ j@i@4@-.;@                        -.;@l@,.m@(.      1 q 1 a.q a.                              ",
"                    + |@$ n@o@;@p@,.                          q@;@r@s@          a.* ^+}+                                ",
"                    + t@@ ]@u@u@/@                            v@  z.w@          x@^+1 a.                                ",
"                    + t@@ y@z@u@,.                                -.;@          a.1 r r                                 ",
"                          -.z@l@                                  -.;@                                                  ",
"                            ,.l@                                -.;@                                                    ",
"                                                                                                                        ",
"                                                                                                                        ",
"                                                                                                                        ",
"                                                                                                                        "};
