/* XPM */
static char * exit_xpm[] = {
"60 60 306 2",
"  	c #A6B980",
". 	c #A8BB83",
"+ 	c #A8BA82",
"@ 	c #ADBF89",
"# 	c #A5B77F",
"$ 	c #AABD85",
"% 	c #ABBE87",
"& 	c #A7BA82",
"* 	c #9ABD78",
"= 	c #9EAE87",
"- 	c #000000",
"; 	c #0E1108",
"> 	c #15190E",
", 	c #212617",
"' 	c #181C10",
") 	c #050603",
"! 	c #96A874",
"~ 	c #A0B37B",
"{ 	c #AEC08B",
"] 	c #AEC08A",
"^ 	c #A8BB82",
"/ 	c #94BE74",
"( 	c #A4B77F",
"_ 	c #926A43",
": 	c #926942",
"< 	c #926B44",
"[ 	c #2B311F",
"} 	c #303723",
"| 	c #A9BC84",
"1 	c #A0BB7C",
"2 	c #83B468",
"3 	c #292F1E",
"4 	c #936C44",
"5 	c #926D44",
"6 	c #242A1A",
"7 	c #0A0C06",
"8 	c #1C2A14",
"9 	c #926A42",
"0 	c #1D2114",
"a 	c #916B44",
"b 	c #A7B886",
"c 	c #2B3820",
"d 	c #1D2714",
"e 	c #16190F",
"f 	c #926C44",
"g 	c #926C45",
"h 	c #7B8A5E",
"i 	c #272C1D",
"j 	c #8E6842",
"k 	c #0E1209",
"l 	c #936D47",
"m 	c #271A0D",
"n 	c #1F1308",
"o 	c #1D2215",
"p 	c #92BF73",
"q 	c #88C16C",
"r 	c #97BD76",
"s 	c #936D45",
"t 	c #0A0E06",
"u 	c #906942",
"v 	c #926B43",
"w 	c #926E45",
"x 	c #A4B77E",
"y 	c #9BBC79",
"z 	c #87C16C",
"A 	c #A5B87F",
"B 	c #232818",
"C 	c #93774F",
"D 	c #25170C",
"E 	c #3C442C",
"F 	c #182A12",
"G 	c #1A2512",
"H 	c #090C05",
"I 	c #926B45",
"J 	c #130B04",
"K 	c #9FB27B",
"L 	c #7A895D",
"M 	c #212A19",
"N 	c #1F2817",
"O 	c #1B2012",
"P 	c #12150B",
"Q 	c #363E28",
"R 	c #A6B97F",
"S 	c #8E9F6D",
"T 	c #0F1309",
"U 	c #191F11",
"V 	c #819865",
"W 	c #92A872",
"X 	c #A2B57D",
"Y 	c #A5B880",
"Z 	c #9AAB76",
"` 	c #A3B67E",
" .	c #A2B47C",
"..	c #A1B37C",
"+.	c #2C3220",
"@.	c #8D6740",
"#.	c #9DB079",
"$.	c #9AAC77",
"%.	c #0D2209",
"&.	c #926C43",
"*.	c #262C1B",
"=.	c #9BAD78",
"-.	c #A0B47C",
";.	c #869F6A",
">.	c #6B8A56",
",.	c #96AC75",
"'.	c #1A1E12",
").	c #1F2315",
"!.	c #323824",
"~.	c #2F3522",
"{.	c #0F210B",
"].	c #101E0B",
"^.	c #2C3222",
"/.	c #9EB17A",
"(.	c #879F69",
"_.	c #A4B67E",
":.	c #4D5639",
"<.	c #7FAE64",
"[.	c #5AAC4C",
"}.	c #2C3121",
"|.	c #735334",
"1.	c #8F6C45",
"2.	c #916942",
"3.	c #916841",
"4.	c #070904",
"5.	c #906841",
"6.	c #B1C28D",
"7.	c #9FB17C",
"8.	c #0F120A",
"9.	c #2A1E0F",
"0.	c #8CC06F",
"a.	c #23160B",
"b.	c #1F2416",
"c.	c #4E583B",
"d.	c #A1B47C",
"e.	c #916A43",
"f.	c #A2B47D",
"g.	c #85C26A",
"h.	c #808F62",
"i.	c #A1B57C",
"j.	c #92A871",
"k.	c #99AE77",
"l.	c #ACBE87",
"m.	c #9FBB7B",
"n.	c #8C6943",
"o.	c #141107",
"p.	c #1D2214",
"q.	c #7E9864",
"r.	c #916842",
"s.	c #728C5A",
"t.	c #8BA36D",
"u.	c #0C1107",
"v.	c #81C368",
"w.	c #7E9964",
"x.	c #91A771",
"y.	c #92BF72",
"z.	c #030502",
"A.	c #738B5B",
"B.	c #94AA74",
"C.	c #95C378",
"D.	c #A5C284",
"E.	c #8CB76E",
"F.	c #8F6741",
"G.	c #191E11",
"H.	c #080B05",
"I.	c #76915E",
"J.	c #79C463",
"K.	c #090D05",
"L.	c #606B49",
"M.	c #A1BB7D",
"N.	c #12170C",
"O.	c #75C561",
"P.	c #89C16D",
"Q.	c #99AB76",
"R.	c #A5B980",
"S.	c #80C367",
"T.	c #8C6D46",
"U.	c #AFC18C",
"V.	c #92C175",
"W.	c #90C373",
"X.	c #A0B57F",
"Y.	c #7CC464",
"Z.	c #ABC48A",
"`.	c #95C277",
" +	c #A8BB85",
".+	c #181108",
"++	c #A3B57D",
"@+	c #7DC365",
"#+	c #A7B883",
"$+	c #281D0F",
"%+	c #A2B380",
"&+	c #8EBB6F",
"*+	c #080D05",
"=+	c #98AA75",
"-+	c #0B0502",
";+	c #A6B784",
">+	c #A3B57E",
",+	c #8B6641",
"'+	c #0D0702",
")+	c #906943",
"!+	c #8F6A43",
"~+	c #A5B683",
"{+	c #1F1C10",
"]+	c #A7B982",
"^+	c #8C6742",
"/+	c #6FC65D",
"(+	c #190F06",
"_+	c #040201",
":+	c #13160C",
"<+	c #060301",
"[+	c #150C05",
"}+	c #282213",
"|+	c #0D0602",
"1+	c #93B873",
"2+	c #927148",
"3+	c #A9BC88",
"4+	c #9EB28B",
"5+	c #906B44",
"6+	c #A0B27D",
"7+	c #0A0D06",
"8+	c #916D46",
"9+	c #AFC09E",
"0+	c #B9C9A9",
"a+	c #CEDCCC",
"b+	c #C3D2C0",
"c+	c #B9C9A7",
"d+	c #916E47",
"e+	c #A3B481",
"f+	c #13170D",
"g+	c #070401",
"h+	c #0B0602",
"i+	c #9BB08E",
"j+	c #C6D5C2",
"k+	c #C8D6C2",
"l+	c #926E47",
"m+	c #0B0D06",
"n+	c #8F6841",
"o+	c #C4D3BC",
"p+	c #BDCCAE",
"q+	c #849C67",
"r+	c #C7D6C1",
"s+	c #AEC091",
"t+	c #926A44",
"u+	c #916B43",
"v+	c #936E46",
"w+	c #070907",
"x+	c #B8C9A6",
"y+	c #B0C297",
"z+	c #171A10",
"A+	c #070302",
"B+	c #9DAF79",
"C+	c #0E0703",
"D+	c #A0B27B",
"E+	c #ACBE8A",
"F+	c #A3B582",
"G+	c #A1B581",
"H+	c #9DB17A",
"I+	c #89A16B",
"J+	c #7A9561",
"K+	c #906842",
"L+	c #9EAF7D",
"M+	c #9DB77A",
"N+	c #110904",
"O+	c #27190C",
"P+	c #170D06",
"Q+	c #A6B985",
"R+	c #829B66",
"S+	c #100903",
"T+	c #2F2011",
"U+	c #96A773",
"V+	c #100803",
"W+	c #0C0602",
"X+	c #1E1208",
"Y+	c #9EB37D",
"Z+	c #9CB07B",
"`+	c #14190D",
" @	c #8BBF6F",
".@	c #160D05",
"+@	c #1B1107",
"@@	c #936D46",
"#@	c #89A06B",
"$@	c #8D663E",
"%@	c #0D1008",
"&@	c #889F6A",
"*@	c #1F2616",
"=@	c #B0C18C",
"-@	c #ACBD87",
";@	c #A8BB87",
">@	c #7CAF62",
",@	c #B2C38F",
"'@	c #A6B982",
")@	c #96AC78",
"!@	c #78935F",
"~@	c #75925E",
"{@	c #AABD89",
"]@	c #9BB07A",
"^@	c #7F9864",
"/@	c #8BA26C",
"(@	c #678754",
"_@	c #AEBF8A",
":@	c #88A06B",
"<@	c #6A8855",
"[@	c #94AA73",
"}@	c #7C9762",
"|@	c #92BE73",
"1@	c #ABBD88",
"                                                                                                                        ",
"                                                                                                                        ",
"                                                                                                                        ",
"                                                                              . .         + @                           ",
"                                        #   #                                 . .         $ $     % &                   ",
"                  * *           = - - - ; > - - - - - - - - , - ' ) !   ~         {       @ +     ] ^                   ",
"                  / /   ( - , - - - _ _ _ _ _ _ _ _ _ _ _ _ : _ < [ - - } > !     {       {     $ $                     ",
"          | .   1 2 3 - - - 4 _ _ _ _ _ _ _ _ _ _ _ _ _ _ _ _ _ _ _ 5 _ _ 6 - ' 7 $ $   + @   $ $                       ",
"          | @   1 8 - _ _ _ _ _ _ _ _ - - - - _ - _ _ 9 0 _ _ _ _ - _ _ _ _ _ a - - - 3 b $   $ $                       ",
"          + @   c d _ _ _ _ _ _ _ _ _ - _ _ _ < - e _ - ' f _ _ _ _ _ _ _ _ _ a g _ _ ) - , h {                         ",
"              i j _ _ _ _ _ _ _ _ _ _ k a _ _ _ _ l 7 - _ _ _ _ : m _ n - - 7 ' _ _ _ _ _ 0 o - -                       ",
"  p q r     - _ _ _ _ _ _ _ _ _ _ _ s t - - - _ < - _ - - _ _ _ u - v _ w - _ _ _ _ _ _ _ _ _ _ : - x                   ",
"  y z r A B C _ _ _ _ _ _ _ _ _ _ _ _ - _ _ _ _ _ - _ _ 0 ' _ _ _ D _ _ _ - _ _ _ _ _ _ _ _ _ _ _ _ - E                 ",
"        F G _ _ _ _ _ _ _ _ _ _ _ _ _ - - - - _ - H _ _ I 0 _ _ _ J < _ _ - _ _ _ _ _ _ _ _ _ _ _ _ _ g -               ",
"        - w _ _ _ _ _ _ _ _ _ _ _ _ _ _ _ _ _ _ _ _ < _ _ _ _ _ _ _ _ _ _ 7 < _ _ _ _ _ _ _ _ _ _ _ _ _ - K             ",
"      - _ _ _ _ _ _ _ _ _ _ _ _ _ _ _ _ _ _ _ _ _ _ _ _ _ < _ _ _ _ v _ f , _ _ _ _ _ _ _ _ _ _ _ _ _ _ _ -             ",
"      L - _ _ _ _ _ _ _ _ _ _ _ _ _ _ g M N - O > > > > > > , ' - P 7 - _ _ _ _ _ _ _ _ _ _ _ _ _ _ _ Q -               ",
"      R S - _ _ _ _ _ _ _ _ _ g a - - P T U V W x X   Y Z ` X `  .A ..- - +.@.: _ _ _ _ _ _ _ _ _ _ Q #.                ",
"          $.) %.&._ _ _ _ _ _ *.- - =.  -.;.>.,.                          - '.).- a _ _ _ _ _ _ _ !.~.Y                 ",
"            ..{.].^.9 _ _ - 6 ' K /.        (.-.                            _. .; , > a _ _ _ _ - :.x                   ",
"              <.[.- }.~.|.) 1.-                                               ( 6 2.3.4.H 5._ +.E /.                    ",
"                  6.7.- 8.9._ - & %                             1 0.          A - _ _ 3.a._ b.c.d.                      ",
"                    # - e.< a 7 f.% @                           g.              - _ _ _ < - h.i.                        ",
"                    # - : < _ >     $ @                       1 0.    g.      Z - _ _ _ 3.- j.j.                        ",
"                      - - < _ 7 k.`   l.$     m.m.            0.    1 0.      6 n._ _ _ o.p.q.-.                        ",
"                        - _ r., k.`     $ $   m.m.g.        $ q 1   g.        - : _ _ _ - s.                            ",
"                    t.(.7 _ a u.,.A       $ $     0.v.    { $ g.  r r         ' _ _ _ _ - w.-.                          ",
"                    ,.x.> a < - - d.k.`     {       0.y.@ $ 1 0.  0.1       x - _ _ _ 2.z.A.-.                          ",
"                      t.- _ _ u ; B.k.`     $ $       C.D.  1 0.1 0.      y E.> f _ _ F.G.A.-.                          ",
"                      ,.- _ _ _ H.I.        $ $       { 0.1 r r J.r     g.0.K.3._ _ _ - L.,.,.                          ",
"              p M.    X N.e._ _ -   X         @ +   $ $   0.O.P.r   0.g.    - _ _ _ _ - Q.,.,.                          ",
"            r p R.    /.- 2._ v ' P /.        {   $ $     g.g.1 0.S.y.      - _ _ _ _ - # ,.,.                          ",
"    g.    1 0.      1 A - @._ v T.-             { U.$   1 V.W.1 q q       _.- _ _ _ f - & X.,.                          ",
"    0.Y.r 1 0.  1 S.0.( - - _ _ : 7           + @ ] + $ Z.D.`.Y.y.      %  +- _ _ _ .+'.@ |                             ",
"    ++y.r @+P.r 0.y.      - _ _ a -             { @ + $ $   0.1         ] #+> _ _ _ $+%+            Y A                 ",
"    -   0.Y.&+*+++        - g _ e.- x             { 6.$                   =+8._ _ _ -+;+    7 >+@   ++P x     x - /.    ",
"  - ,+'+X S.- )+P A   A Y - _ _ 2.7               U.@                     P _ _ < !+7 ~+  - _ {+]+A 7 _ -   ++a._ -     ",
"Y - ^+- Y /+(+< -         - - _ 2.;                                     A _+< _ _ 7 :+$ ` P _ <+    [+_ -   ++}+_ '._.  ",
"  - 5.|+1+r - 2+-         ..- _ : - 3+4+                                Y - _ _ 5+7 6+$ _.7+_ 7   A - _ >     0 _ 7 A   ",
"  0 : -     - 8+- X 9+0+Y ` - _ 2.- a+b+c+                              Y - _ _ d+> e+/./.f+_ 7 (   g+a > =.=.> _ , ( =+",
"- 7 7 7 - - - (+h+- - - - - - _ 2.) i+j+k+                              A - _ _ l+7 m+) ' - - 7 - - - - - - - - - - - 7 ",
"f _ _ _ _ _ _ _ _ _ _ : 2.2.- _ n+P (.-.o+p+                            ` '._ _ l+7 v _ _ _ _ < _ _ _ _ _ _ _ _ _ _ _ < ",
"_ _ _ _ _ _ e._ _ 3.3._ 2.2.- _ : - q+    r+s+                          ( - _ _ _ m+_ _ _ v _ _ _ t+u+_ _ _ < v+< _ _ _ ",
"- - - - - - P - w+- m+- - 7 - _ j - q+    x+y+          k.k.        ` `   - < _ : - z+- 7 m+- A+7 7 - - - - - - - - 7 ) ",
"B+- _ ; Y Y ) _ C+D+E+A ,.F+- _ e.- G+` k.              H+I+t.      J+k.  - f _ K+7 L+M+A N+_ O+~ D+> _ 7   # ) : P+..( ",
"  - _ 7 Y   - _ -   $ $ ,.Q+- _ _ -  .R+k.                ,.x.      t.-.# - < _ 5.- M.p   S+_ T+Y   P _ -   U+V+_ W+_.  ",
"  X+< -     - _ -   U.l.Y+Z+- u 2.H.$.q+                    ,.,.  ,.,.  Y 7 _ _ _ `+ @    .@_ +@A A +@_ 7     - _ 7     ",
"  - @@-     - _ -   $ $ { #@H $@2.%@&@-.                    t.(.  t.-.    - _ _ v+*@0.  D+-+_ - A   7 _ '   A - _ 7     ",
"                      =@-@q++ ;@,.-.t.                      -.(.-.t.          r r 1 0.  r >@                            ",
"                    + ,@@ t.'@)@-.,.,.                      -.t.-.t.-.(.      0.q 1 0.  J.r                             ",
"                    $ =@@ )@'@q+-.t.                        -.t.!@,.~@(.      1 q 1 0.q 0.                              ",
"                    + U.$ {@]@t.q.,.                          ^@t./@(@          0.* S.y.                                ",
"                    + _@@ Q+:@:@x.                            <@  [@}@          |@S.1 0.                                ",
"                    + _@@ 1@w.:@,.                                -.t.          0.1 r r                                 ",
"                          -.w.!@                                  -.t.                                                  ",
"                            ,.!@                                -.t.                                                    ",
"                                                                                                                        ",
"                                                                                                                        ",
"                                                                                                                        ",
"                                                                                                                        "};
