/* XPM */
static char * fD_xpm[] = {
"60 60 248 2",
"  	c #A6B980",
". 	c #000000",
"+ 	c #090501",
"@ 	c #12150B",
"# 	c #A5B87F",
"$ 	c #EEB044",
"% 	c #EFB145",
"& 	c #F0B245",
"* 	c #EEB145",
"= 	c #EDAE44",
"- 	c #A4B77F",
"; 	c #AA1212",
"> 	c #AB1513",
", 	c #AB1713",
"' 	c #AB1913",
") 	c #AA1613",
"! 	c #AA1312",
"~ 	c #AA1412",
"{ 	c #AB1313",
"] 	c #A8BA82",
"^ 	c #ADBF89",
"/ 	c #A5B880",
"( 	c #180000",
"_ 	c #EEB045",
": 	c #EFB245",
"< 	c #EFB144",
"[ 	c #0A0D06",
"} 	c #0A0C06",
"| 	c #15190E",
"1 	c #AABD85",
"2 	c #ABBE87",
"3 	c #A7BA82",
"4 	c #9ABD78",
"5 	c #EDB249",
"6 	c #040200",
"7 	c #AEC08A",
"8 	c #A8BB82",
"9 	c #94BE74",
"0 	c #EEB34D",
"a 	c #EDB044",
"b 	c #ECB047",
"c 	c #EEB349",
"d 	c #A9BC84",
"e 	c #A8BB83",
"f 	c #A0BB7C",
"g 	c #8CC06F",
"h 	c #BD8989",
"i 	c #92BF72",
"j 	c #C9D7C4",
"k 	c #C0D0BD",
"l 	c #0E1B09",
"m 	c #BA8787",
"n 	c #A0B27B",
"o 	c #AFC18C",
"p 	c #97BD76",
"q 	c #79C463",
"r 	c #B9C9A7",
"s 	c #C2D1BA",
"t 	c #8BA36D",
"u 	c #BB6F6F",
"v 	c #BA6464",
"w 	c #AEC08B",
"x 	c #89C16D",
"y 	c #ACBE87",
"z 	c #BACAAA",
"A 	c #96AC75",
"B 	c #91A771",
"C 	c #B95858",
"D 	c #BA6262",
"E 	c #BA8686",
"F 	c #A6B780",
"G 	c #92BF73",
"H 	c #88C16C",
"I 	c #A9C086",
"J 	c #80C367",
"K 	c #070806",
"L 	c #BA5C5C",
"M 	c #BA5A5A",
"N 	c #9BBC79",
"O 	c #87C16C",
"P 	c #A6BE82",
"Q 	c #97C279",
"R 	c #849C67",
"S 	c #FCF0F0",
"T 	c #FFF3F3",
"U 	c #F7EEEB",
"V 	c #F8EEEB",
"W 	c #86C46C",
"X 	c #A4C183",
"Y 	c #A8C086",
"Z 	c #A1BC7E",
"` 	c #FDF1F1",
" .	c #F7EDEB",
"..	c #87C46D",
"+.	c #84C26A",
"@.	c #75C762",
"#.	c #96C57A",
"$.	c #9FBB7B",
"%.	c #F7ECEC",
"&.	c #FBEFEF",
"*.	c #F6EAEA",
"=.	c #FEF2F2",
"-.	c #85C26A",
";.	c #9DC37F",
">.	c #91A370",
",.	c #F2E6E6",
"'.	c #12160B",
").	c #A5B97F",
"!.	c #A6B97F",
"~.	c #9ABE79",
"{.	c #050703",
"].	c #FCF1F0",
"^.	c #F9EFED",
"/.	c #212617",
"(.	c #889C6A",
"_.	c #76C561",
":.	c #90C173",
"<.	c #869D69",
"[.	c #14190D",
"}.	c #F3E7E7",
"|.	c #F7EBEB",
"1.	c #8AA26C",
"2.	c #9FB27B",
"3.	c #A3B67E",
"4.	c #99AE77",
"5.	c #69C859",
"6.	c #89A16B",
"7.	c #75C561",
"8.	c #B0C28E",
"9.	c #A4B77E",
"0.	c #3A0E0E",
"a.	c #3B1210",
"b.	c #3B1611",
"c.	c #3A1210",
"d.	c #7C9662",
"e.	c #879F69",
"f.	c #69C759",
"g.	c #AEBF8A",
"h.	c #A2B47C",
"i.	c #F2DEDE",
"j.	c #A2B47D",
"k.	c #B1C28D",
"l.	c #F1DDDD",
"m.	c #A1B57C",
"n.	c #370D0D",
"o.	c #380D0D",
"p.	c #A91212",
"q.	c #92A871",
"r.	c #390E0E",
"s.	c #A0B47C",
"t.	c #380E0E",
"u.	c #3B1711",
"v.	c #3D1A14",
"w.	c #3C1511",
"x.	c #3C1612",
"y.	c #FAEBEB",
"z.	c #A4B67E",
"A.	c #7A9461",
"B.	c #F2DDDD",
"C.	c #A1BB7D",
"D.	c #9AAF78",
"E.	c #7F9663",
"F.	c #3A110F",
"G.	c #3B1612",
"H.	c #3A1310",
"I.	c #3B1310",
"J.	c #A5B980",
"K.	c #6F8C59",
"L.	c #381610",
"M.	c #150303",
"N.	c #BC8988",
"O.	c #7CC464",
"P.	c #BC8888",
"Q.	c #35110E",
"R.	c #BB8A88",
"S.	c #7DC365",
"T.	c #91BF72",
"U.	c #7BC464",
"V.	c #6FC65D",
"W.	c #A3B57D",
"X.	c #6F3737",
"Y.	c #6E3737",
"Z.	c #6A6363",
"`.	c #6E3939",
" +	c #BB8B88",
".+	c #BD8B89",
"++	c #B3C4A1",
"@+	c #40425E",
"#+	c #3D3F5E",
"$+	c #3E405E",
"%+	c #150D0D",
"&+	c #C4D3B9",
"*+	c #C6D4C3",
"=+	c #B6C7A2",
"-+	c #AABD86",
";+	c #AABC88",
">+	c #9AAF8D",
",+	c #C6D5C2",
"'+	c #C8D6C2",
")+	c #3F415E",
"!+	c #ABBD88",
"~+	c #A5B67F",
"{+	c #A7B985",
"]+	c #B0C297",
"^+	c #CAD8C4",
"/+	c #ACBD8B",
"(+	c #7E9864",
"_+	c #C4D3BC",
":+	c #BDCCAE",
"<+	c #AABD89",
"[+	c #C7D6C0",
"}+	c #C1D1B4",
"|+	c #C7D6C1",
"1+	c #C6D5BF",
"2+	c #B2C398",
"3+	c #B8C9A6",
"4+	c #A6B985",
"5+	c #A6B982",
"6+	c #A1B581",
"7+	c #ACBF89",
"8+	c #91A773",
"9+	c #829B66",
"0+	c #9EB37D",
"a+	c #A3B782",
"b+	c #99AF78",
"c+	c #9DB17E",
"d+	c #B0C18C",
"e+	c #ACBD87",
"f+	c #A8BB87",
"g+	c #A2BA7E",
"h+	c #98BD77",
"i+	c #B2C38F",
"j+	c #A2B67E",
"k+	c #A2B67D",
"l+	c #A3BA7E",
"m+	c #9CBC7A",
"n+	c #96AC78",
"o+	c #9EB27A",
"p+	c #9BBC78",
"q+	c #A2BA7D",
"r+	c #9BB07A",
"s+	c #88A06B",
"t+	c #45495F",
"u+	c #95BE74",
"v+	c #A4BA7E",
"w+	c #7E9964",
"x+	c #78935F",
"y+	c #839B67",
"                                                  . . . . . . . . . . . + @                                             ",
"                                              # . $ % & % * % % & % & & = & .                                           ",
"                                            - . . ; ; ; ; ; ; ; ; ; > , ; ' . .                                         ",
"                                    #     - . ) ; ; ; ; ) ) ' ; ! ~ ; { ; ; ; ! .         ] ^                           ",
"                                    / . . . ( % % _ = : & & & & % % % % % & & < [ } @ @ | 1 1     2 3                   ",
"                  4 4           . . . & & % & & & & & & 5 & & & & & : & & & & & % : % & & 6 . .   7 8                   ",
"                  9 9         . & & 0 & $ a & < % % % b . . . . . . . . b % & & & & % & & c & & . 1                     ",
"          d e   f g           . . . . . . . . . . . . . . h h h h h h . . . . . . . . . . . . . .                       ",
"          d ^   f g         i g j k   / . h h h h h h h h . h h h h l m h h h h h h . n o 1   1 1                       ",
"          ] ^   p p       p q   r s t t . h h h h h h h . h h u v h h . h h h h h h . / 7 ]   w                         ",
"              w g f     x x y e   z A B . h h h h h h h . h v C C D E . h h h h h h . F ^ ] 1 1                         ",
"  G H p     ] I g       J f y e       t . h h h h K . . . . L C M D . } . . h h h h . w ^ ] w                           ",
"  N O p       P Q     q p w           R . h h . . . S T T T . . . . T U V } . . h h . 1 ^ ] w                           ",
"        J i   W X   p p Y Z           A . . . . T T T T T T ` T T T T T T T  .. . . .     ] ^                           ",
"        p p   ..^   +.@.#.$.          t . %.&.*.T T T T T T T T T T T T T T T T T =..                                   ",
"          x x -.w p J ;.]       ] ^   >.. ,.T T =.T T T T T T T T T T T T T T T T =.'.                                  ",
"      ).!.p p -.I W ~.^       w w       . {.. =.=.T ].T T T T T T T T T T T T T ^./.(.                                  ",
"      !.    p _.:.;.P 1     7 ^         A <.[.}.=.` |.T T T T T T T T T T T T T .   1.2.      3.4.                      ",
"              5.W X ^ ]   ] 7     . . . . . . . . . . . T T T T T T T . . . . . . . . . .     6.4.                      ",
"              7.J 8.1   ] ^   9.. . 0.a.0.0.0.0.0.0.. . . . . . . . . . b.c.a.0.0.0.0.a.. . d.e.                        ",
"              g f.7 g.  ^ ] h.. . 0.0.0.0.0.0.0.0.0.0.. . ; i.; T . . a.0.0.0.0.0.0.0.0.0.. . j.                        ",
"                  k.1 ] ^   h.. 0.0.0.0.0.0.0.0.0.0.0.0.. T ; l.; . 0.0.0.0.0.0.0.0.0.0.0.0..                           ",
"                      1 1     . 0.0.0.0.0.0.0.0.0.0.0.a.. ; l.; T . 0.0.0.0.0.0.0.0.0.0.0.0.. m.                        ",
"                      1 1     . n.0.0.0.. o.0.0.0.0.0.0.. T ; T p.. 0.0.0.0.0.0.0.. 0.0.0.0.. q.                        ",
"                      1 1     . r.0.0.o.. a.0.0.0.0.0.a.. ; T ; T . 0.0.0.0.0.0.0.. 0.0.0.0.. s.                        ",
"                              . t.0.0.r.. 0.0.0.0.0.0.r.. T ; T ; . u.0.0.0.0.0.0.. 0.0.0.0..                           ",
"                    t e.      . 0.0.0.r.. r.0.0.0.0.0.r.. ; T ; l.. 0.0.0.0.0.0.v.. 0.0.0.0.. 3.                        ",
"                    A B       . 0.0.0.0.. 0.0.0.0.0.0.0.. T ; T p.. 0.0.0.0.0.0.0.. 0.0.0.0.. 3.                        ",
"                      t e.  s.. a.0.w.x.. 0.0.0.0.0.0.0.. p.T ; y.. 0.0.0.0.0.0.a.. 0.0.0.0.. z.                        ",
"                      A B   A.. 0.0.0.0.. a.0.0.0.0.0.0.. T ; B.; . 0.0.0.0.0.0.0.. 0.0.0.0.. 3.                        ",
"              G C.      t D.E.. F.0.a.G.. 0.0.0.0.0.0.H.. ; l.; T . I.0.0.0.0.0.a.. x.0.0.a..                           ",
"            p G J.      t K.A . . . . . . a.0.0.0.0.0.0.. T ; T ; . L.0.0.0.0.0.0.. . . . M.. 3.                        ",
"    -.    f g       f   A K.. . h h h h . 0.0.0.0.0.0.. . ; T ; T . . 0.0.0.0.0.0.. N.N.h h . .                         ",
"    g O.p f g   f J g   A A . h h h h P.. 0.0.0.0.0.0.. ; l.; T ; l.. Q.0.0.0.0.0.. R.h h h h .                         ",
"      i p S.x p g i         . h h h h h . . 0.0.0.c.. . T ; T ; T ; . . 0.0.0.0.. . h h h h h . /                       ",
"        g O.T.p             . N.h h h h N.. a.0.0.c.. . . . . . . . . . 0.0.0.0.. h h h h h h . ^                       ",
"          J U.f           h.. h h h h . h . 0.. . . . . . . . . . . . . . . . 0.. h . h h h h . ]                       ",
"          V.p             W.. h h h h . . . . . X.Y.X.X.X.X.Z.X.Z.`.X.X.X.X.. . . . . h h h h .                         ",
"        p p     1         W.. . .  +.+. W.  . . . . . . . . . . . . . . . . . . .   . h h . . .                         ",
"                1   ++z         . . . . r   . @+#+#+#+#+#+#+#+. $+#+#+#+#+#+#+. 1 ] . %+. . 1 /                         ",
"                  &+*+=+      1 -+;+>+,+'+  . )+#+#+#+#+#+#+#+. #+#+#+#+#+#+#+. !+  ^ ~+# {+]                           ",
"                ]+^+/+(+      w     e.s._+:+. $+#+#+#+#+#+#+#+. $+#+#+#+#+#+#+. w   ^ ]   ^ ]                           ",
"              <+[+}+] B A   ^ ]     R     |+. #+#+#+#+#+#+#+#+. #+#+#+#+#+#+#+. ] ^ ^ ]   ^ ]                           ",
"              <+1+2+^ s.(+] ^       R     3+. #+#+#+#+#+#+#+$+. #+#+#+#+#+#+#+. ] ^ w   ] ^                             ",
"                    w   A 4+      5+6+3.4.  . #+#+#+#+#+#+#+$+. $+#+#+#+#+#+#+. - ] 7+C.  w                             ",
"                    1 1 A 4+      8+  9+4.  . #+#+#+#+#+#+#+#+. #+#+#+#+#+#+#+. /   C.G   w                             ",
"                    o y 0+0+    a+b+  R   / . #+#+#+#+#+#+#+#+. #+#+#+#+#+#+#+. / f g       p                           ",
"                    1 1 w t s.y c+s.t s.    . #+#+#+#+#+#+#+#+. #+#+#+#+#+#+#+.   f g     p p                           ",
"                      d+e+R ] f+A s.t       . #+#+#+#+#+#+#+$+. #+#+#+#+#+#+)+. p f g   g+h+                            ",
"                    ] i+^ t 5+j+# k+k+    - . #+#+#+#+#+#+#+#+. #+#+#+#+#+#+#+. l+      m+$.                            ",
"                    1 d+^ n+5+o+# s.      9.. . #+#+#+#+#+#+#+. #+#+#+#+#+#+. . p+q+g H g                               ",
"                    ] o 1 <+r+t (+A           . . #+#+#+#+#+#+. #+#+#+#+#+. .   g 4 J i                                 ",
"                    ] g.^ 4+s+s+B               . #+#+#+#+#+#+. #+#+#+#+t+.     m+u+v+4                                 ",
"                    ] g.^ !+w+s+A             . . . . . . . . . . . . . . . .         g+                                ",
"                          s.w+x+        . . . . . . . . . . . . . . . . . . . . . .                                     ",
"                            A y+      . . . . . . . . . . . . . . . . . . . . . . . .                                   ",
"                                        . . . . . . . . . . . . . . . . . . . . . .                                     ",
"                                              . . . . . . . . . . . . . . . .                                           ",
"                                                -                 # # #                                                 ",
"                                                                                                                        "};
