/* XPM */
static char * fD_xpm[] = {
"60 60 591 2",
"  	c #A6B980",
". 	c #A8BB83",
"+ 	c #A8BA82",
"@ 	c #ADBF89",
"# 	c #A4B77E",
"$ 	c #454E34",
"% 	c #4D573A",
"& 	c #9CAD78",
"* 	c #000000",
"= 	c #AABD85",
"- 	c #ABBE87",
"; 	c #A7BA82",
"> 	c #9ABD78",
", 	c #A3B57D",
"' 	c #AFC196",
") 	c #B8C9A6",
"! 	c #BDCDAE",
"~ 	c #6D7A53",
"{ 	c #576242",
"] 	c #9EB07A",
"^ 	c #A0B37B",
"/ 	c #AEC08B",
"( 	c #AEC08A",
"_ 	c #A8BB82",
": 	c #94BE74",
"< 	c #9AAB76",
"[ 	c #15190E",
"} 	c #B8C7AE",
"| 	c #CDDBCB",
"1 	c #BFCEB2",
"2 	c #DBCA22",
"3 	c #DFCC13",
"4 	c #DFCC15",
"5 	c #3E462E",
"6 	c #9CB278",
"7 	c #A3BA7E",
"8 	c #A9BC84",
"9 	c #A0BB7C",
"0 	c #8CC06F",
"a 	c #9EB17A",
"b 	c #A3B67E",
"c 	c #0E1108",
"d 	c #5D5F58",
"e 	c #C8D6C6",
"f 	c #AABD89",
"g 	c #AEC093",
"h 	c #B4C59D",
"i 	c #E3C313",
"j 	c #88BA6B",
"k 	c #88BA6C",
"l 	c #202D17",
"m 	c #626361",
"n 	c #131513",
"o 	c #AEBDAB",
"p 	c #A8BB85",
"q 	c #C3D2BB",
"r 	c #CBD9CA",
"s 	c #555E4B",
"t 	c #FD3811",
"u 	c #FF1711",
"v 	c #FE2711",
"w 	c #FF1111",
"x 	c #FE2C11",
"y 	c #FE2111",
"z 	c #FE2611",
"A 	c #80C367",
"B 	c #AFC18C",
"C 	c #A2B47D",
"D 	c #343B26",
"E 	c #A0B27C",
"F 	c #97BD76",
"G 	c #687157",
"H 	c #181C10",
"I 	c #9BAC77",
"J 	c #8BAE6C",
"K 	c #10210B",
"L 	c #6E6E6C",
"M 	c #C2D1BA",
"N 	c #8BA36D",
"O 	c #91A771",
"P 	c #ACBEA4",
"Q 	c #626961",
"R 	c #FF1411",
"S 	c #FD4112",
"T 	c #A4B77F",
"U 	c #242A1A",
"V 	c #626262",
"W 	c #0A0C06",
"X 	c #8BBF6F",
"Y 	c #6D6D6D",
"Z 	c #363931",
"` 	c #89C16D",
" .	c #0F1A0A",
"..	c #696A66",
"+.	c #6B6B6B",
"@.	c #24281E",
"#.	c #BACAAA",
"$.	c #96AC75",
"%.	c #849C67",
"&.	c #2D4021",
"*.	c #A2B47C",
"=.	c #8AC16E",
"-.	c #92BF73",
";.	c #88C06C",
">.	c #202B17",
",.	c #636561",
"'.	c #575A50",
").	c #2A2F1E",
"!.	c #A9C086",
"~.	c #86B76A",
"{.	c #6D6E6A",
"].	c #5D6159",
"^.	c #696969",
"/.	c #111111",
"(.	c #A0B47C",
"_.	c #88A06A",
":.	c #4B533F",
"<.	c #DECB13",
"[.	c #DBC913",
"}.	c #DCCC1C",
"|.	c #9BB578",
"1.	c #A0B27B",
"2.	c #75B15E",
"3.	c #9BBC79",
"4.	c #86C06B",
"5.	c #242D1E",
"6.	c #6E7169",
"7.	c #A6BE82",
"8.	c #97C279",
"9.	c #666966",
"0.	c #272825",
"a.	c #60615E",
"b.	c #6C6C6C",
"c.	c #212121",
"d.	c #819864",
"e.	c #7C9562",
"f.	c #91A370",
"g.	c #90A16F",
"h.	c #5F6A48",
"i.	c #DDCB1E",
"j.	c #DDCC1D",
"k.	c #DDCC1A",
"l.	c #363E28",
"m.	c #566041",
"n.	c #3C442C",
"o.	c #3E502F",
"p.	c #172810",
"q.	c #4A5838",
"r.	c #3D5B2F",
"s.	c #79875C",
"t.	c #6E726C",
"u.	c #86C46C",
"v.	c #A4C183",
"w.	c #1F2517",
"x.	c #616261",
"y.	c #71736D",
"z.	c #414B31",
"A.	c #3A492D",
"B.	c #38412A",
"C.	c #404C30",
"D.	c #4A5438",
"E.	c #D2C32A",
"F.	c #DECC15",
"G.	c #DCCA22",
"H.	c #DECB16",
"I.	c #D9C819",
"J.	c #A5B87F",
"K.	c #A1B47C",
"L.	c #87C46D",
"M.	c #6C6F6C",
"N.	c #454C42",
"O.	c #646B58",
"P.	c #D5C312",
"Q.	c #D3C112",
"R.	c #CDBC10",
"S.	c #DECC19",
"T.	c #A1B37C",
"U.	c #6D6D6C",
"V.	c #192812",
"W.	c #3E5E30",
"X.	c #191D12",
"Y.	c #6D7865",
"Z.	c #6D7263",
"`.	c #333A27",
" +	c #D1C018",
".+	c #BFAF1A",
"++	c #DCCA20",
"@+	c #D9C92A",
"#+	c #C8B91B",
"$+	c #C9B912",
"%+	c #D9C81F",
"&+	c #94AA74",
"*+	c #A4B67E",
"=+	c #090A07",
"-+	c #686868",
";+	c #4A5443",
">+	c #212718",
",+	c #6D6E6C",
"'+	c #323824",
")+	c #212518",
"!+	c #D6C735",
"~+	c #D7C82D",
"{+	c #DACA29",
"]+	c #D5C625",
"^+	c #DBC91B",
"/+	c #DDCB17",
"(+	c #DCCB1B",
"_+	c #D8C722",
":+	c #D3C32A",
"<+	c #362E24",
"[+	c #1F2315",
"}+	c #020202",
"|+	c #6C6D6C",
"1+	c #72746E",
"2+	c #0F120A",
"3+	c #262B1C",
"4+	c #445034",
"5+	c #38432A",
"6+	c #100B09",
"7+	c #D49D93",
"8+	c #D09C91",
"9+	c #FDF1F0",
"0+	c #FBF0EF",
"a+	c #CD9B8E",
"b+	c #BC9283",
"c+	c #444D33",
"d+	c #94A572",
"e+	c #99AE77",
"f+	c #040404",
"g+	c #464645",
"h+	c #343A2A",
"i+	c #323825",
"j+	c #9AAC77",
"k+	c #9DB17A",
"l+	c #C08E85",
"m+	c #FAEFED",
"n+	c #FFF3F3",
"o+	c #F9EFEC",
"p+	c #C79489",
"q+	c #D49C92",
"r+	c #FCF1EF",
"s+	c #F2E9E5",
"t+	c #212617",
"u+	c #A5B880",
"v+	c #89A16B",
"w+	c #50514E",
"x+	c #6E706B",
"y+	c #313724",
"z+	c #9DAD7C",
"A+	c #A5B77F",
"B+	c #D39C91",
"C+	c #2C211B",
"D+	c #E8DDDD",
"E+	c #F8EDEB",
"F+	c #D29C92",
"G+	c #D29B91",
"H+	c #FCF1F0",
"I+	c #F9EDEC",
"J+	c #27251A",
"K+	c #0B0906",
"L+	c #7F9964",
"M+	c #879F69",
"N+	c #646464",
"O+	c #666666",
"P+	c #666863",
"Q+	c #9EAF7A",
"R+	c #1D2114",
"S+	c #D19A91",
"T+	c #CA978C",
"U+	c #CB958C",
"V+	c #D09A90",
"W+	c #BE8C83",
"X+	c #0A0505",
"Y+	c #6E7B54",
"Z+	c #4C5539",
"`+	c #262A1C",
" @	c #13160D",
".@	c #BD8C82",
"+@	c #D39C92",
"@@	c #D39B91",
"#@	c #DCB1AA",
"$@	c #DDB2AB",
"%@	c #D29B92",
"&@	c #BF8E84",
"*@	c #1A120E",
"=@	c #7E9864",
"-@	c #362920",
";@	c #2E1818",
">@	c #D1B8B6",
",@	c #F9E8E7",
"'@	c #F7E5E4",
")@	c #FBECEC",
"!@	c #FDF0EF",
"~@	c #EBCECB",
"{@	c #BCB3B3",
"]@	c #88A06B",
"^@	c #A1B57C",
"/@	c #33231E",
"(@	c #050603",
"_@	c #8F8A88",
":@	c #EAE0DE",
"<@	c #FCEEED",
"[@	c #FEF1F1",
"}@	c #F5E1E0",
"|@	c #EED5D3",
"1@	c #EFD6D3",
"2@	c #F7EBEB",
"3@	c #EEE2E1",
"4@	c #C2BDB7",
"5@	c #1A1E12",
"6@	c #92A871",
"7@	c #9DAF79",
"8@	c #ACBE87",
"9@	c #A7B982",
"0@	c #9F9996",
"a@	c #FEF2F2",
"b@	c #CBC1C1",
"c@	c #7A7474",
"d@	c #EBCECA",
"e@	c #FDF0F0",
"f@	c #F9EDED",
"g@	c #FEF3F2",
"h@	c #C9C1C0",
"i@	c #2F1B19",
"j@	c #050703",
"k@	c #9A9393",
"l@	c #F2E9E4",
"m@	c #FAEFEE",
"n@	c #D19A90",
"o@	c #D29E92",
"p@	c #FBEFEF",
"q@	c #D6D1C9",
"r@	c #78935F",
"s@	c #301C1A",
"t@	c #0F1209",
"u@	c #AAA2A2",
"v@	c #FDF1F1",
"w@	c #D1CFC5",
"x@	c #EBE0DE",
"y@	c #FAF0EF",
"z@	c #DAD1CE",
"A@	c #E7DEDA",
"B@	c #7E9964",
"C@	c #291515",
"D@	c #FCF0EF",
"E@	c #CFCAC4",
"F@	c #F5EBE8",
"G@	c #BDB4B3",
"H@	c #0F0F07",
"I@	c #282D1C",
"J@	c #6B7753",
"K@	c #E9DFDE",
"L@	c #F5EAE9",
"M@	c #F6EBE9",
"N@	c #F5ECE8",
"O@	c #24331B",
"P@	c #97A874",
"Q@	c #101008",
"R@	c #95A672",
"S@	c #93A471",
"T@	c #111CA1",
"U@	c #202875",
"V@	c #9AAB78",
"W@	c #809A6F",
"X@	c #14190D",
"Y@	c #0A0704",
"Z@	c #8B9F6C",
"`@	c #76845A",
" #	c #0916A3",
".#	c #333926",
"+#	c #96A874",
"@#	c #0413A4",
"##	c #111CA3",
"$#	c #6F8C59",
"%#	c #1C26A1",
"&#	c #0915A2",
"*#	c #444D66",
"=#	c #0917A3",
"-#	c #242D9F",
";#	c #85C26A",
">#	c #9AAF78",
",#	c #1C26A0",
"'#	c #202AA0",
")#	c #333927",
"!#	c #3D4534",
"~#	c #343D9A",
"{#	c #4E573B",
"]#	c #A0B57F",
"^#	c #7CC464",
"/#	c #889C6A",
"(#	c #0413A3",
"_#	c #373E29",
":#	c #3C4575",
"<#	c #0917A4",
"[#	c #010447",
"}#	c #1721A2",
"|#	c #323A7E",
"1#	c #596444",
"2#	c #92BF72",
"3#	c #7DC365",
"4#	c #222CA2",
"5#	c #222718",
"6#	c #707D56",
"7#	c #0D1AA3",
"8#	c #01044C",
"9#	c #1E28A2",
"0#	c #1E289C",
"a#	c #91BF72",
"b#	c #1D269A",
"c#	c #889868",
"d#	c #98AA75",
"e#	c #7BC464",
"f#	c #1A24A0",
"g#	c #1721A0",
"h#	c #29329C",
"i#	c #5B6547",
"j#	c #A6B880",
"k#	c #6FC65D",
"l#	c #1722A1",
"m#	c #0412A1",
"n#	c #291A16",
"o#	c #0B149E",
"p#	c #576141",
"q#	c #495371",
"r#	c #232D9F",
"s#	c #64704C",
"t#	c #110606",
"u#	c #343E82",
"v#	c #2C359C",
"w#	c #4E583B",
"x#	c #111DA3",
"y#	c #09149F",
"z#	c #0613A2",
"A#	c #2B1840",
"B#	c #0513A3",
"C#	c #353E9A",
"D#	c #98A975",
"E#	c #190F0C",
"F#	c #1F0E0E",
"G#	c #4E5546",
"H#	c #141FA3",
"I#	c #0714A2",
"J#	c #2C183D",
"K#	c #2D182A",
"L#	c #121DA3",
"M#	c #120707",
"N#	c #303723",
"O#	c #5F665B",
"P#	c #0713A1",
"Q#	c #2C183A",
"R#	c #94A472",
"S#	c #353E9D",
"T#	c #CE998E",
"U#	c #9C726B",
"V#	c #515A40",
"W#	c #3E4A2E",
"X#	c #424C32",
"Y#	c #C4D3BC",
"Z#	c #BDCCAE",
"`#	c #2E1822",
" $	c #2D182B",
".$	c #23271A",
"+$	c #9CAE78",
"@$	c #2D3322",
"#$	c #A5B885",
"$$	c #AE8779",
"%$	c #445234",
"&$	c #C7D6C1",
"*$	c #7F8C69",
"=$	c #2D1835",
"-$	c #ABBC87",
";$	c #A9BC88",
">$	c #301E1B",
",$	c #D19C91",
"'$	c #B4907E",
")$	c #5F714A",
"!$	c #9FB089",
"~$	c #281753",
"{$	c #0813A0",
"]$	c #ACBE88",
"^$	c #515A3F",
"/$	c #D09B8F",
"($	c #7F8F65",
"_$	c #2D182E",
":$	c #ACBF89",
"<$	c #A1BB7D",
"[$	c #A2B57D",
"}$	c #D09B91",
"|$	c #38422B",
"1$	c #8FA06E",
"2$	c #829B66",
"3$	c #0B139E",
"4$	c #464E36",
"5$	c #434B32",
"6$	c #030201",
"7$	c #232818",
"8$	c #C9998C",
"9$	c #4C563B",
"0$	c #99AF78",
"a$	c #04129F",
"b$	c #031097",
"c$	c #0513A1",
"d$	c #031095",
"e$	c #586343",
"f$	c #9DB779",
"g$	c #CF9D90",
"h$	c #12150B",
"i$	c #485537",
"j$	c #3E472E",
"k$	c #9DB17E",
"l$	c #110F09",
"m$	c #130C09",
"n$	c #100606",
"o$	c #0E0505",
"p$	c #030101",
"q$	c #000009",
"r$	c #0C0505",
"s$	c #9CB779",
"t$	c #271A18",
"u$	c #B98A7F",
"v$	c #18180F",
"w$	c #A8BB87",
"x$	c #0C0805",
"y$	c #9FB37B",
"z$	c #9FB37C",
"A$	c #99AA75",
"B$	c #110908",
"C$	c #94B973",
"D$	c #95BB75",
"E$	c #99B376",
"F$	c #1C1411",
"G$	c #CE9A8F",
"H$	c #363325",
"I$	c #383F29",
"J$	c #222719",
"K$	c #7E9462",
"L$	c #A6B982",
"M$	c #96AC78",
"N$	c #1C1E12",
"O$	c #88C16C",
"P$	c #13260E",
"Q$	c #1B2413",
"R$	c #B78D7F",
"S$	c #271A17",
"T$	c #C7998A",
"U$	c #464F34",
"V$	c #1E2114",
"W$	c #34251E",
"X$	c #75925E",
"Y$	c #9FB97B",
"Z$	c #88BB6C",
"`$	c #9FB17B",
" %	c #9AAB7C",
".%	c #9BB07A",
"+%	c #D19B91",
"@%	c #7F9864",
"#%	c #8BA26C",
"$%	c #628150",
"%%	c #9FB17A",
"&%	c #96A878",
"*%	c #99AB76",
"=%	c #6A8855",
"-%	c #94AA73",
";%	c #7C9762",
">%	c #CF998F",
",%	c #8BB56E",
"'%	c #9BAB7B",
")%	c #2E1A18",
"!%	c #687A51",
"~%	c #0A1206",
"{%	c #8FB370",
"]%	c #93B973",
"^%	c #0A0303",
"/%	c #2D1818",
"(%	c #301D1A",
"_%	c #141A0D",
":%	c #2C1D18",
"<%	c #2A1616",
"[%	c #271313",
"}%	c #261313",
"|%	c #2B1616",
"1%	c #2D1717",
"2%	c #271414",
"3%	c #292F1E",
"4%	c #050202",
"5%	c #070202",
"6%	c #040101",
"7%	c #0F0606",
"8%	c #9FB27B",
"9%	c #95A773",
"0%	c #9BAD77",
"                                                                                                                        ",
"                                                                                                                        ",
"                                                                                                                        ",
"                                                                              . .         + @                           ",
"                                                # $ % &       * % #           . .         = =     - ;                   ",
"                  > >         , ' ) !           % $ ~ { ] ^ { % $ $               /       @ +     ( _                   ",
"                  : :       < [ } | 1           % 2 3 3 % $ 4 3 3 5 6 7           /       /     = =                     ",
"          8 .   9 0 a     b c d * e f     g ! h % 3 3 3 3 3 3 3 i * j >           = =   + @   = =                       ",
"        b 8 @   9 k * *   , l m n o       p q r s t u v w x y w z * A 9           + @   B =   = =                       ",
"      C D E @   F * G H I J K L * M N N     O P Q w w w v w w R S * 0   7 >         /   ( +   /                         ",
"    T U V W   / X * Y Z `  ...+.@.#.$.O     %.f * 3 3 3 3 3 3 3 3 &.*.  =.>         @ + @ + = =                         ",
"  -.;.>.,.'.).!.~.* Y {.* ].Y ^./.    N (._.$., :.3 3 3 3 3 <.[.}.* |.1.2.            / @ + /                           ",
"  3.4.5.V 6.* 7.8.* Y 9.0.a.Y b.c.    d.C e.f.g.h.i.j.k.i.l.m.n.o.p.q.r.% * % % % s.= = @ + /                           ",
"    , H V t.* u.v.* Y Y w.x.Y y./.5 $ z.A.B.% % C.D.% % % E.F.G.3 3 3 3 3 3 j.4 H.I.% J.  + @                           ",
"    K.* Y Y * L.* U Y M.N.b.Y O.* % 2 P.Q.R.3 3 3 3 3 3 3 3 3 3 3 3 3 3 3 3 3 3 3 S.5                                   ",
"    T.[ U.Y V.W.X.Y.Y Y Y Y Z.`. +3 3 3 3 3 3 3 3 3 3 3 3 3 3 P..+++}.@+++#+$+%+* % &+                                  ",
"    *+=+-+Y ;+* >+Y Y Y Y ,+'+)+!+~+j.{+]+^+/+(+@+@+_+%+3 :+<+* * * * * * W * [+    $.                                  ",
"    T }++.Y |+Y Y Y Y Y Y 1+2+3+% % % % 4+5+6+* * * * * * * 7+8+* 9+0+* a+b+c+d+    N (.      b e+                      ",
"      f+g+Y Y Y Y Y Y Y h+c.i+j+        k+* l+* m+n+o+U p+7+7+q+* r+s+t+q+7+* u+    (.N       v+e+                      ",
"      T.U w+Y Y Y Y Y x+y+z+            A+* B+C+m+D+E+* F+7+7+G+D H+I+J+7+7+K+        $.$.  L+M+                        ",
"        * * * N+Y Y O+P+* Q+            # R+7+S+* * R+T+7+7+7+7+U+* * V+7+W+X+        N (.O N                           ",
"            Y+Z+* `+* *  @#     ; -       * 7+q+.@+@@@q+7+7+7+7+#@$@%@7+7+&@*@u+      =@O =@(.                          ",
"                * -@;@;@*         - @     * >@7+7+$@,@'@)@!@)@n+'@'@~@7+)@{@U *.      $.]@$.J.^@                        ",
"                * ;@;@/@*           = @   (@_@:@$@<@[@<@}@}@|@'@'@)@1@~@2@3@4@5@      $.]@$.6@6@                        ",
"                * ;@;@;@* 7@    e+b   8@9@W 0@a@b@'@,@7+* * * * c@d@,@e@f@g@h@W *.    $.]@$.=@(.                        ",
"                * ;@;@i@* d+    e+b     8 j@k@l@m@n+~@7+G+n@7+7+7+o@n+n+p@n+q@(@J.    $.]@r@                            ",
"                * ;@;@s@* b   r@$.      A+t@u@n+n+v@w@x@+@$@7+}@}@n+y@:@z@n+A@*       $.]@B@(.                          ",
"                * ;@;@C@[ u+  %.    e+b T (@n+n+n+n+n+n+D@0+n+E@n+0+F@n+n+n+G@(@A+    $.]@B@(.                          ",
"                * ;@;@C@H@# (.N   $.e+b I@[ J@n+n+n+n+n+n+n+K@L@M@n+n+n+n+N@O@c P@      $.B@(.                          ",
"                * ;@;@C@Q@R@=@$.$.r@  S@* T@U@V@n+n+n+n+n+n+n+n+n+n+n+n+n+W@X@5 l.s.      $.$.                          ",
"              -.* ;@;@C@Y@Z@M+(.=@  s.`@[+ # #.#n+n+n+n+n+n+n+n+n+n+n+n++#[ $ @###{ s.    $.$.                          ",
"            F -.* ;@;@;@* $#$.%.    * H @#%#&#* l.n+n+n+n+n+n+n+n+n+n+s.[ *#=#@#@#-#{ s.  $.$.                          ",
"    ;#    9 0 J.* ;@;@;@* $#>#N     c ,#@#@#@#'#)#* n+n+n+n+n+n+n+n+% R+!#@#@#@#@#@#~#% {#]#$.                          ",
"    0 ^#F 9 0 J.* ;@;@i@* /#$.$.  % * @#@#@#@#@#(#)#_#D+n+n+n+n+n+s.5 :#<#@#@#[#% @#@#}#|#1#                            ",
"      2#F 3#` F * ;@;@;@* +#    +#$ 4#@#@#@#@#@#@#@#* 5#6#n+n+n+n+* * 7#@#@#7#8#$ ~ @#@#9#0#*                           ",
"        0 ^#a#F * ;@;@;@* +#    $ % @#@#@#@#@#@#@#@#@#b#H * c#n+l.t+@#@#@#@#@#* *+d#* @#@#@#$ {#@                       ",
"          A e#9 * ;@;@;@* +#  l.f#@#@#@#@#@#@#@#@#@#@#@#%#R+R+[ t+g#@#@#@#@#@#5#J.  {#h#@#@#@#i#j#                      ",
"          k#F   * ;@;@;@* +#  $ 4#@#@#@#@#@#l#=#@#@#@#@#@#@#m#n#o#@#@#@#@#@#@#* p#  * q#@#@#@#r#s#                      ",
"        F F   1.t#;@;@C@* +#$ u#@#@#@#@#@#v#w#[ x#@#@#@#y#z#@#A#B#@#@#@#@#@#@#(#_#  = * C#@#@#@#{ D#                    ",
"              T E#;@;@F#[ c#~  #@#@#@#@#G#$ ~ t+H#@#@#@#I#J#@#K#B#@#@#@#@#@#@#L#5#+ @ * U @#@#@# #%                     ",
"              J.M#;@;@F#U N#* L#@#@#@#* O#+#+#t+=#@#@#@#P#@#@#Q#B#@#@#@#@#@#@#@#*   @ R#5@@#@#@#S#%                     ",
"              J.* ;@;@F#* T#U#V#@#@#W#X#Y#Z#+#t+x#@#@#@#z#`#@# $B#@#@#@#@#@#@#@#.$T @ + +$@$@#@#@#%                     ",
"              #$* ;@;@;@* 7+7+$$% =#%$+#  &$*$l.H#@#@#@#@#B#@#=$B#@#@#@#@#@#@#@#* -$@ + T.* @#@#@#% *+                  ",
"              ;$* ;@;@>$* ,$7+7+'$* )$    ) !$* @#@#@#@#@#~$@# ${$@#@#@#@#@#@#@#* ]$/   E ^$@#@#@#%                     ",
"              J.* ;@;@;@* o@7+7+/$5@($b e+  c#t+@#@#@#@#@#B#z#_$z#@#@#@#@#@#@#@#l.E :$<$u+V#@#@#@#t+[$                  ",
"              A+* ;@;@;@* 7+7+}$7+|$1$2$e+  +#* @#@#@#@#@#`#@#=$3$@#@#@#@#@#@#@#[   <$-.b 4$5$% t+6$7$a                 ",
"              T * ;@;@;@* 8$* ~ 9$0$  %.    +#t+ #@#@#a$a$@#@#;@b$c$(#B#@#d$@#@#e$f$0   t+g$q+7+7+7+(@h$T               ",
"              J.* ;@;@;@* i$j$8@k$(.N (.    1$H (#(#=#l$m$n$C.* n$o$p$* * q$* r$* s$0   * 7+q+@@g$t$u$'+,               ",
"              1.* ;@;@;@v$)$+ w$$.(.N       a * * * * x$[$  y$M+z$N A$* 7+G+B$C$D$E$0 7@F$G$S+* 7+* H$I$                ",
"              , * ;@;@;@J$K$L$M$(.$.$.          R+7+7+5@    (.N (.N (.* 7+7+N$0 O$9 0   P$Q$R$S$T$U$'+J.                ",
"              [$V$W$;@;@* M$L$%.(.N             * 7+7+* ,   (.N r@$.X$* 7+7+* Y$O$9 0 O$Z$`$* * l.l.A+                  ",
"              u+* ;@;@;@*  %.%N =@$.          `$(@+%@@*       @%N #%$%* 7+7+* %%0 > A 2#      A+a                       ",
"              b * ;@;@;@* &%]@]@O           *%* h$* * c       =%  -%;%* +%>%* (@,%A 9 0                                 ",
"              J.* ;@;@;@* '%B@]@$.    J.+$* * * ;@;@)%)%*         (.!%H * * (@[ ~%* {%]%                                ",
"              u+* ;@;@;@* (.B@r@  d#* * * ^%/%;@;@;@;@(%*         k+_%:%)%)%<%;@;@* * h$* a C                           ",
"              u+R+;@;@[%[++#$.r@b c W * }%|%;@;@;@;@;@1%(@J.    (.* )%;@;@;@;@;@;@C@;@C@* * * *                         ",
"                * * 2%* 3%      T.* ;@;@;@;@;@;@;@;@;@(%* b     J.* )%1%;@;@;@;@;@;@;@;@;@;@)%* *                       ",
"                K.* H * +#      *%* ;@;@/%;@;@;@C@;@i@* * [$      K.* c i@i@>$;@i@;@;@<%<%;@i@W W                       ",
"                                T.(@* * * * t#t#* (@* * K.          [$*+W * W * * 4%5%p$6%7%* W 7@                      ",
"                                  C *+  J.8%J.  7@9%9%              u+    I a [$%%[$J.A+T 0%# A+                        "};
