/* XPM */
static char * flor_xpm[] = {
"60 60 169 2",
"  	c #A6B980",
". 	c #A8BB83",
"+ 	c #A8BA82",
"@ 	c #ADBF89",
"# 	c #AABD85",
"$ 	c #ABBE87",
"% 	c #A7BA82",
"& 	c #9ABD78",
"* 	c #B0C297",
"= 	c #B8C9A6",
"- 	c #BDCDAE",
"; 	c #AEC08B",
"> 	c #AEC08A",
", 	c #A8BB82",
"' 	c #94BE74",
") 	c #C1D1B7",
"! 	c #CDDBCB",
"~ 	c #BFCEB2",
"{ 	c #A3BA7E",
"] 	c #A9BC84",
"^ 	c #A0BB7C",
"/ 	c #8CC06F",
"( 	c #C7D5C0",
"_ 	c #C8D6C6",
": 	c #AABD89",
"< 	c #AEC093",
"[ 	c #B4C59D",
"} 	c #92BF72",
"| 	c #C9D7C4",
"1 	c #C0D0BD",
"2 	c #A8BB85",
"3 	c #C3D2BB",
"4 	c #CBD9CA",
"5 	c #B6C7A2",
"6 	c #97BD76",
"7 	c #80C367",
"8 	c #AFC18C",
"9 	c #79C463",
"0 	c #B9C9A7",
"a 	c #C2D1BA",
"b 	c #8BA36D",
"c 	c #91A771",
"d 	c #ACBEA4",
"e 	c #CFDCCD",
"f 	c #89C16D",
"g 	c #9BBC78",
"h 	c #ACBE87",
"i 	c #BACAAA",
"j 	c #96AC75",
"k 	c #849C67",
"l 	c #CBD9C7",
"m 	c #C6D5C0",
"n 	c #8AC16E",
"o 	c #92BF73",
"p 	c #88C16C",
"q 	c #A9C086",
"r 	c #A0B47C",
"s 	c #88A06A",
"t 	c #C1D0B6",
"u 	c #87C16C",
"v 	c #81C368",
"w 	c #9BBC79",
"x 	c #A6BE82",
"y 	c #97C279",
"z 	c #7E9864",
"A 	c #85C26A",
"B 	c #86C46C",
"C 	c #A4C183",
"D 	c #A8C086",
"E 	c #A1BC7E",
"F 	c #7B9661",
"G 	c #76C560",
"H 	c #87C46D",
"I 	c #84C26A",
"J 	c #75C762",
"K 	c #96C57A",
"L 	c #9FBB7B",
"M 	c #9DC37F",
"N 	c #879F69",
"O 	c #A5B97F",
"P 	c #A6B97F",
"Q 	c #9ABE79",
"R 	c #77925F",
"S 	c #76C561",
"T 	c #90C173",
"U 	c #88A06B",
"V 	c #A3B67E",
"W 	c #99AE77",
"X 	c #69C859",
"Y 	c #869F6A",
"Z 	c #6B8A56",
"` 	c #89A16B",
" .	c #75C561",
"..	c #B0C28E",
"+.	c #7F9964",
"@.	c #69C759",
"#.	c #AEBF8A",
"$.	c #B1C28D",
"%.	c #A5B87F",
"&.	c #A1B57C",
"*.	c #92A871",
"=.	c #78935F",
"-.	c #7E9964",
";.	c #95C378",
">.	c #A5C284",
",.	c #A1BB7D",
"'.	c #9AAF78",
").	c #A5B980",
"!.	c #6F8C59",
"~.	c #92C175",
"{.	c #90C373",
"].	c #A0B57F",
"^.	c #7CC464",
"/.	c #ABC48A",
"(.	c #95C277",
"_.	c #7DC365",
":.	c #91BF72",
"<.	c #7BC464",
"[.	c #6FC65D",
"}.	c #9EB28B",
"|.	c #B3C4A1",
"1.	c #AEC18E",
"2.	c #C1D1B6",
"3.	c #CEDCCC",
"4.	c #C3D2C0",
"5.	c #C4D3B9",
"6.	c #C6D4C3",
"7.	c #AABD86",
"8.	c #AABC88",
"9.	c #9BB08E",
"0.	c #C6D5C2",
"a.	c #C8D6C2",
"b.	c #CAD8C4",
"c.	c #ACBD8B",
"d.	c #C4D3BC",
"e.	c #BDCCAE",
"f.	c #C7D6C0",
"g.	c #C1D1B4",
"h.	c #C7D6C1",
"i.	c #AEC091",
"j.	c #C6D5BF",
"k.	c #B2C398",
"l.	c #A6B985",
"m.	c #A6B982",
"n.	c #A1B581",
"o.	c #9DB17A",
"p.	c #7A9561",
"q.	c #ACBF89",
"r.	c #91A773",
"s.	c #829B66",
"t.	c #9EB37D",
"u.	c #A3B782",
"v.	c #99AF78",
"w.	c #9DB17E",
"x.	c #B0C18C",
"y.	c #ACBD87",
"z.	c #A8BB87",
"A.	c #B2C38F",
"B.	c #96AC78",
"C.	c #75925E",
"D.	c #9BB07A",
"E.	c #7F9864",
"F.	c #8BA26C",
"G.	c #678754",
"H.	c #6A8855",
"I.	c #94AA73",
"J.	c #7C9762",
"K.	c #92BE73",
"L.	c #ABBD88",
"                                                                                                                        ",
"                                                                                                                        ",
"                                                                                                                        ",
"                                                                              . .         + @                           ",
"                                                                              . .         # #     $ %                   ",
"                  & &           * = -                                             ;       @ +     > ,                   ",
"                  ' '           ) ! ~                               { {           ;       ;     # #                     ",
"          ] .   ^ /             ( _ :     < - [                     / &           # #   + @   # #                       ",
"          ] @   ^ /         } / | 1       2 3 4 5           6 6     7 ^           + @   8 #   # #                       ",
"          + @   6 6       6 9   0 a b b     c d e :           f f g /   { &         ;   > +   ;                         ",
"              ; / ^     f f h .   i j c     k : l m           6 6 /     n &         @ + @ + # #                         ",
"  o p 6     + q /       7 ^ h .       b r s j   * t             / u ^   v             ; @ + ;                           ",
"  w u 6       x y     9 6 ;           k   z r                   6 7 ^ A             # # @ + ;                           ",
"        7 }   B C   6 6 D E           j F j     b r             / G 6 6                   + @                           ",
"        6 6   H @   I J K L           b c k   b                 6 f / ^                                                 ",
"          f f A ; 6 7 M +       + @   r b k r N                   ^ /               j                                   ",
"      O P 6 6 A q B Q @       ; ;       z R F j                                     j                                   ",
"      P     6 S T M x #     > @         j U U j                                     b r       V W                       ",
"              X B C @ +   + >           r Y Z j                                     r b       ` W                       ",
"               .7 ..#   + @                 N r                                       j j   +.N                         ",
"              / @.> #.  @ +                                                           b r c b                           ",
"                  $.# + @       % $                             ^ /                   z c z r                           ",
"                      # #         $ @                           A                     j U j %.&.                        ",
"                      # #           # @                       ^ /     A               j U j *.*.                        ",
"                      # #       W V   h #     L L             /     ^ /               j U j z r                         ",
"                                W V     # #   L L A         # p ^   A                 j U =.                            ",
"                    b N       =.j         # #     / v     ; # A   6 6                 j U -.r                           ",
"                    j c       k     W V     ;       / } @ # ^ /   / ^                 j U -.r                           ",
"                      b N   r b   j W V     # #       ;.>.  ^ / ^ /       w o           j -.r                           ",
"                      j c   z j j =.        # #       ; / ^ 6 6 9 6     A / ,.            j j                           ",
"              o ,.      b '.N r z             @ +   # #   /  .f 6   / A                   j j                           ",
"            6 o ).      b !.j k               ;   # #     A A ^ / 7 }                     j j                           ",
"    A     ^ /       ^   j !.'.b                 ; 8 #   ^ ~.{.^ p p                     % ].j                           ",
"    / ^.6 ^ /   ^ 7 /   j j j j               + @ > + # /.>.(.^.}       $ $             @ ]                             ",
"      } 6 _.f 6 / }                             ; @ + # #   / ^         > h           @                                 ",
"        / ^.:.6                                   ; $.#                     ;         8       + @                       ",
"          7 <.^                                   8 @                       # #     + @       @ +                       ",
"          [.6                                                               + @     # #     # #                         ",
"        6 6     #               %   : }.                                      @ +   # #   # #                           ",
"                #   |.i         1.2.3.4.0                                     # # + @     8 #                           ",
"                  5.6.5       # 7.8.9.0.a.                                    + @   @ +   > +                           ",
"                * b.c.z       ;     N r d.e.                                    ;   @ +   @ +                           ",
"              : f.g.+ c j   @ +     k     h.i.                                  + @ @ +   @ +                           ",
"              : j.k.@ r z + @       k     = *           W W         V V         + @ ;   + @                             ",
"                    ;   j l.      m.n.V W               o.` b       p.W           + q.,.  ;                             ",
"                    # # j l.      r.  s.W                 j c       b r             ,.o   ;                             ",
"                    8 h t.t.    u.v.  k                     j j   j j       /     ^ /       6                           ",
"                    # # ; b r h w.r b r                     b N   b r       } 6   ^ /     6 6                           ",
"                      x.y.k + z.j r b                       r N r b           6 6 ^ /   6 f                             ",
"                    + A.@ b m.B.r j j                       r b r b r N       / p ^ /   9 6                             ",
"                    # x.@ B.m.k r b                         r b =.j C.N       ^ p ^ / p /                               ",
"                    + 8 # : D.b z j                           E.b F.G.          / & 7 }                                 ",
"                    + #.@ l.U U c                             H.  I.J.          K.7 ^ /                                 ",
"                    + #.@ L.-.U j                                 r b           / ^ 6 6                                 ",
"                          r -.=.                                  r b                                                   ",
"                            j =.                                r b                                                     ",
"                                                                                                                        ",
"                                                                                                                        ",
"                                                                                                                        ",
"                                                                                                                        "};
