/* XPM */
static char * kk_xpm[] = {
"60 60 331 2",
"  	c #A6B980",
". 	c #A8BB83",
"+ 	c #A8BA82",
"@ 	c #ADBF89",
"# 	c #AABD85",
"$ 	c #ABBE87",
"% 	c #A7BA82",
"& 	c #9ABD78",
"* 	c #B0C297",
"= 	c #B8C9A6",
"- 	c #BDCDAE",
"; 	c #AEC08B",
"> 	c #AEC08A",
", 	c #A8BB82",
"' 	c #94BE74",
") 	c #C1D1B7",
"! 	c #CDDBCB",
"~ 	c #BFCEB2",
"{ 	c #A3BA7E",
"] 	c #A9BC84",
"^ 	c #A0BB7C",
"/ 	c #8CC06F",
"( 	c #C7D5C0",
"_ 	c #C8D6C6",
": 	c #AABD89",
"< 	c #AEC093",
"[ 	c #B4C59D",
"} 	c #92BF72",
"| 	c #C9D7C4",
"1 	c #C0D0BD",
"2 	c #A8BB85",
"3 	c #C3D2BB",
"4 	c #CBD9CA",
"5 	c #B6C7A2",
"6 	c #97BD76",
"7 	c #80C367",
"8 	c #AFC18C",
"9 	c #79C463",
"0 	c #B9C9A7",
"a 	c #C2D1BA",
"b 	c #8BA36D",
"c 	c #91A771",
"d 	c #ACBEA4",
"e 	c #CFDCCD",
"f 	c #89C16D",
"g 	c #9BBC78",
"h 	c #ACBE87",
"i 	c #BACAAA",
"j 	c #96AC75",
"k 	c #849C67",
"l 	c #CBD9C7",
"m 	c #C6D5C0",
"n 	c #8AC16E",
"o 	c #92BF73",
"p 	c #88C16C",
"q 	c #A9C086",
"r 	c #A0B47C",
"s 	c #88A06A",
"t 	c #C1D0B6",
"u 	c #87C16C",
"v 	c #81C368",
"w 	c #9BBC79",
"x 	c #A6BE82",
"y 	c #97C279",
"z 	c #7E9864",
"A 	c #85C26A",
"B 	c #86C46C",
"C 	c #A4C183",
"D 	c #A8C086",
"E 	c #A1BC7E",
"F 	c #7B9661",
"G 	c #76C560",
"H 	c #87C46D",
"I 	c #84C26A",
"J 	c #75C762",
"K 	c #96C57A",
"L 	c #9FBB7B",
"M 	c #BCC69F",
"N 	c #F1E9E2",
"O 	c #EFEAE2",
"P 	c #9DC37F",
"Q 	c #879F69",
"R 	c #000000",
"S 	c #A5B97F",
"T 	c #A6B97F",
"U 	c #9ABE79",
"V 	c #77925F",
"W 	c #76C561",
"X 	c #90C173",
"Y 	c #88A06B",
"Z 	c #A3B67E",
"` 	c #99AE77",
" .	c #69C859",
"..	c #869F6A",
"+.	c #6B8A56",
"@.	c #89A16B",
"#.	c #75C561",
"$.	c #B0C28E",
"%.	c #96A874",
"&.	c #0E1109",
"*.	c #15180D",
"=.	c #7F9964",
"-.	c #69C759",
";.	c #AEBF8A",
">.	c #412525",
",.	c #452626",
"'.	c #442626",
").	c #292F1D",
"!.	c #98AA75",
"~.	c #B1C28D",
"{.	c #482A29",
"].	c #462727",
"^.	c #FFF3F3",
"/.	c #A4B77F",
"(.	c #462828",
"_.	c #A5B87F",
":.	c #A1B57C",
"<.	c #8A9A6A",
"[.	c #4E2D2D",
"}.	c #92A871",
"|.	c #90AA6F",
"1.	c #5D3939",
"2.	c #523030",
"3.	c #889869",
"4.	c #472928",
"5.	c #4C2C2C",
"6.	c #5C3838",
"7.	c #081105",
"8.	c #5A6B44",
"9.	c #9EB17A",
"0.	c #78935F",
"a.	c #050B03",
"b.	c #050703",
"c.	c #0A1006",
"d.	c #6E8A55",
"e.	c #7E9964",
"f.	c #553232",
"g.	c #472929",
"h.	c #030401",
"i.	c #576242",
"j.	c #9AAB78",
"k.	c #613C3C",
"l.	c #452828",
"m.	c #452727",
"n.	c #060803",
"o.	c #5F6A48",
"p.	c #4F613C",
"q.	c #84AD68",
"r.	c #020201",
"s.	c #0C0E07",
"t.	c #1D2415",
"u.	c #A1BB7D",
"v.	c #9AAF78",
"w.	c #0A0C06",
"x.	c #563333",
"y.	c #523231",
"z.	c #462827",
"A.	c #462B28",
"B.	c #462928",
"C.	c #472D2A",
"D.	c #0A0E06",
"E.	c #A5B980",
"F.	c #6F8C59",
"G.	c #90A06E",
"H.	c #030302",
"I.	c #472A29",
"J.	c #6D7A53",
"K.	c #839365",
"L.	c #020202",
"M.	c #17100C",
"N.	c #17100B",
"O.	c #090C05",
"P.	c #070D04",
"Q.	c #0E1108",
"R.	c #0F1209",
"S.	c #A0B57F",
"T.	c #7CC464",
"U.	c #452C29",
"V.	c #010100",
"W.	c #7DC365",
"X.	c #583535",
"Y.	c #13160B",
"Z.	c #9DAD7C",
"`.	c #91BF72",
" +	c #080A04",
".+	c #909F73",
"++	c #7BC464",
"@+	c #79875C",
"#+	c #492A2A",
"$+	c #15180E",
"%+	c #677250",
"&+	c #6FC65D",
"*+	c #553333",
"=+	c #533232",
"-+	c #523131",
";+	c #402323",
">+	c #27FC2D",
",+	c #37F635",
"'+	c #31F531",
")+	c #060703",
"!+	c #492B2B",
"~+	c #3C2520",
"{+	c #0A0C05",
"]+	c #0E0606",
"^+	c #040502",
"/+	c #0B0E07",
"(+	c #0D1008",
"_+	c #57EA49",
":+	c #3AED37",
"<+	c #060804",
"[+	c #462A28",
"}+	c #472828",
"|+	c #010101",
"1+	c #687062",
"2+	c #838C81",
"3+	c #CAD8C4",
"4+	c #ACBD8B",
"5+	c #728A5A",
"6+	c #482929",
"7+	c #5E3A3A",
"8+	c #5A3636",
"9+	c #C7D6C0",
"0+	c #C1D1B4",
"a+	c #45F33D",
"b+	c #311A1A",
"c+	c #136F15",
"d+	c #C6D5BF",
"e+	c #B2C398",
"f+	c #186E18",
"g+	c #0B0D06",
"h+	c #030402",
"i+	c #1D0D0D",
"j+	c #311B1A",
"k+	c #177017",
"l+	c #156D17",
"m+	c #1A7019",
"n+	c #482C2B",
"o+	c #050603",
"p+	c #167017",
"q+	c #187018",
"r+	c #222818",
"s+	c #176D17",
"t+	c #4CF041",
"u+	c #3FED3A",
"v+	c #0A0D06",
"w+	c #14180D",
"x+	c #472B29",
"y+	c #101409",
"z+	c #3AF737",
"A+	c #2DF22F",
"B+	c #070A04",
"C+	c #1D2113",
"D+	c #181D10",
"E+	c #9EB37D",
"F+	c #52F246",
"G+	c #42F03C",
"H+	c #37F335",
"I+	c #3FED39",
"J+	c #0D1108",
"K+	c #070A05",
"L+	c #000100",
"M+	c #2DFB30",
"N+	c #30F932",
"O+	c #157017",
"P+	c #11150B",
"Q+	c #44F13E",
"R+	c #36F433",
"S+	c #1D701B",
"T+	c #186F18",
"U+	c #26F12B",
"V+	c #28FB2E",
"W+	c #2EFA31",
"X+	c #21DE26",
"Y+	c #B0C18C",
"Z+	c #ACBD87",
"`+	c #A8BB87",
" @	c #171C0F",
".@	c #3BEA36",
"+@	c #2BFB30",
"@@	c #2FF931",
"#@	c #B2C38F",
"$@	c #A6B982",
"%@	c #11160C",
"&@	c #30FA32",
"*@	c #18701A",
"=@	c #177018",
"-@	c #15190E",
";@	c #28FC2E",
">@	c #151E0F",
",@	c #29301D",
"'@	c #96AC78",
")@	c #96A876",
"!@	c #27FC2E",
"~@	c #31FA32",
"{@	c #050602",
"]@	c #1E2214",
"^@	c #187019",
"/@	c #10120A",
"(@	c #4CED42",
"_@	c #191F12",
":@	c #192011",
"<@	c #38F535",
"[@	c #2FFB31",
"}@	c #626E4B",
"|@	c #0D1007",
"1@	c #5E7C4D",
"2@	c #A2B57E",
"3@	c #1F2316",
"4@	c #32FA32",
"5@	c #2AFB2F",
"6@	c #171C10",
"7@	c #4E583B",
"8@	c #96A878",
"9@	c #3CF437",
"0@	c #202516",
"a@	c #303723",
"b@	c #92A472",
"c@	c #0C0F07",
"d@	c #6A8855",
"e@	c #7B8D5F",
"f@	c #7B9561",
"g@	c #4DEF43",
"h@	c #2BFC30",
"i@	c #10130A",
"j@	c #10140A",
"k@	c #ABBD88",
"l@	c #5B6F47",
"m@	c #1A6F19",
"n@	c #323A25",
"o@	c #171A0E",
"p@	c #1B2012",
"                                                                                                                        ",
"                                                                                                                        ",
"                                                                                                                        ",
"                                                                              . .         + @                           ",
"                                                                              . .         # #     $ %                   ",
"                  & &           * = -                                             ;       @ +     > ,                   ",
"                  ' '           ) ! ~                               { {           ;       ;     # #                     ",
"          ] .   ^ /             ( _ :     < - [                     / &           # #   + @   # #                       ",
"          ] @   ^ /         } / | 1       2 3 4 5           6 6     7 ^           + @   8 #   # #                       ",
"          + @   6 6       6 9   0 a b b     c d e :           f f g /   { &         ;   > +   ;                         ",
"              ; / ^     f f h .   i j c     k : l m           6 6 /     n &         @ + @ + # #                         ",
"  o p 6     + q /       7 ^ h .       b r s j   * t             / u ^   v             ; @ + ;                           ",
"  w u 6       x y     9 6 ;           k   z r                   6 7 ^ A             # # @ + ;                           ",
"        7 }   B C   6 6 D E           j F j     b r             / G 6 6                   + @                           ",
"        6 6   H @   I J K L           b c k   b           M N M O f / ^                                                 ",
"          f f A ; 6 7 P +       + @   r b k r Q               R   ^ /               j                                   ",
"      S T 6 6 A q B U @       ; ;       z V F j                                     j                                   ",
"      T     6 W X P x #     > @         j Y Y j                                     b r       Z `                       ",
"               .B C @ +   + >           r ..+.j                                     r b       @.`                       ",
"              #.7 $.#   + @                 Q r     %.&.R *.%.  %.                    j j   =.Q                         ",
"              / -.> ;.  @ +                       R R >.,.'.R R ).!.                  b r c b                           ",
"                  ~.# + @       % $             R {.].].].].].].R R %.      ^.  ^.    z c z r                           ",
"                      # #         $ @ ^.  N M /.R (.].].].].].R A             R       j Y j _.:.                        ",
"                      # #           # @ R     <.R (.].].[.[.].R /     A               j Y j }.}.                        ",
"                      # #       ` Z   h #     |.R ].].].1.2.].R 3.  ^ /               j Y j z r                         ",
"                                ` Z     # #   L R 4.].5.6.].].7.8.9.A                 j Y 0.                            ",
"                    b Q       0.j         # #   R (.].6.5.].].a.b.c.d.                j Y e.r                           ",
"                    j c       k     ` Z     ; %.R ].f.f.].].].g.g.R h.i.              j Y e.r                           ",
"                      b Q   r b   j ` Z     # j.R (.k.l.(.(.(.g.g.].m.n.o.p.q.          j e.r                           ",
"                      j c   z j j 0.        # j.r.s.R R R R R R R R R R R R t.            j j                           ",
"              o u.      b v.Q r z             w.R (.f.x.y.z.].].].].].A.B.C.D.R           j j                           ",
"            6 o E.      b F.j k             G.H.].(.f.x.2.].].].z.z.z.B.].I.].R J.        j j                           ",
"    A     ^ /       ^   j F.v.b         K.L.R R R R M.N.O.P.P.R R R R R Q.R R Q.R.      % S.j                           ",
"    / T.6 ^ /   ^ 7 /   j j j j         R '.].].].].].z.].].].z.z.z.z.B.g.(.(.U.V.R 9.  @ ]                             ",
"      } 6 W.f 6 / }                   R ].].].].].].].].].].].f.f.f.f.f.f.X.[.].].R Y.Z.                                ",
"        / T.`.6                     R ].].].2.2.6.f.5.].].].].f.f.f.f.f.f.X.[.].].(. +.+      + @                       ",
"          7 ++^         @+          R ].].].#+#+5.f.6.k.k.6.f.f.5.].].].].].].].].].$+%+      @ +                       ",
"          &+6         R R R R @+  %.R ].].].].].].B.].].].5.f.*+6.k.=+-+].].(.;+,.(.R j.    # #                         ",
"        6 6     #   R R >+,+'+R )+R R !+].].~+{+R R R R R R R R R R ]+R R O.R ^+R /+(+j.  # #                           ",
"                # i.L.>+>+>+>+_+:+>+R R R R Q.<+[+].].].].].].].].].,.>.(.g.].].].}+|+R   8 #                           ",
"                  1+2+R _+>+>+>+>+R m.(.}+].].].].].].].].].].].].].].].].].].].].].].R @+> +                           ",
"                * 3+4+5+R R >+>+R (.].].].6+].].].].].].].].f.6.7+f.].].].].8+2.].].].R R @ +                           ",
"              : 9+0++ c j %.R a+R (.].].].(.].].5.5.f.f.6.k.f.5.5.].].].5.f.x.#+].].b+R c+R +                           ",
"              : d+e+@ r z R f+R g+h+g.(.}+(.k.k.6.6.f.f.5.].].].].].].f.6.f.].i+].].j+/+k+k+R %.                        ",
"                    ;   R c+l+m+c+R )+R R 6+(.}+].].].].].].].].].].].f.(.(.n+V.R R o+p+c+q+r+                          ",
"                    # # j R s+m+c+R t+u+v+R o+w+x+].].z.B.].].B.(.].[+y+R o+R R z+A+B+q+c+c+C+D+                        ",
"                    8 h E+E+R c+c+R F+G+H+I+J+c+w+B+|+R R R R R R R K+L+>+M+>+>+>+>+N+R O+p+c+c+P+                      ",
"                    # # ; b R R o+R Q+>+>+R+|+S+T+c+c+c+c+c+R U+V+W+>+>+>+>+>+>+>+>+>+X+R c+R R R                       ",
"                      Y+Z+k + `+ @.@+@>+>+@@K+c+c+c+c+c+c+c+c+R V.R |+<+>+>+>+>+>+>+>+>+>+R                             ",
"                    + #@@ b $@%@R &@&@>+r.g+c+c+c+c+c+c+c+c+c+p+*@=@c+r.-@>+>+>+>+>+>+>+;@>@,@                          ",
"                    # Y+@ '@)@R !@~@>+>+{@]@c+c+c+c+c+c+c+c+c+p+^@^@R Q h+R /@>+>+>+>+>+>+(@R @+                        ",
"                    + 8 # : _@:@<@[@>+w+}@  R c+c+R R |@c+c+c+R c+R 1@    2@R 3@>+>+4@>+5@5@6@7@                        ",
"                    + ;.@ 8@R >+9@>+>+R @+  0@c+P+a@b@R c+R c@d@R e@f@      /.R R g@h@W+i@j@R @+                        ",
"                    + ;.@ k@l@R R _+>+R     %.R     %.n.m@R       r b           R >+R R n@<.                            ",
"                          r e.0.3.0@R                 o@R         r b         %.p@R @+                                  ",
"                            j 0.                                r b                                                     ",
"                                                                                                                        ",
"                                                                                                                        ",
"                                                                                                                        ",
"                                                                                                                        "};
