/* XPM */
static char * pL_xpm[] = {
"60 60 291 2",
"  	c #A6B980",
". 	c #000000",
"+ 	c #A4B77F",
"@ 	c #12150B",
"# 	c #DBCA1C",
"$ 	c #DFCC13",
"% 	c #A8BB83",
"& 	c #A8BA82",
"* 	c #A4B582",
"= 	c #98AA75",
"- 	c #AABD85",
"; 	c #A7BA82",
"> 	c #9ABD78",
", 	c #B0C297",
"' 	c #B8C9A6",
") 	c #BDCDAE",
"! 	c #AEC08B",
"~ 	c #A8BB82",
"{ 	c #94BE74",
"] 	c #C1D1B7",
"^ 	c #CDDBCB",
"/ 	c #BFCEB2",
"( 	c #A5B87F",
"_ 	c #A9BC84",
": 	c #A0BB7C",
"< 	c #8CC06F",
"[ 	c #C7D5C0",
"} 	c #C8D6C6",
"| 	c #AABD89",
"1 	c #AEC093",
"2 	c #ADBF89",
"3 	c #92BF72",
"4 	c #C9D7C4",
"5 	c #C0D0BD",
"6 	c #A8BB85",
"7 	c #C3D2BB",
"8 	c #CBD9CA",
"9 	c #97BD76",
"0 	c #79C463",
"a 	c #B9C9A7",
"b 	c #C2D1BA",
"c 	c #8BA36D",
"d 	c #91A771",
"e 	c #ACBEA4",
"f 	c #89C16D",
"g 	c #ACBE87",
"h 	c #BACAAA",
"i 	c #96AC75",
"j 	c #849C67",
"k 	c #CBD9C7",
"l 	c #FFF3F3",
"m 	c #92BF73",
"n 	c #88C16C",
"o 	c #A9C086",
"p 	c #80C367",
"q 	c #A0B47C",
"r 	c #88A06A",
"s 	c #C1D0B6",
"t 	c #9BBC79",
"u 	c #87C16C",
"v 	c #A6BE82",
"w 	c #97C279",
"x 	c #7E9864",
"y 	c #86C46C",
"z 	c #A4C183",
"A 	c #A8C086",
"B 	c #A1BC7E",
"C 	c #7B9661",
"D 	c #87C46D",
"E 	c #84C26A",
"F 	c #75C762",
"G 	c #96C57A",
"H 	c #9FBB7B",
"I 	c #85C26A",
"J 	c #9DC37F",
"K 	c #879F69",
"L 	c #A5B97F",
"M 	c #A6B97F",
"N 	c #9ABE79",
"O 	c #A7BA81",
"P 	c #77925F",
"Q 	c #A5B880",
"R 	c #76C561",
"S 	c #90C173",
"T 	c #AEC08A",
"U 	c #AABC85",
"V 	c #A4B77E",
"W 	c #A2B57D",
"X 	c #889C6A",
"Y 	c #88A06B",
"Z 	c #69C859",
"` 	c #A4BE83",
" .	c #A9BC83",
"..	c #9FB17A",
"+.	c #75C561",
"@.	c #A4B67E",
"#.	c #252B1A",
"$.	c #212517",
"%.	c #CAC0C0",
"&.	c #4A4646",
"*.	c #0D0C0C",
"=.	c #100E0E",
"-.	c #898282",
";.	c #69C759",
">.	c #161A0F",
",.	c #E1D6D6",
"'.	c #3A3737",
").	c #010101",
"!.	c #070904",
"~.	c #524E4E",
"{.	c #1F1D1D",
"].	c #E0D6D6",
"^.	c #A3B57E",
"/.	c #202516",
"(.	c #F4E8E8",
"_.	c #6C6666",
":.	c #020201",
"<.	c #CBC1C1",
"[.	c #383535",
"}.	c #585353",
"|.	c #BCB3B3",
"1.	c #B567BB",
"2.	c #B568BB",
"3.	c #AAA2A2",
"4.	c #363333",
"5.	c #827C7C",
"6.	c #9D9696",
"7.	c #CCC2C2",
"8.	c #FEF2F2",
"9.	c #B366B9",
"0.	c #14180D",
"a.	c #E8DDDD",
"b.	c #F9EEEE",
"c.	c #D3C9C9",
"d.	c #7C7676",
"e.	c #3E3B3B",
"f.	c #9F9797",
"g.	c #E7DCDC",
"h.	c #E4D9D9",
"i.	c #534E4E",
"j.	c #121010",
"k.	c #8A8383",
"l.	c #2E2B2B",
"m.	c #0B1007",
"n.	c #11140A",
"o.	c #B9B1B1",
"p.	c #282626",
"q.	c #EEE3E3",
"r.	c #817B7B",
"s.	c #080707",
"t.	c #050603",
"u.	c #948D8D",
"v.	c #322F2F",
"w.	c #302D2D",
"x.	c #8B8484",
"y.	c #F0E5E5",
"z.	c #343131",
"A.	c #040404",
"B.	c #807A7A",
"C.	c #121111",
"D.	c #8C8585",
"E.	c #C3BABA",
"F.	c #A59D9D",
"G.	c #A2B67D",
"H.	c #595555",
"I.	c #161414",
"J.	c #8F8888",
"K.	c #413E3E",
"L.	c #070A04",
"M.	c #7CC464",
"N.	c #D7CDCD",
"O.	c #4B4747",
"P.	c #7A7474",
"Q.	c #7DC365",
"R.	c #060D04",
"S.	c #6F6A6A",
"T.	c #B8AFAF",
"U.	c #6E6969",
"V.	c #96A874",
"W.	c #B6ADAD",
"X.	c #100F0F",
"Y.	c #1D1B1B",
"Z.	c #080808",
"`.	c #A39B9B",
" +	c #191717",
".+	c #5F5B5B",
"++	c #0F0E0E",
"@+	c #B3AAAA",
"#+	c #78C161",
"$+	c #090C05",
"%+	c #3F3C3C",
"&+	c #262424",
"*+	c #A19A9A",
"=+	c #635E5E",
"-+	c #C0B7B7",
";+	c #676262",
">+	c #E3D8D8",
",+	c #ECE1E1",
"'+	c #F6EBEB",
")+	c #FDF1F1",
"!+	c #746E6E",
"~+	c #020202",
"{+	c #C6BCBC",
"]+	c #2F2C2C",
"^+	c #FCF0F0",
"/+	c #B1A9A9",
"(+	c #0A0909",
"_+	c #3D3A3A",
":+	c #787272",
"<+	c #B2A9A9",
"[+	c #BEB5B5",
"}+	c #D2C8C8",
"|+	c #726D6D",
"1+	c #050703",
"2+	c #151414",
"3+	c #5E5A5A",
"4+	c #1B1A1A",
"5+	c #F2E7E7",
"6+	c #EFE4E4",
"7+	c #EEE2E2",
"8+	c #FBEFEF",
"9+	c #D9CECE",
"0+	c #979090",
"a+	c #656060",
"b+	c #918A8A",
"c+	c #D4C9C9",
"d+	c #030303",
"e+	c #857F7F",
"f+	c #141212",
"g+	c #030502",
"h+	c #030402",
"i+	c #060702",
"j+	c #1B1919",
"k+	c #585454",
"l+	c #7C7575",
"m+	c #010100",
"n+	c #90B470",
"o+	c #353232",
"p+	c #BBB2B2",
"q+	c #837D7D",
"r+	c #020302",
"s+	c #7CAF62",
"t+	c #171B0F",
"u+	c #080A05",
"v+	c #0B0E07",
"w+	c #040603",
"x+	c #040602",
"y+	c #090B05",
"z+	c #13170C",
"A+	c #11150B",
"B+	c #010201",
"C+	c #060804",
"D+	c #2B4B21",
"E+	c #B0C18C",
"F+	c #0A0D06",
"G+	c #F4EBE7",
"H+	c #78935F",
"I+	c #6A8455",
"J+	c #739E5A",
"K+	c #AFC18C",
"L+	c #10130A",
"M+	c #7F9864",
"N+	c #8BA26C",
"O+	c #678754",
"P+	c #AEBF8A",
"Q+	c #241025",
"R+	c #AA6BAD",
"S+	c #0F1209",
"T+	c #B367B8",
"U+	c #6A8855",
"V+	c #94AA73",
"W+	c #7C9762",
"X+	c #0B1407",
"Y+	c #0D1108",
"Z+	c #A1B37B",
"`+	c #13160C",
" @	c #070804",
".@	c #11130A",
"+@	c #171C0F",
"@@	c #040502",
"#@	c #0D0E07",
"$@	c #050504",
"%@	c #040402",
"&@	c #0D1008",
"*@	c #0E1109",
"=@	c #070704",
"-@	c #0C0E07",
";@	c #0C0F07",
">@	c #020301",
",@	c #060803",
"'@	c #0A0D05",
"                                                                                                                        ",
"                                                                                                                        ",
"                                                                        . .                     .                       ",
"                                                . . . . .           + @ # $ . % %         & * . $ .                     ",
"                                                . . . . . . .       = . $ $ . % %         - . $ $ . ;                   ",
"                  > >           , ' )         . . . . . . . . . .     . $ $ . .   !     . . $ $ $ . ~                   ",
"                  { {           ] ^ /       ( . . . . . . . . . . . . $ $ $ $ $ . . . . . . $ $ $ .       . . . . .     ",
"          _ %   : <             [ } |     1 ) . . . . . . . . . . . . . . . . . . . . . . $ $ $ $ . . . . . . . . . .   ",
"          _ 2   : <         3 < 4 5       6 7 8 . . . . . . . . . . . . . . . . . . . . . $ $ $ $ . . . . . . . . . . . ",
"          & 2   9 9       9 0   a b c c     d e . . . . . . . . . . . . . . . . . . . . . . . . . . . . . . . . . . . . ",
"              ! < :     f f g %   h i d     j | k . . . . . . . . . . . . l l l l l . l l . . . . . . . . . . . . . . . ",
"  m n 9     & o <       p : g %       c q r i   , s . . . . . . . . . . . l l l l l . l l l . . . . . . . . . . . . . . ",
"  t u 9       v w     0 9 !           j   x q         . . . . . . . . . l l l l . l . l . l l . . . . . . . . . . . . . ",
"        p 3   y z   9 9 A B           i C i     c q             . . . . l l l l l l . l l l l . . . . . . . . . . .     ",
"        9 9   D 2   E F G H           c d j   c                 . . . . l l l l l . . . l l l . . . . . .               ",
"          f f I ! 9 p J &       & 2   q c j q K                 . . . . . l l l . . . . . l l . . . .                   ",
"      L M 9 9 I o y N 2       O !       x P C i                 . . . . . . . . . . . . . . . . . . . Q                 ",
"      M     9 R S J v _     T U   + V W X Y Y i                   . . . . . . . . . . . . . . . . . .                   ",
"              Z y `  .  M ... . . . . . . . . . . . . . . . . . . . . . . . . . . . . . . . . . . . .                   ",
"              +.p % @.#.$.. . . %.&.*.. =.. . . -.l l l l l l l l l . . . . . . . . . . . . . . . .                     ",
"              < ;.>.. . l l l ,.'.. . . ).. . . -.l l l l l l l l l . . . . . . . . . . . . . . .                       ",
"                . !.l l l l l ~.. . . . . . . {.].l l l l l l l l l l . . . . . . . . . . . . . .                       ",
"            ^./.l l l l l l (.. . . . . . . . _.l l l l l l l l l l l . . . . . . . . . . . . . . .                     ",
"            . :.l l l l l <.[.. . . . . . . . ,.l l l l l l l l l l l . . . . . . . . . . . . . . . .                   ",
"          . . l l l l l l }.. . . . . . . . |.l l l l l l l l l l l . . . . . 1.2.. . . . . . . . . .                   ",
"        .   . l l l l l l 3.. . 4.5.6.7.(.l l l l l l l l l l l l 8.. . . 9.1.1.1.1.. . . . . . . . .                   ",
"        0.  . l l l l l l (.a.(.l l l l l l l l l l b.c.d.e.f.g.l l . . . 1.1.1.1.1.. . . 1.1.1.. . .                   ",
"        .   . l l l l l l l l l l l l l l l l l l l h.i.. . j.k.l l . . 1.1.l.l.1.1.. . 1.m.n.1.1.. .                   ",
"        .   . l l l l l l l l l l l l l l l l l l l o.. . . . p.l l . . 1.1.l.l.1.1.1.1.1.m.n.1.1.. .                   ",
"        .   . l l l l l l l b.q.a.q.b.l l l l l l l r.. . . . s.b.l . . 1.1.1.1.1.1.1.1.1.1.1.1.1.. .                   ",
"        .   t.l l l l l g.u.v.. . w.x.g.l l l l l y.z.. . . . A.].l l . . . . . . . . . . . . . . .                     ",
"        . ( . l l l l y.B.C.. . . . s.D.l l l l l E.. . . . . . F.l l l . . . . . . . . . . . . . .                     ",
"    I   . G.. l l b.c.H.).. . . . . . I.b.l l l l J.. . . . . . K.y.l l l l l l l l l l l l L.V                         ",
"    < M..   . l l N.O.. . . . . . . . . ].l l l l P.. . . . . . . E.l l l l l l l l l l l l . V                         ",
"      ( . Q.R.l y.S.. . . . . . . . . . T.l l l l J.. . . . . . . U.y.l l l l l l l l l l l . V.                        ",
"        . M.. l W.X.. . . . Y.Z.. . . . `.l l l l E.. . . . . . .  +W.l l l l l l l l l l l . & 2                       ",
"        . p . .+. . . . . ).. . . . . . T.l l l l y.K.. . . . . . . ++@+b.l l l l l l l l l . 2 &                       ",
"        . #+. . . . . . . . . . . . . H.].l l l l l F.. . . . . . . . p.].l l l l l l l l l . -                         ",
"      . . . $+. . . . . . . . . . . %+c.b.l l l l l ].&+. . . . . . . . *+l l l l l l l l l .                           ",
"    . = .   . . . . . . . . . . . =+,.l l l l l l l b.x.A.. . . . . . . O.l l l l l b.-+;+d..                           ",
"          ( . . . . . . . >+,+y.'+)+l l l l l l l l l g.!+~+. . . . . . . l l l l l {+]+. . .                           ",
"          ( . . . . . . . . |.l l l l l l l l l l l l l ^+/+(+_+:+f.<+[+}+l l l l l |+. . . 1+                          ",
"          V . . . . . . . . . l l l l l l l l l l l l l l l l l l l l l l l l l l {+2+. . . 1+                          ",
"          M . . . . . . . . |.l l l l l l l l l l l l l l l l l l l l l l l l {+3+4+. . . . .                           ",
"          ( . . . . . . . l l l l l l l l l l l l l l l l l l l l l l l l l (.%+. . . . . . . (                         ",
"            . . . . . . . 5+6+7+8+l l l l l l l (.9+0+a+b+c+(.l l l l l l l 3.. . . . . . . .                           ",
"            . d+. . . . . . . . e+>+l l l <.O.f+. . . . . . . |.l l l l l N.. . . . . . . . g+Q                         ",
"          + L.h+i+w.).. . . . . . j+l l l k+. . . . . . . . . . l l l l l l+. . . . . *.. m+n+                          ",
"            +   . . . ~+. . . . . 4.l l l 3.. . . . . . *.o+. p+l l l l l q+. . . *.. r+. s+                            ",
"                  t+u+. :.. v+w+:.. x+. . . . . . . . . . . y+. z+. A+. . . . . . B+B+C+D+9                             ",
"                    - E+F+G+l . l l $+1.1.1.1.1.1.1..       q c H+i I+K   . l l . l l . J+                              ",
"                    & K+. l l . l l . . . . . . . . L+=       M+c N+O+    . l l . l l . V.                              ",
"                    & P+. l l . l l Q+1.. R+S+T+. 1.. +       U+  V+W+    . l l . l l . V.                              ",
"                    & P+. l l . l l . 1.. 1.h+1.. 1..             q c   . l l l X+l l .                                 ",
"                      . l l l . l l Y+.   :.  .   . Q             q c   . . . . . . . .                                 ",
"                    ( . . . . . . . .     Z+                    q c     `+.  @.@. . . +@                                ",
"                      @@. #@. . $@).%@                                  &@*@. . . =@C+.                                 ",
"                    ( . :.!.B+-@B+. .                                   ;@>@. . . . . .                                 ",
"                      . . $+$+. $+,@.                                   . . . . . S+h+'@                                ",
"                                  V.                                                                                    "};
