/* XPM */
static char * pU_xpm[] = {
"60 60 487 2",
"  	c #A6B980",
". 	c #96A874",
"+ 	c #A4B77F",
"@ 	c #98AA75",
"# 	c #363E28",
"$ 	c #576242",
"% 	c #6D7A53",
"& 	c #000000",
"* 	c #5F6A48",
"= 	c #9EB17A",
"- 	c #79875C",
"; 	c #3D452D",
"> 	c #13170C",
", 	c #12150B",
"' 	c #10130A",
") 	c #353C27",
"! 	c #5E6A48",
"~ 	c #999E61",
"{ 	c #9CA163",
"] 	c #292A16",
"^ 	c #8D9056",
"/ 	c #292F1E",
"( 	c #8FA06E",
"_ 	c #4E583B",
": 	c #020301",
"< 	c #222718",
"[ 	c #849365",
"} 	c #C3C779",
"| 	c #C5C97A",
"1 	c #495337",
"2 	c #2A301E",
"3 	c #B5B970",
"4 	c #C2C678",
"5 	c #212617",
"6 	c #889868",
"7 	c #A8BB83",
"8 	c #A8BA82",
"9 	c #ADBF89",
"0 	c #030402",
"a 	c #2F3522",
"b 	c #454E34",
"c 	c #C6CA7A",
"d 	c #1B2013",
"e 	c #95A672",
"f 	c #464F34",
"g 	c #AEB26B",
"h 	c #BEC377",
"i 	c #A6AA66",
"j 	c #A3B67E",
"k 	c #AABD85",
"l 	c #ABBE87",
"m 	c #A7BA82",
"n 	c #708A56",
"o 	c #0E1408",
"p 	c #161A0F",
"q 	c #171B0F",
"r 	c #94995E",
"s 	c #919458",
"t 	c #696D42",
"u 	c #B6BA70",
"v 	c #6C7045",
"w 	c #363D28",
"x 	c #1E1F0E",
"y 	c #BFC477",
"z 	c #C1C577",
"A 	c #868952",
"B 	c #2B311F",
"C 	c #2C3220",
"D 	c #0C0F07",
"E 	c #89986C",
"F 	c #7A885E",
"G 	c #AEC08A",
"H 	c #A8BB82",
"I 	c #6B8B53",
"J 	c #25321B",
"K 	c #040502",
"L 	c #BBBF74",
"M 	c #BEC275",
"N 	c #C5C979",
"O 	c #60633A",
"P 	c #010101",
"Q 	c #4D5639",
"R 	c #9AAB78",
"S 	c #A9BC84",
"T 	c #A0BB7C",
"U 	c #7FAE64",
"V 	c #4D573A",
"W 	c #050603",
"X 	c #555732",
"Y 	c #8F9257",
"Z 	c #B4B76E",
"` 	c #5A5C35",
" .	c #020201",
"..	c #6C7953",
"+.	c #8CC06F",
"@.	c #383535",
"#.	c #8A8383",
"$.	c #C5BCBC",
"%.	c #E0D6D6",
"&.	c #8B8584",
"*.	c #3E3B3B",
"=.	c #050703",
"-.	c #76845C",
";.	c #97BD76",
">.	c #030303",
",.	c #625E5E",
"'.	c #E3D8D8",
").	c #FFF3F3",
"!.	c #FEF2F2",
"~.	c #F0E5E5",
"{.	c #CBC1C1",
"].	c #535D3E",
"^.	c #AEC08B",
"/.	c #466637",
"(.	c #191717",
"_.	c #A59D9D",
":.	c #ECE1E1",
"<.	c #898282",
"[.	c #92BF73",
"}.	c #88C16C",
"|.	c #A9C086",
"1.	c #80C367",
"2.	c #364128",
"3.	c #1B1F12",
"4.	c #0D0B0B",
"5.	c #989090",
"6.	c #FBF0F0",
"7.	c #C1B7B7",
"8.	c #635E5E",
"9.	c #1C2014",
"0.	c #5F6B48",
"a.	c #9BBC79",
"b.	c #87C16C",
"c.	c #A6BE82",
"d.	c #97C279",
"e.	c #79C463",
"f.	c #D0D4CC",
"g.	c #1C1C1C",
"h.	c #221F1F",
"i.	c #B8AFAF",
"j.	c #E9DEDE",
"k.	c #8A8483",
"l.	c #10140A",
"m.	c #0F1209",
"n.	c #080A05",
"o.	c #748159",
"p.	c #92BF72",
"q.	c #86C46C",
"r.	c #A4C183",
"s.	c #A8C086",
"t.	c #A1BC7E",
"u.	c #DBDBDB",
"v.	c #736D6D",
"w.	c #ABA3A3",
"x.	c #999191",
"y.	c #EADFDF",
"z.	c #F8ECEC",
"A.	c #F6F1F1",
"B.	c #565852",
"C.	c #87C46D",
"D.	c #84C26A",
"E.	c #75C762",
"F.	c #96C57A",
"G.	c #738858",
"H.	c #FFFFFF",
"I.	c #9A9A9A",
"J.	c #020202",
"K.	c #060505",
"L.	c #534E4E",
"M.	c #D3C9C9",
"N.	c #5C5858",
"O.	c #161414",
"P.	c #3A3636",
"Q.	c #F3E9E9",
"R.	c #3F472F",
"S.	c #89C16D",
"T.	c #85C26A",
"U.	c #9DC37F",
"V.	c #494949",
"W.	c #413E3E",
"X.	c #464242",
"Y.	c #0D0C0C",
"Z.	c #CBC0C0",
"`.	c #C0C4BB",
" +	c #A5B97F",
".+	c #A6B97F",
"++	c #9ABE79",
"@+	c #080808",
"#+	c #9E9595",
"$+	c #666262",
"%+	c #EAEAEA",
"&+	c #76C561",
"*+	c #90C173",
"=+	c #070707",
"-+	c #1E1C1C",
";+	c #645F5F",
">+	c #2D2B2B",
",+	c #D5D5D5",
"'+	c #ECEDEA",
")+	c #99AE77",
"!+	c #69C859",
"~+	c #98A975",
"{+	c #121212",
"]+	c #2D2D2D",
"^+	c #FBFBFA",
"/+	c #7E7F7C",
"(+	c #89A16B",
"_+	c #75C561",
":+	c #B0C28E",
"<+	c #4E573B",
"[+	c #555555",
"}+	c #666565",
"|+	c #CFD5C7",
"1+	c #7F9964",
"2+	c #879F69",
"3+	c #69C759",
"4+	c #AEBF8A",
"5+	c #7E8B63",
"6+	c #C2C2C2",
"7+	c #141414",
"8+	c #393535",
"9+	c #CBC9C9",
"0+	c #7E9462",
"a+	c #B1C28D",
"b+	c #586243",
"c+	c #F0F0F0",
"d+	c #332F2F",
"e+	c #817B7B",
"f+	c #ABA5A5",
"g+	c #F3F1F1",
"h+	c #526440",
"i+	c #3B462D",
"j+	c #28321E",
"k+	c #5B6745",
"l+	c #596445",
"m+	c #D1D5CC",
"n+	c #EAE1E1",
"o+	c #FFFBFB",
"p+	c #FFFEFE",
"q+	c #C7CAC3",
"r+	c #212717",
"s+	c #0D1007",
"t+	c #535E3F",
"u+	c #A1B57C",
"v+	c #4F593D",
"w+	c #D7DCCD",
"x+	c #FBF1F1",
"y+	c #FBFCFB",
"z+	c #7A7A7A",
"A+	c #6C7C53",
"B+	c #92A871",
"C+	c #E7EAE2",
"D+	c #E7DCDC",
"E+	c #E1D6D6",
"F+	c #EFE5E5",
"G+	c #F4E8E8",
"H+	c #C1C2BF",
"I+	c #445335",
"J+	c #A0B47C",
"K+	c #F3E8E8",
"L+	c #C7BEBE",
"M+	c #958D8D",
"N+	c #867F7F",
"O+	c #7D7777",
"P+	c #817A7A",
"Q+	c #9A9292",
"R+	c #938C8C",
"S+	c #A19A9A",
"T+	c #B6ADAD",
"U+	c #E0D5D5",
"V+	c #202A18",
"W+	c #7F8E62",
"X+	c #64764E",
"Y+	c #4C5A3A",
"Z+	c #FFF4F4",
"`+	c #BBB2B2",
" @	c #4D4848",
".@	c #D9D9D9",
"+@	c #27311D",
"@@	c #6D7C54",
"#@	c #4E5B3C",
"$@	c #485437",
"%@	c #000100",
"&@	c #191D11",
"*@	c #FFF7F7",
"=@	c #6B6565",
"-@	c #BCB3B3",
";@	c #FFF6F6",
">@	c #F6F6F6",
",@	c #8C9E6C",
"'@	c #2C3521",
")@	c #1F2416",
"!@	c #FFFDFD",
"~@	c #CBC2C2",
"{@	c #585353",
"]@	c #807979",
"^@	c #FEFBFB",
"/@	c #ECECEC",
"(@	c #404F32",
"_@	c #191E11",
":@	c #080A04",
"<@	c #242A1A",
"[@	c #CBC8C8",
"}@	c #585454",
"|@	c #726D6D",
"1@	c #CCC2C2",
"2@	c #FAF0EF",
"3@	c #889D6A",
"4@	c #A1BB7D",
"5@	c #3E462E",
"6@	c #1D2114",
"7@	c #0B0E06",
"8@	c #E7E6E6",
"9@	c #6B6A6A",
"0@	c #958E8E",
"a@	c #0A0C05",
"b@	c #090C05",
"c@	c #8BA06C",
"d@	c #A5B980",
"e@	c #0E1309",
"f@	c #BBBBBB",
"g@	c #4D4D4D",
"h@	c #2F2C2C",
"i@	c #F0EEEC",
"j@	c #626E4B",
"k@	c #1E2415",
"l@	c #6D7D54",
"m@	c #F3F3F3",
"n@	c #C7C7C7",
"o@	c #959595",
"p@	c #7F7F7F",
"q@	c #505050",
"r@	c #3B3A3A",
"s@	c #302E2E",
"t@	c #535353",
"u@	c #010100",
"v@	c #8DA26E",
"w@	c #7CC464",
"x@	c #74B15D",
"y@	c #39512C",
"z@	c #0F1309",
"A@	c #E7E7E7",
"B@	c #E1E1E1",
"C@	c #D2D2D2",
"D@	c #CBCBCB",
"E@	c #AAAAAA",
"F@	c #9C9C9C",
"G@	c #9B9B9B",
"H@	c #BABABA",
"I@	c #939393",
"J@	c #2B2B2B",
"K@	c #454D33",
"L@	c #869567",
"M@	c #7DC365",
"N@	c #84AD67",
"O@	c #F4F4F4",
"P@	c #CCCCCC",
"Q@	c #B3B3B3",
"R@	c #83887A",
"S@	c #91BF72",
"T@	c #303723",
"U@	c #0F120A",
"V@	c #D6D6D6",
"W@	c #E0E0E0",
"X@	c #171B10",
"Y@	c #313824",
"Z@	c #9CAE78",
"`@	c #7BC464",
" #	c #E8E8E8",
".#	c #0E1108",
"+#	c #1A1E11",
"@#	c #11140B",
"##	c #EBEBEB",
"$#	c #94A572",
"%#	c #6FC65D",
"&#	c #11140A",
"*#	c #A4B67E",
"=#	c #252B1A",
"-#	c #F8F9F7",
";#	c #15190E",
">#	c #24281F",
",#	c #121510",
"'#	c #0F120E",
")#	c #010201",
"!#	c #373E28",
"~#	c #F9F9F8",
"{#	c #979995",
"]#	c #AFC18C",
"^#	c #B2BFA8",
"/#	c #5E655C",
"(#	c #070904",
"_#	c #EFEFEF",
":#	c #DEDEDE",
"<#	c #B0C297",
"[#	c #CAD8C4",
"}#	c #393F2C",
"|#	c #090D05",
"1#	c #F8F8F8",
"2#	c #FCFCFC",
"3#	c #161A10",
"4#	c #707D55",
"5#	c #AABD89",
"6#	c #C7D6C0",
"7#	c #C1D1B4",
"8#	c #2A311E",
"9#	c #C6D5BF",
"0#	c #B2C398",
"a#	c #96A576",
"b#	c #040602",
"c#	c #2B3026",
"d#	c #12170C",
"e#	c #88976C",
"f#	c #1C2114",
"g#	c #313725",
"h#	c #585858",
"i#	c #767676",
"j#	c #9FAF7F",
"k#	c #141A0D",
"l#	c #14180D",
"m#	c #DDDEDC",
"n#	c #FDFDFD",
"o#	c #212618",
"p#	c #3D442E",
"q#	c #1C2115",
"r#	c #0D1108",
"s#	c #F2F2F2",
"t#	c #060B04",
"u#	c #A5B87F",
"v#	c #23271A",
"w#	c #FEFEFE",
"x#	c #202416",
"y#	c #F0F0EF",
"z#	c #FDFEFD",
"A#	c #EFF1EC",
"B#	c #212C18",
"C#	c #93B973",
"D#	c #23281A",
"E#	c #060206",
"F#	c #09030A",
"G#	c #080C05",
"H#	c #B567BB",
"I#	c #B467BB",
"J#	c #B268B8",
"K#	c #050803",
"L#	c #76915E",
"M#	c #96AC75",
"N#	c #75925E",
"O#	c #869D68",
"P#	c #F6F7F5",
"Q#	c #8A996A",
"R#	c #202517",
"S#	c #0F050F",
"T#	c #070207",
"U#	c #0A0C06",
"V#	c #8BA36D",
"W#	c #8BA26C",
"X#	c #678754",
"Y#	c #171A0F",
"Z#	c #F7F7F7",
"`#	c #090B08",
" $	c #0B0D06",
".$	c #B368B8",
"+$	c #040104",
"@$	c #94AA73",
"#$	c #7C9762",
"$$	c #16190F",
"%$	c #819063",
"&$	c #B065B6",
"*$	c #B368B9",
"=$	c #F3F4F2",
"-$	c #F8FAF7",
";$	c #F9FAF9",
">$	c #EFF0EF",
",$	c #FAFAFA",
"'$	c #899969",
")$	c #030104",
"!$	c #AE63B4",
"~$	c #B269B6",
"{$	c #AC71AE",
"]$	c #A969AC",
"^$	c #0D0F07",
"/$	c #050605",
"($	c #9EAF7C",
"_$	c #9DAF79",
":$	c #060703",
"<$	c #0C0E07",
"[$	c #181C10",
"                                              .                                                                         ",
"                                          + @ # $                   % & * =                                             ",
"                    - ; > , ' ) *         @ ! ~ { -               * ] ^ / (                                             ",
"                    _ & & & & & : < [       # } | 1 =             2 3 4 5 6   7 7         8 9                           ",
"                  - ' & & & & & & & 0 a   . b c c / d $ - . - e f g h i # j   7 7   -     k k     l m                   ",
"                  n o & & & & & & & & & p q r s t u v w w & & & x y z A B j - # & & C D d E F     G H                   ",
"                  I J & & & & & & & & & & & K & & & & & & & & & L M N O & & & & & & & & & P ; Q R k                     ",
"          S 7   T U V & & & & & & & & & & & & & & & W & & & & & X Y Z `  .& & & & & & & & & P < ..                      ",
"          S 9   T +.  & & & & & & & & & & & & & @.#.$.%.%.$.&.*.0 & & & & & & & & & & & & & & =.-.                      ",
"          8 9   ;.;.  V & & & & & & & & & & & >.,.'.).).).).).!.~.{.#.*.& & & & & & & & & & & & ].                      ",
"              ^.+.T     /.& & & & & & & & & & & & (._.~.).).).).).).).:.<.& & & & & & & & & & & [                       ",
"  [.}.;.    8 |.+.      1.2.=.& 3.> & & & & & & & & 4.5.~.).).).).).).).6.7.8.& & & & & & & 9.0.=                       ",
"  a.b.;.      c.d.    e.;.^.= & f.g.& & & & & & & & & h.i.).).).).).).).).).j.k.*.l.& m.n.o.^.                          ",
"        1.p.  q.r.  ;.;.s.t.# - u.& & & & & & & & & & & v.).).).).).).w.x.x.y.z.A.B.& 5   8 9                           ",
"        ;.;.  C.9   D.E.F.G.& H.I.& & & & & J.K.& & & & L.).).).).M.N.O.4.4.P.w.Q.H.& R.                                ",
"          S.S.T.^.;.1.U.8 - - H.V.& & & & & & P & & & & W.~.).).).X.& & & & & Y.Z.H.`.&                                 ",
"       +.+;.;.T.|.q.++9 6 V H.H.& & & & & & & & & & & & @+#+).).w.P & & & & & & $+%+H.& _                               ",
"      .+    ;.&+*+U.c.k # - H.H.=+& & & & & & & & & & & & -+).).;+& & & & & & & >+,+H.'+&     j )+                      ",
"              !+q.r.9 ~+V H.H.H.{+& & & & & & & & & & & & P ).).;+& & & & & & & ]+,+H.^+/+_   (+)+                      ",
"              _+1.:+k . <+H.H.H.[+& & & & & & & & & & & & P ).).w.P & & & & & & }+%+H.H.|+5 1+2+                        ",
"              +.3+G 4+- 5+H.H.H.6+7+& & & & P 8+P & & & & @+).).).X.& & & & & Y.9+H.H.H.H.& 0+                          ",
"                  a+k b+5+H.H.H.H.c+d+P P P W.).e+J.& & J.e+).).).M.N.O.4.4.P.f+g+H.H.h+i+j+k+                          ",
"                      l+m+H.H.H.H.H.).).).).).).).).).).).).).).).).).w.x.x.n+o+p+H.q+r+& s+t+u+                        ",
"                      v+w+H.H.H.H.H.).).).).).).).).).).).).).).).).).).).).x+H.H.y+z+& & & A+B+                        ",
"                      v+C+H.H.H.H.H.).).).).D+E+E+F+G+G+!.).).).).).).).).).).H.H.H+& & & & I+J+                        ",
"                    . V H.H.H.H.H.H.).).K+L+M+N+O+P+Q+R+S+T+U+).).).).).).).).H.H.w & & & V+W+                          ",
"                    X+Y+* H.H.H.H.H.Z+).`+ @& & & & & & & & & _.~.).).).).).!.H..@& & & & +@@@                          ",
"                    #@$@%@&@H.H.H.H.*@D+=@& & & & & & & & & & & -@).).).).).;@H.>@& & & & & ,@                          ",
"                    % '@& & )@H.H.H.!@~@{@& & & & & & & & & & & ]@E+).).).).^@H./@& & & & (@,@                          ",
"                    b _@& :@& <@H.H.H.[@}@& & & & & & & & & & & & |@1@G+).2@p+H./@, & & & r+3@                          ",
"              [.4@  5@6@& & & 7@H.H.H.8@9@& & & & & & & & & & & & & & 0@6.o+H.H.H.a@D & & b@c@                          ",
"            ;.[.d@  5@&@& & & e@H.H.H.H.f@g@& & & & & & & & & & & & & h@i@H.H.H.H.j@& & & k@l@                          ",
"    T.    T +.      & & & & &  .H.H.H.H.m@n@o@p@q@r@s@& & & & & & & & t@H.H.H.H.H.H.u@: & & v@                          ",
"    +.w@;.T +.  T x@y@& & & z@z@H.H.H.H.H.H.A@B@B@C@D@E@F@G@H@I@& & J@D@H.H.H.H.H.H.K@& & & L@                          ",
"      p.;.M@S.;.+.N@& & & & & & D@H.H.H.H.H.H.H.H.H.H.H.H.H.H.O@P@Q@B@H.H.H.H.H.H.H.R@& & & L@                          ",
"        +.w@S@;.  % T@& & & & & q H.H.H.H.H.H.H.H.H.H.H.H.H.H.H.H.H.H.H.=.: U@V@H.H.W@X@K Y@Z@8 9                       ",
"          1.`@T   - w & & & &  .&  #H.H.H.H.H.H.H.H.H.H.H.H..#& & q H.+#& & & @###H.H.H.<@$#  9 8                       ",
"          %#;.    - w & & & & & & &#H.H.H.H.H.H.H.H.H.H.H.& u@& & & & n.& & & & c+H.H.H.V *#k k                         ",
"        ;.;.    k - =#& & & & & & 0 & & & H.H.H.H.H.H.H.:@& & & & & & & & & & & m.H.H.-#;#k k                           ",
"                k   >#,#& & & & & '#& )#& !#H.H.H.H.H.c+& & & & & & & & & & & & n.~#H.{#&@]#k                           ",
"                  ^#/#& & & & & & & & & & (#_#H.H.H.H.H.& & & & & & & & & & & & & :#H.Y@D G 8                           ",
"                <#[#}#|#& & & & & & & & & & 1#H.H.H.H.H.2###& & & & & & & & & & 3#& D@& 4#9 8                           ",
"              5#6#7#F 8#& & & & & & & & & & H.H.H.H.H.H.H.H.& W & & & & & & & & P & & n.( 9 8                           ",
"              5#9#0#a#b#& & & & & & & & & c#H.H.H.H.H.H.H.d#& & & & & & & & & & & & & u@~+9                             ",
"                    e#q & ;#& & & & & & & H.H.H.H.H.H.H.f#|#& & & & & & & & & & & & & &   ^.                            ",
"                    R & H.g#& & & & & 0 K H.H.H.H.H.H.h#u@& & & & & & & & & & & & & i#&   ^.                            ",
"                    j#& H.)@=#' m.& n.k#H.H.H.H.H.H.H.l#& & & & & & & & & & & & & m#n#& +   ;.                          ",
"                    R o# #H.H.p#q#.#r#s#H.H.H.H.H.H.H.& 0 & )#& & & & & & & t#)#a@ #H.@+u#;.;.                          ",
"                    . v# #H.H.H.H.w#J.D K x#y#n#w#z#A#D & & & & & & & : )#& & B#H.H.H.P C#S.                            ",
"                    ~+D# #H.H.H.H.H.& .#: & & & & & & E#F#& & & & G#l#=.(#.#H.H.H.H.H.& e.;.                            ",
"                    R & H.H.H.H.H.H.& ( .   $#:@H#I#H#J#H#H#H#K#L#M#N#O#& P#H.H.H.H.H.J.+.                              ",
"                    Q#v#H.H.H.H.H.H.R#6       & & S#& & & T#U#& V#W#X#@ Y#H.H.H.H.H.Z#`#                                ",
"                    ~+& H.H.H.H.H.H. $6       & .$+$H#& H#& H#&   @$#$  & H.H.H.H.H.1#P                                 ",
"                    Q#$$H.H.H.H.H.H.& %$      & &$& *$& H#& *$&   J+V#  & =$H.H.-$H.H.&                                 ",
"                    - & H.;$>$,$w#H.P '$    . )$!$& ~$& {$& ]$&   J+V#  & & .#& (#& ^$&                                 ",
"                      & =./$& J.& U#& +         &   & ($& _$U#  J+V#    & & & & & & & &                                 ",
"                      & :$0 & <$& K &             u#    +               K & & & & & & &                                 ",
"                    = & & W & & & P n.                                  & & & & & & & &                                 ",
"                    ( l#[$.#& & .#(#&                                   , & & P n.& & m.                                ",
"                          - - - -                                         .                                             "};
